<svg width="110" height="70" viewBox="0 0 110 70" fill="none" xmlns="http://www.w3.org/2000/svg">
<path d="M106.894 21.5559C104.969 19.6466 102.272 18.4387 99.2619 18.4399H19.7638C12.4676 18.4403 6.22837 23.5708 4.97431 30.6016L0.163791 57.5782C0.0532306 58.1968 0 58.8125 0 59.4188C0.000224564 62.2849 1.19078 64.9311 3.1374 66.8566C5.08172 68.7835 7.80485 70.0012 10.8408 70H88.8835C96.7502 69.9997 103.494 64.506 104.916 56.9379L109.821 30.8384C109.941 30.1938 110 29.5526 110 28.9211C110 26.0847 108.822 23.4639 106.894 21.5559ZM107.377 30.3996L102.473 56.4987C101.268 62.9133 95.5512 67.5708 88.8835 67.5705H10.8408C8.48814 67.5693 6.41187 66.6379 4.90395 65.1487C3.39828 63.658 2.4837 61.6209 2.48392 59.4188C2.48392 58.9515 2.52486 58.4764 2.61071 57.996L7.42128 31.0191C8.46714 25.1517 13.6754 20.8691 19.7638 20.8695H99.2619C101.588 20.8707 103.638 21.7916 105.127 23.2633C106.614 24.7362 107.516 26.7486 107.516 28.9211C107.516 29.4058 107.471 29.8996 107.377 30.3996Z" fill="#2C1A0E"/>
<path d="M72.0477 39.1619C72.1835 39.1785 72.302 39.2024 72.4308 39.2024C73.4378 39.2024 74.1126 38.5218 74.9602 35.1799L76.1333 30.582H83.4057L80.7916 41.344H78.2386L80.3374 32.7384H78.0421L77.4386 35.1558C76.0316 40.8747 74.5736 41.5123 72.6615 41.5123C72.2782 41.5123 71.8783 41.4723 71.502 41.3837L72.0477 39.1619Z" fill="#0065A8"/>
<path d="M83.426 30.3315H75.9908L74.7736 35.1227C73.9532 38.3601 73.3428 38.9513 72.4513 38.9513L71.9597 38.9048L71.8613 39.1087L71.2441 41.6059L72.6445 41.7527C74.8314 41.7527 76.2722 40.7122 77.6284 35.209C77.6284 35.209 78.0657 33.4613 78.1777 32.9895C78.4217 32.9895 79.7203 32.9895 80.0762 32.9895C79.9406 33.5442 77.981 41.5902 77.981 41.5902H80.9306L83.6633 30.3315H83.426ZM83.1481 30.8216C83.0123 31.3812 80.7407 40.7304 80.6527 41.0928C80.3949 41.0928 78.8795 41.0928 78.5031 41.0928C78.6354 40.5389 80.5916 32.4954 80.5916 32.4954H77.8996L77.2521 35.1003C75.8417 40.8084 74.4142 41.2602 72.6818 41.2602C72.6818 41.2602 72.0308 41.1946 71.7528 41.1632C71.8512 40.7836 72.1088 39.7247 72.1834 39.4263C72.2952 39.4354 72.4173 39.4487 72.4173 39.4487C73.6548 39.4487 74.3396 38.3817 75.1466 35.2338C75.1466 35.2338 76.1807 31.1765 76.2722 30.8216C76.5603 30.8216 82.7073 30.8216 83.1481 30.8216Z" fill="#0065A8"/>
<path d="M92.1869 38.2295C91.58 39.7541 90.2611 41.7464 87.2809 41.7464C83.7209 41.7464 83.4192 38.8372 83.5515 37.0671C83.7312 34.6065 85.2603 30.1743 89.4508 30.1743C92.926 30.1743 93.3362 32.7585 93.204 34.6065C93.1599 35.1802 92.9328 36.0059 92.7396 36.6162H86.23C86.1586 36.9196 86.1215 37.1914 86.101 37.4858C85.9722 39.2211 86.8842 39.5833 87.6539 39.5833C88.4778 39.5833 89.305 39.0337 89.6001 38.2295H92.1869ZM90.529 34.9439C90.5527 34.8395 90.6409 34.333 90.6645 34.0129C90.7935 32.2736 89.3831 32.3383 89.1288 32.3383C88.4743 32.3383 87.3149 32.6366 86.6435 34.9439H90.529Z" fill="#0065A8"/>
<path d="M83.3602 37.0649C83.2212 38.9037 83.5433 41.9912 87.266 41.9912C90.2835 41.9912 91.6972 39.9931 92.3551 38.3185L92.4872 37.9811H89.48L89.4223 38.1427C89.1715 38.8316 88.4256 39.3357 87.6729 39.3357C86.6727 39.3357 86.2014 38.713 86.293 37.4836C86.293 37.4836 86.3539 37.0873 86.3913 36.8618C86.7235 36.8618 92.8568 36.8618 92.8568 36.8618L92.9112 36.6885C93.0705 36.1927 93.3519 35.2643 93.396 34.6043C93.5281 32.8575 93.1858 29.9316 89.4732 29.9316C85.3742 29.9316 83.5636 34.1939 83.3602 37.0649ZM83.7433 37.0649C83.9197 34.7634 85.3199 30.4242 89.4326 30.4242C92.6398 30.4242 93.1485 32.6967 93.0026 34.6043C92.9756 35.0072 92.8195 35.6497 92.606 36.3643C92.3178 36.3643 86.0693 36.3643 86.0693 36.3643L85.9031 37.4836C85.7912 38.9941 86.4116 39.8257 87.6356 39.8257C88.4865 39.8257 89.2765 39.2494 89.6461 38.4726C89.7716 38.4726 91.3481 38.4726 91.8363 38.4726C91.1753 39.9227 89.9004 41.4954 87.2998 41.4954C84.0959 41.4954 83.5942 39.0846 83.7433 37.0649Z" fill="#0065A8"/>
<path d="M89.1687 32.0942C88.2839 32.0942 87.1276 32.576 86.4598 34.8761L86.3682 35.187H90.6876L90.864 34.0129C90.9046 33.4524 90.8063 33.0046 90.569 32.6804C90.1418 32.0867 89.4128 32.0867 89.1687 32.0942ZM89.1111 32.5851C89.3383 32.5834 89.9452 32.5834 90.2672 33.0312C90.43 33.2634 90.4977 33.5892 90.4673 34.0129C90.4673 34.0129 90.3995 34.4607 90.3757 34.6952C90.0774 34.6952 87.5074 34.6952 86.9853 34.6952C87.4633 33.3496 88.1516 32.5851 89.1111 32.5851Z" fill="#0065A8"/>
<path d="M94.6465 32.7384L95.1789 30.582H103.357L102.831 32.7384H100.01L97.9251 41.3441H95.3721L97.464 32.7384H94.6465Z" fill="#0065A8"/>
<path d="M103.375 30.3315H95.0348L94.3838 32.9895C94.3838 32.9895 96.8047 32.9895 97.2013 32.9895C97.0691 33.5442 95.1094 41.5903 95.1094 41.5903H98.0658C98.0658 41.5903 100.063 33.3627 100.151 32.9895C100.429 32.9895 102.962 32.9895 102.962 32.9895L103.616 30.3315H103.375ZM103.094 30.8216C102.996 31.2228 102.751 32.2202 102.687 32.4954C102.406 32.4954 99.8729 32.4954 99.8729 32.4954C99.8729 32.4954 97.8691 40.7206 97.7811 41.0928C97.5301 41.0928 96.0011 41.0928 95.6316 41.0928C95.7671 40.5389 97.7268 32.4954 97.7268 32.4954C97.7268 32.4954 95.3129 32.4954 94.9127 32.4954C95.0042 32.0966 95.245 31.096 95.3161 30.8216C95.6112 30.8216 102.646 30.8216 103.094 30.8216Z" fill="#0065A8"/>
<path d="M13.2854 60.6945H10.5391L12.5124 51.6934H19.5611L19.1407 53.5008H14.862L13.2854 60.6945Z" fill="#0065A8"/>
<path d="M20.1737 54.597C21.0214 51.3737 24.2457 51.3496 25.3679 51.3496C28.4261 51.3496 29.0602 52.6288 29.0602 53.7299C29.0602 54.069 28.9788 54.3831 28.9076 54.7213L27.982 58.8334C27.9312 59.0448 27.8159 59.5929 27.8159 59.8781C27.8159 60.3564 27.9956 60.4468 28.1244 60.4625V60.6946H25.2424L25.1915 59.8083H25.1374C23.9405 60.9393 22.5946 61.0296 21.9673 61.0296C20.9908 61.0296 19.082 60.8183 19.082 58.7647C19.082 55.9964 22.0758 55.6599 23.71 55.4658C25.2086 55.2685 26.2088 55.3954 26.2088 54.0117C26.2088 53.6046 25.9274 53.1669 25.0459 53.1669C24.5034 53.1669 23.3609 53.2689 23.0522 54.597H20.1737ZM25.8357 56.4044C25.6425 56.5112 25.3882 56.6182 23.9033 56.8852C23.1607 57.0046 21.9504 57.3113 21.9504 58.4604C21.9504 59.1161 22.7811 59.2231 23.1913 59.2231C25.1747 59.2231 25.6425 57.1994 25.6969 56.9713L25.8357 56.4044Z" fill="#0065A8"/>
<path d="M34.3407 51.6936L34.1169 52.6156H34.1779C35.3916 51.4598 36.714 51.3496 37.4226 51.3496C39.806 51.3496 40.8062 53.04 40.8062 54.9329C40.8062 57.3777 39.2838 60.9957 35.6223 60.9957C35.0052 60.9957 33.5472 60.8497 32.8895 59.7721L31.9707 63.9703H29.2109L31.9165 51.6936H34.3407ZM33.3778 57.0941C33.3778 58.2283 33.8694 59.1883 35.1375 59.1883C37.131 59.1883 37.9448 56.8272 37.9448 55.2553C37.9448 53.501 36.9004 53.1669 36.1715 53.1669C35.3748 53.1669 34.0117 53.6046 33.5033 56.0536C33.4354 56.3895 33.3778 56.7418 33.3778 57.0941Z" fill="#0065A8"/>
<path d="M42.7197 54.597C43.5809 51.3737 46.7951 51.3496 47.9241 51.3496C50.9822 51.3496 51.6197 52.6288 51.6197 53.7299C51.6197 54.069 51.5247 54.3831 51.4603 54.7213L50.5347 58.8334C50.4771 59.0448 50.3719 59.5929 50.3719 59.8781C50.3719 60.3564 50.5515 60.4468 50.6804 60.4625V60.6946H47.7986L47.741 59.8083H47.6866C46.4967 60.9393 45.1539 61.0296 44.52 61.0296C43.5368 61.0296 41.6348 60.8183 41.6348 58.7647C41.6348 55.9964 44.6285 55.6599 46.2627 55.4658C47.7647 55.2685 48.758 55.3954 48.758 54.0117C48.758 53.6046 48.4834 53.1669 47.5986 53.1669C47.0629 53.1669 45.9101 53.2689 45.6016 54.597H42.7197ZM48.3919 56.4044C48.1952 56.5112 47.9409 56.6182 46.4559 56.8852C45.7169 57.0046 44.5065 57.3113 44.5065 58.4604C44.5065 59.1161 45.3338 59.2231 45.7473 59.2231C47.7206 59.2231 48.1952 57.1994 48.2461 56.9713L48.3919 56.4044Z" fill="#0065A8"/>
<path d="M55.2204 60.6945H52.4707L54.4474 51.6934H57.2038L56.4579 55.0776H59.7703L60.5128 51.6934H63.2692L61.296 60.6945H58.5396L59.3737 56.8851H56.0578L55.2204 60.6945Z" fill="#0065A8"/>
<path d="M64.208 53.5008L64.6149 51.6934H73.447L73.0504 53.5008H70.0057L68.4292 60.6945H65.6761L67.2526 53.5008H64.208Z" fill="#0065A8"/>
<path d="M80.9165 51.6934H84.178L82.2014 60.6945H79.4382L80.7333 54.8455L76.0546 60.6945H72.793L74.7729 51.6934H77.5226L76.2377 57.5359L80.9165 51.6934Z" fill="#0065A8"/>
<path d="M87.4331 60.6945H84.1377L87.1688 57.3775C86.2364 57.2904 85.2226 56.6893 85.2226 55.1108C85.2226 53.4261 86.4194 51.6934 89.3149 51.6934H94.7396L92.7561 60.6945H90.0031L90.6947 57.5765H89.8235L87.4331 60.6945ZM90.1354 53.5008C88.3384 53.5008 88.1079 54.3829 88.1079 54.7717C88.1079 55.7152 89.0673 55.765 89.5489 55.765H91.0914L91.5797 53.5008H90.1354Z" fill="#0065A8"/>
<path d="M29.2715 0.978027H39.3579L30.0172 44.0598H18.4321L25.4572 11.7035H17.0049L18.2796 5.54777C22.0972 5.42178 27.1828 4.20557 29.2715 0.978027Z" fill="#0065A8"/>
<path d="M39.3564 0.731445H29.1207L29.053 0.845035C27.0525 3.93913 22.167 5.17606 18.2748 5.29865L18.0679 5.30781L16.6982 11.9527C16.6982 11.9527 24.5639 11.9527 25.1437 11.9527C25.0149 12.5363 18.1187 44.3067 18.1187 44.3067H30.2259L39.6751 0.731445H39.3564ZM39.0479 1.22554C38.9224 1.8142 29.8937 43.4228 29.8124 43.8124C29.4258 43.8124 19.3257 43.8124 18.7426 43.8124C18.8714 43.2205 25.7709 11.4553 25.7709 11.4553C25.7709 11.4553 17.8984 11.4553 17.3152 11.4553C17.4271 10.933 18.4206 6.11449 18.4918 5.78455C22.4349 5.61615 27.2695 4.34035 29.3953 1.22554C29.6157 1.22554 38.4681 1.22554 39.0479 1.22554Z" fill="#0065A8"/>
<path d="M61.9688 0.24707C71.5401 0.24707 75.8017 4.51101 74.3777 11.2155L69.5228 33.8205C68.0309 40.5267 61.9688 44.7888 52.3299 44.7888C42.7587 44.7888 38.4189 40.5267 39.9208 33.8205L44.7759 11.2155C46.1999 4.51101 52.3299 0.24707 61.9688 0.24707ZM53.9708 37.2926C55.4762 37.2926 56.8899 36.8059 57.4121 34.4929L62.5654 10.4819C63.0911 8.1671 61.8197 7.68049 60.3211 7.68049C58.7581 7.68049 57.4121 8.1671 56.8899 10.4819L51.7298 34.4929C51.2076 36.8059 52.4044 37.2926 53.9708 37.2926Z" fill="#0065A8"/>
<path d="M44.5277 11.1632L39.6692 33.7726C39.0047 36.743 39.4828 39.3106 41.0458 41.209C43.1105 43.7128 47.0095 45.036 52.3291 45.036C61.8257 45.036 68.1861 40.9712 69.7694 33.8744L74.6348 11.2661C75.2687 8.2267 74.7907 5.70799 73.187 3.78633C71.1257 1.31486 67.247 0 61.9681 0C52.5291 1.0798e-06 46.0059 4.17108 44.5277 11.1632ZM41.439 40.8973C39.9574 39.0992 39.5269 36.7347 40.1608 33.8744L45.026 11.2661C46.4568 4.52085 52.7867 0.49579 61.9681 0.49579C67.0944 0.49579 70.834 1.73934 72.7937 4.10299C74.2923 5.89887 74.7433 8.27645 74.1329 11.1632L69.2778 33.7726C67.742 40.6172 61.5714 44.5419 52.3291 44.5419C47.1655 44.5419 43.4021 43.2817 41.439 40.8973Z" fill="#0065A8"/>
<path d="M56.6383 10.4304C56.6383 10.4354 51.4814 34.4415 51.4814 34.4415C51.2407 35.5094 51.3321 36.2771 51.7561 36.7977C52.3053 37.4652 53.285 37.5431 53.97 37.5431C55.2652 37.5431 57.0519 37.2296 57.6553 34.5427L62.8189 10.5325C63.0529 9.48691 62.9579 8.71671 62.524 8.19277C62.107 7.67966 61.3882 7.43262 60.3203 7.43262C58.9234 7.43262 57.2416 7.77254 56.6383 10.4304ZM52.1527 36.4885C51.8272 36.098 51.7696 35.4455 51.9763 34.5427L57.1399 10.5325C57.6485 8.24422 58.9742 7.92926 60.3203 7.92926C61.2221 7.92926 61.8121 8.11823 62.1306 8.50278C62.4561 8.89669 62.5207 9.54583 62.324 10.4304C62.3205 10.4354 57.1604 34.4415 57.1604 34.4415C56.6383 36.7505 55.1837 37.0488 53.97 37.0488C53.0477 37.0488 52.4646 36.8699 52.1527 36.4885Z" fill="#0065A8"/>
</svg>
