<svg width="110" height="70" viewBox="0 0 110 70" fill="none" xmlns="http://www.w3.org/2000/svg">
<path d="M106.894 19.0845C104.969 17.0778 102.272 15.8083 99.2619 15.8096H19.7638C12.4676 15.81 6.22837 21.2022 4.97431 28.5917L0.163791 56.9446C0.0532306 57.5948 0 58.2418 0 58.879C0.000224564 61.8914 1.19078 64.6726 3.1374 66.6964C5.08172 68.7216 7.80485 70.0014 10.8408 70.0002H88.8835C96.7502 69.9998 103.494 64.2258 104.916 56.2716L109.821 28.8406C109.941 28.1631 110 27.4892 110 26.8255C110 23.8444 108.822 21.0898 106.894 19.0845ZM107.377 28.3794L102.473 55.8101C101.268 62.5519 95.5512 67.447 88.8835 67.4466H10.8408C8.48814 67.4454 6.41187 66.4665 4.90395 64.9013C3.39828 63.3345 2.4837 61.1936 2.48392 58.879C2.48392 58.3879 2.52486 57.8886 2.61071 57.3837L7.42128 29.0305C8.46714 22.8638 13.6754 18.3627 19.7638 18.3631H99.2619C101.588 18.3644 103.638 19.3323 105.127 20.879C106.614 22.4271 107.516 24.5421 107.516 26.8255C107.516 27.3349 107.471 27.8539 107.377 28.3794Z" fill="#2C1A0E"/>
<path d="M60.0868 40.4234C60.2225 40.4408 60.3411 40.466 60.4699 40.466C61.4769 40.466 62.1516 39.7506 62.9993 36.2383L64.1724 31.4058H71.4448L68.8307 42.7169H66.2777L68.3764 33.6721H66.0812L65.4776 36.213C64.0707 42.2236 62.6127 42.8937 60.7006 42.8937C60.3173 42.8937 59.9174 42.8517 59.541 42.7586L60.0868 40.4234Z" fill="#0065A8"/>
<path d="M71.466 31.1436H64.0308L62.8136 36.1792C61.9932 39.5817 61.3829 40.2031 60.4913 40.2031L59.9997 40.1542L59.9013 40.3685L59.2842 42.993L60.6845 43.1474C62.8714 43.1474 64.3122 42.0538 65.6685 36.2698C65.6685 36.2698 66.1057 34.433 66.2177 33.9371C66.4618 33.9371 67.7604 33.9371 68.1163 33.9371C67.9807 34.5201 66.021 42.9766 66.021 42.9766H68.9707L71.7033 31.1436H71.466ZM71.1881 31.6586C71.0524 32.2468 68.7808 42.0729 68.6928 42.4538C68.435 42.4538 66.9195 42.4538 66.5432 42.4538C66.6755 41.8716 68.6317 33.4178 68.6317 33.4178H65.9396L65.2921 36.1556C63.8817 42.1549 62.4543 42.6297 60.7219 42.6297C60.7219 42.6297 60.0709 42.5608 59.7928 42.5278C59.8912 42.1288 60.1488 41.016 60.2235 40.7022C60.3353 40.7119 60.4573 40.7258 60.4573 40.7258C61.6948 40.7258 62.3796 39.6044 63.1867 36.2959C63.1867 36.2959 64.2207 32.0316 64.3122 31.6586C64.6004 31.6586 70.7474 31.6586 71.1881 31.6586Z" fill="#0065A8"/>
<path d="M80.226 39.4432C79.6191 41.0456 78.3002 43.1395 75.32 43.1395C71.76 43.1395 71.4583 40.0819 71.5906 38.2215C71.7702 35.6354 73.2994 30.9771 77.4898 30.9771C80.9651 30.9771 81.3753 33.6931 81.243 35.6354C81.1989 36.2384 80.9719 37.1062 80.7787 37.7476H74.269C74.1977 38.0665 74.1606 38.3522 74.1401 38.6616C74.0113 40.4854 74.9233 40.866 75.693 40.866C76.5169 40.866 77.344 40.2884 77.6391 39.4432H80.226ZM78.568 35.99C78.5918 35.8802 78.68 35.3479 78.7036 35.0115C78.8326 33.1834 77.4221 33.2514 77.1678 33.2514C76.5134 33.2514 75.354 33.565 74.6825 35.99H78.568Z" fill="#0065A8"/>
<path d="M71.4012 38.2218C71.2622 40.1544 71.5843 43.3994 75.307 43.3994C78.3245 43.3994 79.7382 41.2994 80.3961 39.5393L80.5282 39.1847H77.521L77.4633 39.3546C77.2125 40.0786 76.4666 40.6084 75.7139 40.6084C74.7137 40.6084 74.2424 39.954 74.334 38.6618C74.334 38.6618 74.3949 38.2453 74.4323 38.0083C74.7645 38.0083 80.8978 38.0083 80.8978 38.0083L80.9521 37.8261C81.1115 37.3051 81.3929 36.3293 81.437 35.6356C81.5691 33.7997 81.2268 30.7246 77.5142 30.7246C73.4152 30.7246 71.6047 35.2043 71.4012 38.2218ZM71.7843 38.2218C71.9607 35.8028 73.3609 31.2423 77.4736 31.2423C80.6808 31.2423 81.1894 33.6307 81.0436 35.6356C81.0165 36.0591 80.8605 36.7344 80.647 37.4855C80.3588 37.4855 74.1103 37.4855 74.1103 37.4855L73.9441 38.6618C73.8322 40.2494 74.4526 41.1234 75.6766 41.1234C76.5275 41.1234 77.3175 40.5178 77.6871 39.7013C77.8126 39.7013 79.3891 39.7013 79.8773 39.7013C79.2162 41.2253 77.9414 42.8783 75.3408 42.8783C72.1369 42.8783 71.6352 40.3445 71.7843 38.2218Z" fill="#0065A8"/>
<path d="M77.2087 32.9956C76.3239 32.9956 75.1677 33.5019 74.4999 35.9191L74.4082 36.2458H78.7276L78.904 35.012C78.9446 34.4229 78.8464 33.9523 78.6091 33.6117C78.1819 32.9878 77.4528 32.9878 77.2087 32.9956ZM77.1511 33.5116C77.3783 33.5098 77.9852 33.5098 78.3072 33.9803C78.47 34.2243 78.5377 34.5667 78.5074 35.012C78.5074 35.012 78.4395 35.4826 78.4157 35.729C78.1175 35.729 75.5475 35.729 75.0253 35.729C75.5034 34.3149 76.1917 33.5116 77.1511 33.5116Z" fill="#0065A8"/>
<path d="M82.6875 33.6721L83.2199 31.4058H91.3976L90.8721 33.6721H88.0513L85.9661 42.7169H83.4131L85.505 33.6721H82.6875Z" fill="#0065A8"/>
<path d="M91.4162 31.1436H83.0758L82.4248 33.9371C82.4248 33.9371 84.8457 33.9371 85.2423 33.9371C85.1101 34.5201 83.1504 42.9766 83.1504 42.9766H86.1068C86.1068 42.9766 88.1038 34.3293 88.192 33.9371C88.4699 33.9371 91.0026 33.9371 91.0026 33.9371L91.657 31.1436H91.4162ZM91.1349 31.6586C91.0366 32.0803 90.7924 33.1285 90.728 33.4178C90.4466 33.4178 87.9139 33.4178 87.9139 33.4178C87.9139 33.4178 85.9101 42.0626 85.8221 42.4538C85.5711 42.4538 84.0421 42.4538 83.6726 42.4538C83.8081 41.8716 85.7678 33.4178 85.7678 33.4178C85.7678 33.4178 83.3539 33.4178 82.9537 33.4178C83.0452 32.9986 83.286 31.947 83.3572 31.6586C83.6523 31.6586 90.6873 31.6586 91.1349 31.6586Z" fill="#0065A8"/>
<path d="M13.2845 60.2191H10.5381L12.5115 50.7588H19.5601L19.1397 52.6584H14.861L13.2845 60.2191Z" fill="#0065A8"/>
<path d="M20.1737 53.8106C21.0214 50.4228 24.2456 50.3975 25.3679 50.3975C28.426 50.3975 29.0602 51.7419 29.0602 52.8992C29.0602 53.2556 28.9788 53.5857 28.9076 53.9412L27.982 58.2631C27.9311 58.4853 27.8159 59.0614 27.8159 59.3612C27.8159 59.8639 27.9955 59.9588 28.1243 59.9754V60.2193H25.2424L25.1915 59.2878H25.1374C23.9405 60.4765 22.5946 60.5714 21.9673 60.5714C20.9908 60.5714 19.082 60.3493 19.082 58.1909C19.082 55.2814 22.0758 54.9277 23.7099 54.7237C25.2085 54.5163 26.2088 54.6496 26.2088 53.1954C26.2088 52.7675 25.9274 52.3074 25.0459 52.3074C24.5034 52.3074 23.3609 52.4147 23.0522 53.8106H20.1737ZM25.8357 55.7102C25.6425 55.8224 25.3882 55.9349 23.9033 56.2156C23.1607 56.341 21.9504 56.6633 21.9504 57.8711C21.9504 58.5603 22.7811 58.6727 23.1913 58.6727C25.1747 58.6727 25.6425 56.5457 25.6969 56.306L25.8357 55.7102Z" fill="#0065A8"/>
<path d="M34.3397 50.759L34.116 51.728H34.1769C35.3906 50.5133 36.713 50.3975 37.4216 50.3975C39.805 50.3975 40.8053 52.1741 40.8053 54.1635C40.8053 56.7331 39.2829 60.5357 35.6213 60.5357C35.0042 60.5357 33.5462 60.3823 32.8885 59.2496L31.9697 63.662H29.21L31.9155 50.759H34.3397ZM33.3768 56.4351C33.3768 57.6271 33.8684 58.6361 35.1365 58.6361C37.13 58.6361 37.9438 56.1545 37.9438 54.5024C37.9438 52.6586 36.8995 52.3074 36.1706 52.3074C35.3738 52.3074 34.0108 52.7675 33.5023 55.3415C33.4344 55.6945 33.3768 56.0648 33.3768 56.4351Z" fill="#0065A8"/>
<path d="M42.7207 53.8106C43.5819 50.4228 46.796 50.3975 47.9251 50.3975C50.9832 50.3975 51.6206 51.7419 51.6206 52.8992C51.6206 53.2556 51.5257 53.5857 51.4613 53.9412L50.5357 58.2631C50.4781 58.4853 50.3729 59.0614 50.3729 59.3612C50.3729 59.8639 50.5525 59.9588 50.6813 59.9754V60.2193H47.7996L47.7419 59.2878H47.6876C46.4976 60.4765 45.1549 60.5714 44.521 60.5714C43.5378 60.5714 41.6357 60.3493 41.6357 58.1909C41.6357 55.2814 44.6295 54.9277 46.2636 54.7237C47.7657 54.5163 48.759 54.6496 48.759 53.1954C48.759 52.7675 48.4844 52.3074 47.5996 52.3074C47.0639 52.3074 45.9111 52.4147 45.6026 53.8106H42.7207ZM48.3929 55.7102C48.1962 55.8224 47.9419 55.9349 46.4568 56.2156C45.7179 56.341 44.5074 56.6633 44.5074 57.8711C44.5074 58.5603 45.3348 58.6727 45.7483 58.6727C47.7216 58.6727 48.1962 56.5457 48.2471 56.306L48.3929 55.7102Z" fill="#0065A8"/>
<path d="M55.2213 60.2191H52.4717L54.4483 50.7588H57.2048L56.4589 54.3157H59.7713L60.5138 50.7588H63.2702L61.297 60.2191H58.5406L59.3747 56.2153H56.0587L55.2213 60.2191Z" fill="#0065A8"/>
<path d="M64.21 52.6584L64.6169 50.7588H73.4489L73.0523 52.6584H70.0077L68.4312 60.2191H65.678L67.2546 52.6584H64.21Z" fill="#0065A8"/>
<path d="M80.9174 50.7588H84.179L82.2023 60.2191H79.4391L80.7343 54.0717L76.0555 60.2191H72.7939L74.7739 50.7588H77.5236L76.2387 56.8994L80.9174 50.7588Z" fill="#0065A8"/>
<path d="M87.4321 60.2191H84.1367L87.1678 56.7329C86.2354 56.6413 85.2217 56.0096 85.2217 54.3505C85.2217 52.5799 86.4184 50.7588 89.3139 50.7588H94.7386L92.7551 60.2191H90.0022L90.6937 56.942H89.8225L87.4321 60.2191ZM90.1344 52.6584C88.3374 52.6584 88.1069 53.5855 88.1069 53.9941C88.1069 54.9858 89.0663 55.0381 89.5479 55.0381H91.0904L91.5787 52.6584H90.1344Z" fill="#0065A8"/>
<path d="M24.3125 29.7894L33.054 29.0635C33.0331 29.4506 33.0226 29.741 33.0226 29.9345C33.0226 31.9089 33.4926 33.3897 34.4325 34.3768C35.3934 35.364 36.6362 35.8576 38.161 35.8576C40.2915 35.8576 42.2236 34.9188 43.9573 33.0412C45.7118 31.1443 46.5891 28.5312 46.5891 25.2019C46.5891 23.2276 46.0983 21.7371 45.1165 20.7306C44.1348 19.7241 42.8293 19.2208 41.2001 19.2208C40.0304 19.2208 38.892 19.4725 37.785 19.9757C36.6988 20.479 35.644 21.2436 34.6205 22.2694L27.2263 21.7468L34.2132 0H57.3044L55.6125 7.60703H40.3542L38.255 14.1688C39.1322 13.8011 40.0095 13.5301 40.8868 13.3559C41.7641 13.1623 42.6309 13.0655 43.4873 13.0655C46.9964 13.0655 49.8789 14.1591 52.1348 16.3464C54.3906 18.5337 55.5186 21.4662 55.5186 25.1439C55.5186 28.086 54.7248 30.9895 53.1374 33.8542C51.5708 36.6996 49.388 38.8868 46.5891 40.416C43.7902 41.9451 40.8555 42.7097 37.785 42.7097C33.879 42.7097 30.6623 41.5387 28.1349 39.1965C25.6284 36.8544 24.3543 33.7187 24.3125 29.7894Z" fill="#0065A8"/>
</svg>
