<svg width="23" height="23" viewBox="0 0 23 23" fill="none" xmlns="http://www.w3.org/2000/svg">
<path d="M21.1209 22.5C9.39076 22.5165 0.487638 13.5075 0.500013 1.87912C0.500013 1.11875 1.11601 0.5 1.87501 0.5H5.50501C6.18564 0.5 6.76451 1.0005 6.86489 1.67425C7.10428 3.28995 7.57428 4.86294 8.26051 6.34513L8.40214 6.65037C8.49727 6.85579 8.51774 7.08796 8.46 7.30685C8.40227 7.52573 8.26996 7.71761 8.08589 7.84938C6.96114 8.65238 6.53214 10.268 7.40801 11.5275C8.50664 13.1088 9.89126 14.4948 11.4725 15.5934C12.7334 16.4679 14.349 16.0389 15.1506 14.9155C15.2823 14.7309 15.4743 14.5981 15.6935 14.5401C15.9127 14.4821 16.1453 14.5025 16.351 14.5979L16.6549 14.7381C18.1371 15.4256 19.7101 15.8959 21.3258 16.1351C21.9995 16.2355 22.5 16.8144 22.5 17.4964V21.125C22.5 21.3057 22.4644 21.4846 22.3952 21.6515C22.326 21.8184 22.2246 21.9701 22.0968 22.0978C21.969 22.2255 21.8172 22.3267 21.6502 22.3957C21.4833 22.4648 21.3043 22.5002 21.1236 22.5H21.1209Z" fill="#0066B3"/>
</svg>
