<svg width="50" height="50" viewBox="0 0 50 50" fill="none" xmlns="http://www.w3.org/2000/svg">
<path d="M22.9282 29.2557C24 29.4829 25.0718 29.71 26.1437 29.937C25.5681 31.9195 24.9926 33.9017 24.4171 35.8843C24.2098 36.5982 25.322 36.903 25.5288 36.1908C26.1612 34.0124 26.7935 31.8344 27.4259 29.656C27.5089 29.37 27.3256 29.0109 27.0233 28.9467C25.9649 28.7227 24.9066 28.4983 23.8482 28.274C24.6017 26.205 25.3552 24.1362 26.1084 22.0671C26.3628 21.369 25.249 21.0679 24.9967 21.7606C24.1731 24.0228 23.3494 26.2846 22.5256 28.5468C22.4234 28.8274 22.6415 29.1952 22.9282 29.2557Z" fill="#005AAE"/>
<path d="M41.8684 0H8.13142C3.64031 0.000390966 0.000390966 3.64054 0 8.13163V41.8684C0.000390923 46.3594 3.64031 49.9996 8.13142 50H34.6185H35.7243H41.8684C46.3595 49.9996 49.9992 46.3594 49.9996 41.8684V8.13163C49.9992 3.64057 46.3595 0.000390966 41.8684 0ZM48.8467 41.8684C48.8464 43.7973 48.0665 45.5383 46.8028 46.803C45.5382 48.0669 43.7972 48.8468 41.8684 48.8471H34.6185C32.1419 48.8468 29.905 47.8448 28.2813 46.222C26.7818 44.7216 25.8233 42.6947 25.6845 40.4418C31.0366 40.1285 35.2798 35.6914 35.2802 30.2609V23.808H36.3106C37.0912 23.8076 37.7233 23.1756 37.7236 22.395V18.9565C37.7232 18.1761 37.0916 17.5436 36.3106 17.5431H32.7172C32.7172 15.0318 32.7172 12.5206 32.7172 10.0094C32.7172 9.26753 31.5642 9.26628 31.5642 10.0094C31.5642 12.5206 31.5642 15.0318 31.5642 17.5431H18.3829C18.3829 15.0318 18.3829 12.5206 18.3829 10.0094C18.3829 9.26753 17.2299 9.26628 17.2299 10.0094C17.2299 12.5206 17.2299 15.0318 17.2299 17.5431H13.6892C12.9082 17.5436 12.2766 18.176 12.2762 18.9565V22.395C12.2765 23.1756 12.9086 23.8076 13.6892 23.808H14.8795L14.8795 30.2609C14.8799 35.7064 19.1465 40.154 24.5196 40.4452C24.7196 44.1011 26.8609 47.238 29.93 48.8471H8.13142C6.20255 48.8468 4.46156 48.0669 3.19688 46.803C1.93312 45.5383 1.15321 43.7973 1.15292 41.8684V8.13163C1.15321 6.20273 1.93312 4.46169 3.19688 3.19696C4.46156 1.93315 6.20252 1.15321 8.13142 1.15292H41.8684C43.7972 1.15321 45.5382 1.93315 46.8028 3.19696C48.0665 4.46169 48.8464 6.20273 48.8467 8.13163V41.8684ZM13.6892 22.6551C13.5456 22.6548 13.4294 22.5385 13.4291 22.395V18.9565C13.4294 18.8128 13.5461 18.6963 13.6892 18.696H36.3106C36.4537 18.6963 36.5704 18.8128 36.5707 18.9565V22.395C36.5704 22.5385 36.4541 22.6548 36.3106 22.6551H34.1273V30.2609C34.127 32.761 33.1155 35.0192 31.4774 36.6583C29.8383 38.2965 27.5801 39.308 25.0799 39.3083C22.5796 39.308 20.3214 38.2965 18.6823 36.6583C17.0442 35.0192 16.0327 32.761 16.0324 30.2609V22.6551H13.6892Z" fill="#005AAE"/>
</svg>
