<svg width="50" height="50" viewBox="0 0 50 50" fill="none" xmlns="http://www.w3.org/2000/svg">
<path d="M42.1903 3.8147e-06H7.8144C3.50603 3.8147e-06 0 3.5082 0 7.8152V42.1895C0 46.4988 3.50603 50 7.8144 50H42.1903C46.4975 50 50 46.4988 50 42.1895V7.8152C50 3.5082 46.4975 3.8147e-06 42.1903 3.8147e-06ZM42.1903 1.16784C45.8528 1.16784 48.8321 4.15052 48.8321 7.8152V42.1895C48.8321 45.8518 45.8528 48.8322 42.1903 48.8322H7.8144C4.14954 48.8322 1.1679 45.8518 1.1679 42.1895V7.8152C1.1679 4.15052 4.14954 1.16784 7.8144 1.16784H42.1903Z" fill="#0A55A1"/>
<path fill-rule="evenodd" clip-rule="evenodd" d="M35.4867 7.03665L24.5598 19.7289L15.7994 7.03665H11.8005L10.4131 22.9756H14.802L15.5577 14.0555L21.8141 22.9756H27.3569L35.1702 14.0555L34.4029 22.9756H38.619L40.0099 7.03665H35.4867Z" fill="#0A55A1"/>
<path d="M18.3231 34.4068C18.6665 33.9257 18.7985 33.0813 18.7985 32.383C18.7985 31.6834 18.6665 30.8391 18.3231 30.3567C18.086 30.0438 17.6364 29.6584 16.7908 29.6584C15.9465 29.6584 15.4968 30.0438 15.2597 30.3567C14.9164 30.8391 14.7844 31.6834 14.7844 32.383C14.7844 33.0813 14.9164 33.9257 15.2597 34.4068C15.4968 34.721 15.9465 35.1075 16.7908 35.1075C17.6364 35.1075 18.086 34.721 18.3231 34.4068ZM13.1996 40.4598C14.2296 41.206 15.3648 41.3275 15.9733 41.3275C17.0828 41.3275 17.7684 40.8451 18.1386 40.4352C18.7728 39.7112 18.9573 38.4581 18.9316 37.2283C18.0066 37.8309 17.0828 37.9991 16.1578 37.9991C14.9421 37.9991 13.411 37.7352 12.1695 36.4809C11.2188 35.5163 10.6641 34.0693 10.6641 32.5266C10.6641 31.2969 11.1125 29.6339 12.1438 28.5478C13.1727 27.464 14.8907 26.7645 16.7126 26.7645C18.9047 26.7645 20.6998 27.8015 21.6516 29.0546C22.7868 30.5494 23.0239 32.7917 23.0239 35.1554C23.0239 37.4456 22.7868 40.1701 21.1226 42.1216C19.6966 43.7858 17.9798 44.2202 15.8413 44.2202C14.2296 44.2202 12.6985 43.9306 11.3508 42.8947L13.1996 40.4598Z" fill="#0A55A1"/>
<path d="M34.5901 34.287C34.5901 32.6707 34.5621 31.1514 33.824 30.3327C33.2961 29.7535 32.6094 29.6577 32.1609 29.6577C31.7113 29.6577 31.0245 29.7535 30.4955 30.3327C29.7562 31.1514 29.7305 32.6707 29.7305 34.287V36.6975C29.7305 38.3126 29.7562 39.8319 30.4955 40.6518C31.0245 41.2299 31.7113 41.3268 32.1609 41.3268C32.6094 41.3268 33.2961 41.2299 33.824 40.6518C34.5621 39.8319 34.5901 38.3126 34.5901 36.6975V34.287ZM36.7823 28.5716C38.5516 30.4051 38.7619 33.2009 38.7619 35.4922C38.7619 37.7824 38.5516 40.5794 36.7823 42.4117C35.9893 43.2561 34.4839 44.2207 32.1609 44.2207C29.8368 44.2207 28.3314 43.2561 27.5384 42.4117C25.769 40.5794 25.5576 37.7824 25.5576 35.4922C25.5576 33.2009 25.769 30.4051 27.5384 28.5716C28.3314 27.7284 29.8368 26.7649 32.1609 26.7649C34.4839 26.7649 35.9893 27.7284 36.7823 28.5716Z" fill="#0A55A1"/>
</svg>
