<svg width="50" height="50" viewBox="0 0 50 50" fill="none" xmlns="http://www.w3.org/2000/svg">
<path d="M42.1895 0H7.81045C3.50402 0 0 3.51062 0 7.81538V42.1893C0 46.4976 3.50402 50 7.81045 50H42.1895C46.4972 50 50 46.4976 50 42.1893V7.81538C50 3.51062 46.4972 0 42.1895 0ZM42.1895 1.16787C45.8524 1.16787 48.832 4.15061 48.832 7.81538V42.1893C48.832 45.8517 45.8524 48.8321 42.1895 48.8321H7.81045C4.14759 48.8321 1.16801 45.8517 1.16801 42.1893V7.81538C1.16801 4.15061 4.14759 1.16787 7.81045 1.16787H42.1895Z" fill="#0A55A1"/>
<path d="M22.3411 32.2578H27.6929V42.6787H22.3411V32.2578ZM22.3411 23.0654H27.6929V31.3702H22.3411V23.0654ZM22.3154 7.32131H27.6626V22.2374H22.3154V7.32131Z" stroke="#0A55A1" stroke-width="2" stroke-miterlimit="3.864"/>
</svg>
