<svg width="50" height="50" viewBox="0 0 50 50" fill="none" xmlns="http://www.w3.org/2000/svg">
<path d="M33.5066 7.26172C31.1573 7.25938 28.9781 8.01289 27.0916 9.47466C26.3292 10.0645 25.6299 10.7621 24.9935 11.5494C24.3573 10.7622 23.658 10.0644 22.8954 9.47468C21.0092 8.01289 18.83 7.25938 16.4808 7.26172C13.3472 7.2599 10.4429 8.52304 8.33997 10.8066C6.26002 13.0632 5.12661 16.1318 5.12695 19.4328C5.12641 21.1359 5.44632 22.7787 6.1038 24.3922C6.76095 26.0064 7.75195 27.5904 9.08593 29.2002C11.4727 32.0776 14.8478 34.9481 18.7344 38.2616C20.0617 39.3927 21.5642 40.6733 23.1228 42.0359C23.6399 42.4893 24.305 42.7389 24.9935 42.7388C25.682 42.7389 26.3467 42.4893 26.8643 42.0364C28.4228 40.6734 29.9257 39.3925 31.2537 38.2608C35.1396 34.9477 38.5146 32.0777 40.9018 29.1998C42.2358 27.5902 43.2267 26.0062 43.8838 24.392C44.5411 22.7786 44.8609 21.1356 44.8604 19.4324C44.8607 16.1317 43.7273 13.0632 41.647 10.8066C39.5441 8.52307 36.6402 7.25987 33.5066 7.26172ZM43.7075 19.4324C43.7069 20.9924 43.419 22.4744 42.8159 23.9574C42.2126 25.4398 41.2905 26.924 40.0141 28.4641C37.73 31.2224 34.3922 34.0728 30.5059 37.3833C29.1777 38.5151 27.6707 39.7995 26.1052 41.1686C25.7978 41.4376 25.4033 41.5859 24.9935 41.5859C24.5836 41.5859 24.1894 41.4377 23.8823 41.1684C22.3162 39.7993 20.8096 38.5153 19.4822 37.3841C15.5952 34.0732 12.2573 31.2225 9.97365 28.4646C8.69726 26.9242 7.77507 25.4398 7.17161 23.9575C6.5685 22.4745 6.28043 20.9926 6.27988 19.4328C6.28022 16.3934 7.32106 13.6127 9.18766 11.588C11.0787 9.5394 13.6555 8.41647 16.4808 8.41465C18.586 8.41699 20.4859 9.07168 22.1901 10.3867C23.0494 11.0513 23.8324 11.868 24.5263 12.8276L24.9934 13.4735L25.4605 12.8277C26.1549 11.8678 26.938 11.0512 27.797 10.3866C29.5014 9.07168 31.4014 8.41699 33.5066 8.41465C36.3318 8.4165 38.9082 9.53937 40.7993 11.5881C42.6663 13.6128 43.7071 16.3934 43.7075 19.4324Z" fill="#005AAE"/>
<path d="M41.8683 0H8.13128C3.64016 0.000364878 0.000364879 3.64038 0 8.13146V41.8686C0.000364879 46.3596 3.64016 49.9996 8.13128 50H41.8683C46.3598 49.9996 49.9996 46.3596 50 41.8686V8.13146C49.9996 3.64038 46.3598 0.000364878 41.8683 0ZM48.8471 41.8686C48.8468 43.7975 48.0669 45.5384 46.8031 46.8031C45.5385 48.0669 43.7974 48.8468 41.8683 48.8471H8.13128C6.20237 48.8468 4.46144 48.0669 3.19681 46.8031C1.93309 45.5384 1.15322 43.7975 1.15293 41.8686V8.13146C1.15322 6.20255 1.93309 4.46155 3.19681 3.19687C4.46144 1.93313 6.20237 1.15321 8.13128 1.15292H41.8683C43.7974 1.15321 45.5385 1.93313 46.8031 3.1969C48.0669 4.46158 48.8468 6.20255 48.8471 8.13146V41.8686Z" fill="#005AAE"/>
<path d="M25 16.2344C20.5994 16.2348 17.0326 19.8015 17.0322 24.2023C17.0326 28.6033 20.5994 32.17 25 32.1704C29.401 32.1701 32.9679 28.6033 32.9683 24.2023C32.9679 19.8015 29.401 16.2347 25 16.2344ZM29.8192 29.0214C28.5841 30.2556 26.8839 31.0172 25 31.0175C23.1164 31.0172 21.4163 30.2556 20.1812 29.0214C18.9471 27.7863 18.1854 26.0862 18.1852 24.2023C18.1854 22.3186 18.9471 20.6185 20.1812 19.3833C21.4163 18.1492 23.1164 17.3876 25 17.3873C26.8839 17.3876 28.5841 18.1492 29.8192 19.3834C31.0534 20.6185 31.815 22.3186 31.8153 24.2023C31.815 26.0862 31.0534 27.7863 29.8192 29.0214Z" fill="#005AAE"/>
<path d="M28.5884 22.6226C28.4791 22.6226 28.3828 22.6611 28.2957 22.7138L28.2921 22.7073L25.2204 24.438V20.0288C25.2204 20.0276 25.2211 20.0266 25.2211 20.0254C25.2211 19.7066 24.9625 19.4482 24.644 19.4482C24.3249 19.4482 24.0664 19.7066 24.0664 20.0254C24.0664 20.0273 24.0674 20.0289 24.0675 20.0307V25.127C24.0662 25.3375 24.1593 25.5376 24.2975 25.6679C24.4352 25.7997 24.6177 25.8771 24.8179 25.8777C24.9422 25.8781 25.072 25.8452 25.1847 25.7816L25.1858 25.7809L28.858 23.7119L28.8538 23.7045C29.0367 23.6077 29.1655 23.4215 29.1655 23.2C29.1655 22.8812 28.9074 22.6226 28.5884 22.6226ZM24.6211 24.7757L24.6199 24.7763L24.6211 24.7757Z" fill="#005AAE"/>
</svg>
