<svg width="50" height="50" viewBox="0 0 50 50" fill="none" xmlns="http://www.w3.org/2000/svg">
<path d="M42.1919 0H7.81405C3.50427 0 0 3.50993 0 7.81586V42.1912C0 46.4971 3.50427 50 7.81405 50H42.1919C46.4957 50 50 46.4971 50 42.1912V7.81586C50 3.50993 46.4957 0 42.1919 0ZM42.1919 1.181C45.8461 1.181 48.8189 4.15712 48.8189 7.81586V42.1912C48.8189 45.8452 45.8461 48.819 42.1919 48.819H7.81405C4.15623 48.819 1.18108 45.8452 1.18108 42.1912V7.81586C1.18108 4.15712 4.15623 1.181 7.81405 1.181H42.1919Z" fill="#0A55A1"/>
<path d="M19.9131 14.79C20.3796 9.0337 28.7015 8.83764 28.8799 14.79C28.7925 20.8062 20.278 20.9208 19.9131 14.79ZM21.4768 14.79L21.641 15.449L21.8052 15.9415L21.9705 16.5167L22.3816 16.8462L22.8752 17.3387H23.0382L23.3689 17.5052L23.8603 17.667H25.0945L25.5906 17.5052L26.1646 17.3387L26.4941 16.8462C27.1201 16.3856 27.4165 15.5494 27.3161 14.79V14.2975L27.152 13.7224L26.4941 12.7339C26.0264 12.3512 25.0709 12.0028 24.4366 11.828L23.8603 11.9945L23.3689 12.2414L22.8752 12.4032L22.3816 12.7339L21.9705 13.2263L21.8052 13.3917V13.7224L21.641 14.2975L21.4768 14.79Z" fill="#0A55A1"/>
<path d="M21.6405 34.6965H17.5279L17.0343 34.5311L16.5406 34.2028L16.1295 33.8745L15.8 33.4624L15.6359 33.134L15.4717 32.6404V31.5716L15.6359 31.2421L15.8 30.7485L16.1295 30.4202L16.5406 30.0907L17.0343 29.9265L17.5279 29.6797H21.1468L21.8047 29.349L22.2169 29.1849L22.5452 28.8566L24.6026 25.3999L25.9172 26.3057L23.6979 29.6797L23.2019 30.4202L22.5452 30.7485L21.8047 31.0792L21.1468 31.2421H17.5279L17.3638 31.4063L17.1996 31.8173L17.0343 32.1468L17.3638 32.8046L18.0216 33.134H22.381C25.2074 32.2648 26.3695 29.2451 27.8093 26.9647L29.2065 27.8705C27.5164 30.5087 25.44 34.8453 21.6405 34.6965Z" fill="#0A55A1"/>
<path d="M31.0986 35.9307C31.2746 33.7103 30.9817 31.4688 31.0549 29.2437C31.1447 26.5876 31.486 24.013 28.6951 22.5497C25.3845 20.8136 22.1188 23.2607 21.6405 26.6337H20.0791C20.8055 23.8795 20.1157 24.9082 21.9712 22.1919C23.2302 20.3483 26.3424 20.0601 28.238 20.6672C34.049 22.5225 32.6352 29.2 32.6671 33.8981C32.6718 34.576 32.6482 35.2539 32.6624 35.9307H31.0986Z" fill="#0A55A1"/>
<path fill-rule="evenodd" clip-rule="evenodd" d="M36.7751 26.1401C37.2428 23.8566 36.1845 21.7007 34.883 19.8886L33.1562 20.6281C35.0011 21.9181 35.6188 24.6434 35.0472 26.7993L36.7751 26.1401Z" fill="#0A55A1"/>
<path fill-rule="evenodd" clip-rule="evenodd" d="M40.2285 24.2483L40.0643 22.8494L39.6521 21.6159L39.1608 20.4639L38.9966 19.8885L38.6671 19.3922L37.1045 19.8885C38.6482 22.4004 38.3647 21.9845 38.6671 24.7422L40.2285 24.2483Z" fill="#0A55A1"/>
<path fill-rule="evenodd" clip-rule="evenodd" d="M15.9658 26.1401C15.7425 23.8058 16.6024 21.696 18.0208 19.8886L19.5858 20.6281C18.0634 21.9181 17.1173 24.8773 17.6913 26.7993L15.9658 26.1401Z" fill="#0A55A1"/>
<path fill-rule="evenodd" clip-rule="evenodd" d="M12.5938 24.2483C12.6741 22.4807 13.2079 20.8278 14.2378 19.3922L15.8004 19.8885L15.3091 20.4639L15.1425 20.9566L14.6488 22.1913L14.4858 22.8494L14.2378 23.3421L14.0748 24.7422L12.5938 24.2483Z" fill="#0A55A1"/>
</svg>
