<svg width="50" height="50" viewBox="0 0 50 50" fill="none" xmlns="http://www.w3.org/2000/svg">
<path d="M42.1916 3.8147e-06H7.81421C3.50594 3.8147e-06 0 3.5082 0 7.8152V42.1895C0 46.4988 3.50594 50 7.81421 50H42.1916C46.4987 50 50 46.4988 50 42.1895V7.8152C50 3.5082 46.4987 3.8147e-06 42.1916 3.8147e-06ZM42.1916 1.16784C45.8529 1.16784 48.8321 4.15052 48.8321 7.8152V42.1895C48.8321 45.8518 45.8529 48.8322 42.1916 48.8322H7.81421C4.14944 48.8322 1.16787 45.8518 1.16787 42.1895V7.8152C1.16787 4.15052 4.14944 1.16784 7.81421 1.16784H42.1916Z" fill="#0A55A1"/>
<path d="M26.5916 34.4095L22.2413 31.8871V33.4531C18.1385 32.9789 16.514 32.5364 13.4554 29.7126L12.0645 30.7566C15.9441 34.274 17.0816 34.413 22.2413 35.2795V36.9331L26.5916 34.4095Z" fill="#0A55A1"/>
<path d="M25.2865 10.7459C21.4956 10.6408 17.7958 11.7024 14.2373 12.9205L14.4125 15.1838H15.8046L15.6282 14.051C20.8206 12.2128 27.2918 10.9328 32.3346 13.8782C35.1223 14.9292 36.2038 18.4071 31.9854 18.5765L32.3346 15.1838C30.5583 14.9117 28.0462 14.2098 26.4182 15.3567L25.9826 15.7047L25.6357 16.4019L25.4594 16.9228L24.9373 26.5799C22.2115 26.5752 19.5791 27.2 16.9339 27.8855L16.7599 25.8838H15.2825L15.6282 30.0601L17.8051 29.1036L20.0673 28.5827L22.4171 28.2347L24.7668 28.0584V28.5827L24.5905 30.2329L24.7668 30.581L24.9373 31.103L25.1137 31.451L25.6357 31.8878L26.1578 32.2347L26.9402 32.5839L27.9855 32.7567C30.939 33.2998 32.1793 33.4072 34.7708 31.8878C35.2823 27.7582 36.9722 17.6142 35.816 14.9234C33.8517 11.7959 28.699 10.5871 25.2865 10.7459ZM30.7673 16.4019L30.5945 18.5765L29.29 18.4013L27.9855 18.0533L27.4623 17.8793L27.1131 17.5324L26.9402 17.098V16.9228L27.1131 16.5736L27.4623 16.4019H27.9855L28.5916 16.2256H29.812L30.7673 16.4019ZM33.6391 30.9302H33.4663L33.2899 31.103L32.5951 31.451L31.9854 31.6274H29.6368L28.4188 31.2782L27.1131 30.9302L26.4182 30.581L26.1578 30.4093L25.9826 30.2329L26.7674 18.9245C28.2704 20.1881 32.8368 20.4708 34.508 19.3578L33.6391 30.9302Z" fill="#0A55A1"/>
<path d="M21.9813 16.5737L20.414 15.1839L16.7597 18.7483L12.9326 15.1839L11.4541 16.5737L15.1084 20.4031L11.4541 24.2326L12.9326 25.71L16.7597 21.8817L20.414 25.71L21.9813 24.2326L18.2406 20.4031L21.9813 16.5737Z" fill="#0A55A1"/>
</svg>
