<svg width="50" height="50" viewBox="0 0 50 50" fill="none" xmlns="http://www.w3.org/2000/svg">
<path d="M41.868 0H8.13122C3.6401 0.000390966 0.000364876 3.64057 0 8.13163V41.8684C0.000364876 46.3594 3.6401 49.9996 8.13122 50H41.868C46.3595 49.9996 49.9992 46.3594 49.9996 41.8684V8.13163C49.9992 3.64057 46.3595 0.000364876 41.868 0ZM48.8467 41.8684C48.8464 43.7973 48.0665 45.5383 46.8027 46.803C45.5381 48.0668 43.7971 48.8468 41.868 48.8471H8.13122C6.20234 48.8468 4.46143 48.0669 3.19678 46.803C1.93307 45.5383 1.15321 43.7973 1.15292 41.8684V8.13163C1.15321 6.20273 1.93307 4.46169 3.19678 3.19696C4.46143 1.93315 6.20232 1.15321 8.13122 1.15292H41.868C43.7971 1.15321 45.5381 1.93317 46.8027 3.19696C48.0665 4.46169 48.8464 6.20273 48.8467 8.13163V41.8684Z" fill="#005AAE"/>
<path d="M42.9103 15.8223H23.4204H7.0927H7.09062C5.56193 15.8226 4.32358 17.061 4.32324 18.5896V18.5917V32.15V32.1521C4.32358 33.6807 5.56193 34.9191 7.09062 34.9194H7.0927H23.4204H42.9103C44.4386 34.919 45.6772 33.6809 45.6776 32.1521V18.5896C45.6772 17.0608 44.4386 15.8227 42.9103 15.8223ZM5.94969 33.2931C5.65623 32.9988 5.47645 32.5983 5.47616 32.15V18.5917C5.47645 18.1437 5.65623 17.7431 5.94971 17.4487C6.24411 17.1553 6.64464 16.9755 7.0927 16.9752H22.2675L22.2675 33.7665H7.0927C6.64456 33.7662 6.24404 33.5865 5.94969 33.2931ZM44.5247 32.1521C44.5244 32.5997 44.3449 32.9997 44.0518 33.2937C43.7578 33.5867 43.3577 33.7662 42.9103 33.7665H23.4204V16.9752H42.9103C43.3577 16.9755 43.7578 17.155 44.0518 17.448C44.3449 17.742 44.5244 18.142 44.5247 18.5896V32.1521Z" fill="#005AAE"/>
</svg>
