<svg width="52" height="50" viewBox="0 0 52 50" fill="none" xmlns="http://www.w3.org/2000/svg">
<path d="M43.3633 0H8.42162C3.7701 0.000390966 0.000377907 3.64057 0 8.13163V41.8684C0.000377907 46.3594 3.7701 49.9996 8.42162 50H43.3633C48.0151 49.9996 51.7849 46.3594 51.7853 41.8684V8.13163C51.7849 3.64057 48.0151 0.000364876 43.3633 0ZM50.5912 41.8684C50.5909 43.7973 49.7832 45.5383 48.4743 46.803C47.1644 48.0668 45.3612 48.8468 43.3633 48.8471H8.42162C6.42385 48.8468 4.62077 48.0669 3.31095 46.803C2.00211 45.5383 1.19439 43.7973 1.1941 41.8684V8.13163C1.19439 6.20273 2.00211 4.46169 3.31095 3.19696C4.62077 1.93315 6.42383 1.15321 8.42162 1.15292H43.3633C45.3612 1.15321 47.1644 1.93317 48.4743 3.19696C49.7832 4.46169 50.5909 6.20273 50.5912 8.13163V41.8684Z" fill="#005AAE"/>
<path d="M25.8852 5.01562C14.4539 5.01599 5.18788 13.9625 5.1875 25C5.18788 36.0371 14.4539 44.9835 25.8852 44.9839C37.3168 44.9836 46.5828 36.0371 46.5832 25C46.5829 13.9625 37.3168 5.01599 25.8852 5.01562ZM12.094 11.684C14.455 9.40504 17.4174 7.71266 20.7304 6.83811C21.0133 7.2525 21.1775 7.60197 21.2733 7.9135C21.3705 8.23182 21.4006 8.51522 21.401 8.81163C21.4036 9.29021 21.3085 9.81047 21.3062 10.4522C21.3055 10.934 21.3681 11.4792 21.5795 12.0883C21.7515 12.5857 21.9205 12.9887 22.0369 13.3104C22.1555 13.6326 22.2121 13.867 22.21 14.0207C22.2061 14.1625 22.1844 14.2502 22.0764 14.4088C21.9154 14.6433 21.4956 14.9958 20.7086 15.454C19.9237 15.9151 18.7858 16.4913 17.2046 17.254C16.4131 17.6367 15.8346 18.045 15.4362 18.5126C15.0371 18.9768 14.8384 19.5179 14.8422 20.0442C14.8423 20.4083 14.9285 20.7583 15.0636 21.0904C15.3016 21.6717 15.6855 22.2098 16.1151 22.7392C16.7603 23.5301 17.5191 24.303 18.0961 25.0428C18.3846 25.4116 18.6264 25.7704 18.7886 26.1041C18.9518 26.4386 19.0336 26.7419 19.0332 27.0141C19.0326 27.2047 18.9961 27.3838 18.9085 27.5745C18.8205 27.7646 18.6778 27.9681 18.4518 28.1863C17.6024 29.0063 16.7616 29.6224 15.9801 30.0265C15.1981 30.4317 14.4799 30.6216 13.8719 30.6208C13.1904 30.6159 12.6437 30.4044 12.1611 29.9346C11.6818 29.4629 11.2756 28.6951 11.0448 27.579C10.8301 26.5441 10.4331 25.7794 9.89027 25.2636C9.34981 24.7464 8.66594 24.5118 8.01935 24.5155C7.4441 24.5163 6.89668 24.6853 6.42462 24.9546C6.40986 24.9631 6.39668 24.9737 6.38205 24.9824C6.38732 19.7873 8.56769 15.0898 12.094 11.684ZM11.1383 37.3159C11.2818 37.165 11.47 36.9834 11.6971 36.8057C11.9501 36.6069 12.2468 36.4158 12.5655 36.2785C12.885 36.1409 13.2228 36.0569 13.5747 36.0569C14.0479 36.0595 14.5625 36.1991 15.1627 36.6497C16.3532 37.5504 17.1002 38.3096 17.7796 38.8914C18.1203 39.1817 18.448 39.4323 18.8211 39.6184C19.1924 39.8049 19.6142 39.9147 20.0672 39.9129C20.3251 39.9129 20.5917 39.88 20.872 39.8176C20.9837 39.7926 21.1264 39.7773 21.2892 39.7774C21.628 39.7769 22.0514 39.8431 22.481 39.9751C23.1268 40.1713 23.7866 40.5165 24.2523 40.9467C24.486 41.1613 24.6715 41.395 24.7962 41.638C24.9209 41.8818 24.9876 42.1329 24.9881 42.4079C24.9873 42.7911 24.8545 43.2435 24.477 43.7768C19.652 43.4441 15.3146 41.4242 12.094 38.3155C11.7619 37.9948 11.4459 37.659 11.1383 37.3159ZM25.8233 43.8295C26.0637 43.3471 26.1827 42.8694 26.1822 42.4079C26.1832 41.7902 25.9711 41.2257 25.6433 40.7561C25.1492 40.0494 24.4119 39.5324 23.6332 39.1759C22.8513 38.8218 22.0257 38.6266 21.2892 38.6245C21.0521 38.6247 20.823 38.6454 20.6036 38.6942C20.3949 38.7406 20.2194 38.76 20.0672 38.76C19.7998 38.7582 19.5999 38.7067 19.3674 38.5932C19.0215 38.4249 18.6137 38.0794 18.0693 37.5823C17.5238 37.0872 16.84 36.454 15.8993 35.7422C15.1262 35.1534 14.317 34.9013 13.5747 34.9039C13.0059 34.904 12.486 35.0447 12.036 35.2445C11.3602 35.5456 10.8312 35.9766 10.4613 36.3315C10.4315 36.3601 10.4045 36.3874 10.3769 36.415C8.15375 33.604 6.73569 30.1733 6.44371 26.4351C6.59994 26.2488 6.80366 26.0771 7.03297 25.9467C7.3429 25.769 7.69306 25.6677 8.01935 25.6684C8.38943 25.6721 8.72727 25.7814 9.05351 26.0861C9.3774 26.3922 9.69198 26.9276 9.87389 27.8053C10.1366 29.0701 10.6148 30.0548 11.3073 30.7405C11.9967 31.428 12.9095 31.7786 13.8719 31.7737C14.7345 31.7728 15.6343 31.513 16.5442 31.0426C17.4546 30.5711 18.3796 29.8856 19.2959 29.0018C19.6075 28.7014 19.843 28.3816 19.9988 28.0447C20.155 27.7083 20.2278 27.3568 20.2273 27.0141C20.2239 26.2591 19.8996 25.576 19.4778 24.9384C18.8396 23.9827 17.9429 23.0873 17.2282 22.237C16.8709 21.8139 16.5607 21.4048 16.351 21.0299C16.1394 20.6539 16.035 20.3216 16.0363 20.0442C16.04 19.7762 16.1143 19.5386 16.3598 19.2433C16.606 18.9514 17.0437 18.6195 17.7383 18.2853C19.8615 17.2598 21.2061 16.5682 22.0742 15.9676C22.5078 15.6656 22.83 15.3832 23.0602 15.0621C23.2915 14.7443 23.408 14.3719 23.4041 14.0207C23.402 13.6349 23.2933 13.2903 23.1639 12.9292C23.0323 12.5675 22.8708 12.1828 22.7122 11.7234C22.5461 11.2403 22.501 10.8424 22.5003 10.4522C22.498 9.93596 22.5926 9.42357 22.5951 8.81163C22.5955 8.43633 22.5537 8.02609 22.4182 7.586C22.3176 7.25753 22.1659 6.91445 21.9507 6.55184C23.2213 6.30063 24.5371 6.16862 25.8852 6.16854C31.2731 6.16883 36.1453 8.27537 39.6766 11.6841C40.2966 12.2828 40.8722 12.9235 41.4045 13.5977C40.7849 14.1195 39.7658 15.1657 38.3003 17.094C37.5116 18.1336 36.8107 19.0433 36.2902 19.9382C35.7716 20.8303 35.4281 21.7268 35.4281 22.6964C35.4269 23.7965 35.8749 24.9209 36.8155 26.1561C37.3408 26.8475 37.6932 27.4339 37.9095 27.927C38.1262 28.421 38.2072 28.817 38.2073 29.1477C38.2051 29.5674 38.0843 29.9003 37.8571 30.2531C37.63 30.6031 37.2867 30.9575 36.8803 31.3387C35.8417 32.3149 35.1286 33.3211 34.6328 34.331C33.8881 35.8471 33.6304 37.3563 33.4133 38.7974C33.2108 40.1542 33.0375 41.4519 32.5832 42.6912C30.4948 43.4285 28.2393 43.8309 25.8852 43.831C25.8644 43.831 25.8441 43.8295 25.8233 43.8295ZM39.6767 38.3155C38.0467 39.8889 36.1284 41.1801 34.0082 42.1196C34.4289 40.5602 34.537 39.0246 34.8332 37.5531C35.0179 36.6234 35.2731 35.7175 35.7116 34.8253C36.1507 33.9331 36.7724 33.0506 37.7136 32.1645C38.1384 31.7638 38.5488 31.3545 38.8676 30.8672C39.1863 30.3826 39.4035 29.8045 39.4014 29.1477C39.4014 28.6318 39.2734 28.0789 39.0088 27.4769C38.7438 26.8741 38.3425 26.2176 37.7785 25.4744C36.9296 24.3532 36.6234 23.4865 36.6222 22.6964C36.6222 21.997 36.8669 21.3032 37.3317 20.502C37.7945 19.7036 38.4719 18.817 39.2633 17.7756C40.241 16.4881 41.0104 15.6134 41.5653 15.0504C41.7765 14.836 41.9564 14.6674 42.1033 14.5389C44.1781 17.5311 45.3889 21.1271 45.3891 25C45.3888 30.2019 43.2071 34.906 39.6767 38.3155Z" fill="#005AAE"/>
</svg>
