<svg width="50" height="50" viewBox="0 0 50 50" fill="none" xmlns="http://www.w3.org/2000/svg">
<path d="M41.8687 0H8.13149C3.64037 0.000364878 0.000364879 3.64035 0 8.13146V41.8686C0.000364879 46.3596 3.64037 49.9996 8.13149 50H41.8687C46.3598 49.9996 49.9996 46.3596 50 41.8686V8.13146C49.9996 3.64038 46.3598 0.000364878 41.8687 0ZM48.8471 41.8686C48.8468 43.7975 48.0669 45.5384 46.8032 46.8031C45.5386 48.0669 43.7976 48.8468 41.8687 48.8471H8.13149C6.20258 48.8468 4.4616 48.0669 3.19691 46.8031C1.93314 45.5384 1.15322 43.7975 1.15293 41.8686V8.13146C1.15322 6.20255 1.93314 4.46158 3.19691 3.1969C4.4616 1.93313 6.20258 1.15321 8.13149 1.15292H41.8687C43.7976 1.15321 45.5386 1.93313 46.8032 3.19687C48.0669 4.46155 48.8468 6.20255 48.8471 8.13146V41.8686Z" fill="#0A55A1"/>
<path d="M36.012 24.8792L36.0119 24.8794C35.9693 24.984 35.8203 25.2729 35.6462 25.6001C35.5632 25.756 35.476 25.918 35.4012 26.0569C35.3355 26.1789 35.2794 26.2831 35.2442 26.3497C34.9672 26.7862 34.6468 27.2249 34.2785 27.6691C32.8751 29.3607 30.8879 31.0566 28.5456 33.0532L28.8699 33.4337L28.5456 33.0532L28.4836 33.1061L28.4835 33.1062L28.4766 33.112L28.4766 33.112L28.4755 33.1129C27.6721 33.7975 26.7607 34.5741 25.8156 35.4004L25.8155 35.4006C25.59 35.5979 25.3002 35.7068 24.9997 35.7069C24.6991 35.7069 24.4092 35.5978 24.184 35.4005L24.1836 35.4001C23.2352 34.5713 22.3215 33.7926 21.5166 33.1067C21.5165 33.1067 21.5165 33.1067 21.5165 33.1066L21.4555 33.0546C19.1124 31.0574 17.1249 29.3611 15.7213 27.6696C15.0699 26.8837 14.5667 26.1169 14.1985 25.3503C14.0398 24.919 13.8473 24.3103 13.6942 23.6961C13.5361 23.0623 13.4305 22.4633 13.4307 22.054V22.0537C13.4305 20.1614 14.0799 18.4208 15.2518 17.1495L15.2519 17.1493C16.4348 15.8652 18.0673 15.1542 19.8345 15.1553L19.8354 15.1553C21.1505 15.1539 22.3689 15.5741 23.4297 16.3961L23.4301 16.3964C23.8556 16.7254 24.2499 17.1163 24.6116 17.5617L24.9997 18.0396L25.3878 17.5617C25.7497 17.1163 26.1438 16.7254 26.5692 16.3964L26.5695 16.3961C27.6305 15.5741 28.849 15.1539 30.1641 15.1553L30.165 15.1553C31.9322 15.1542 33.5645 15.8652 34.7474 17.1494L34.7475 17.1495C35.9195 18.4208 36.5689 20.1614 36.5687 22.0535V22.0537C36.569 23.0236 36.3873 23.9583 36.012 24.8792Z" stroke="#0A55A1"/>
<path d="M37.4073 16.0565C39.4019 18.6923 40.5214 21.8884 40.6083 25.1951C40.6952 28.5018 39.7451 31.7525 37.8917 34.4898" stroke="#0A55A1" stroke-width="2" stroke-linecap="round"/>
<path d="M43.1998 20.1161C44.2716 23.2448 44.3374 26.6314 43.3878 29.7994" stroke="#0A55A1" stroke-width="2" stroke-linecap="round"/>
<path d="M13.3007 34.4903C11.3061 31.8546 10.1866 28.6584 10.0997 25.3518C10.0128 22.0451 10.9629 18.7943 12.8163 16.057" stroke="#0A55A1" stroke-width="2" stroke-linecap="round"/>
<path d="M7.50821 30.4307C6.43638 27.3021 6.37062 23.9155 7.3202 20.7475" stroke="#0A55A1" stroke-width="2" stroke-linecap="round"/>
</svg>
