<svg width="50" height="50" viewBox="0 0 50 50" fill="none" xmlns="http://www.w3.org/2000/svg">
<path d="M41.8686 0H8.13167C3.64058 0.000390925 0.000390925 3.64032 0 8.13146V41.8686C0.000390925 46.3597 3.64056 49.9996 8.13167 50H41.8686C46.3596 49.9996 49.9998 46.3597 50.0002 41.8686V8.13146C49.9998 3.64032 46.3596 0.000390925 41.8686 0ZM48.8473 41.8686C48.847 43.7974 48.0671 45.5384 46.8032 46.8031C45.5385 48.0669 43.7974 48.8468 41.8686 48.8471H8.13167C6.20276 48.8468 4.46171 48.0669 3.19698 46.8031C1.93316 45.5384 1.15321 43.7974 1.15292 41.8686V8.13146C1.15321 6.20258 1.93316 4.46158 3.19698 3.1969C4.46173 1.93313 6.20276 1.15321 8.13167 1.15292H41.8686C43.7974 1.15321 45.5385 1.93313 46.8032 3.1969C48.0671 4.46158 48.847 6.20255 48.8473 8.13146V41.8686Z" fill="#005AAE"/>
<path d="M37.9577 35.6315L37.9577 29.7507C37.9573 27.6577 36.2616 25.9617 34.1687 25.9613C32.0754 25.9616 30.3796 27.6577 30.3792 29.7507V37.9686C30.3789 39.3593 29.8172 40.6131 28.9061 41.5251C27.9941 42.4361 26.7403 42.9979 25.3496 42.9982C23.9588 42.9979 22.705 42.4361 21.793 41.5251C20.8819 40.6131 20.3202 39.3593 20.3199 37.9686V27.0946C25.1868 26.7964 29.0415 22.7573 29.0418 17.8154V10.8534C30.2464 10.5893 31.1482 9.51818 31.1485 8.23422C31.1481 6.75212 29.9473 5.55163 28.4654 5.55127C26.9837 5.55169 25.7831 6.75215 25.7826 8.23422C25.783 9.5181 26.6847 10.5891 27.8889 10.8533V17.8154C27.8886 20.0666 26.9781 22.0995 25.5032 23.5754C24.0274 25.0504 21.9946 25.961 19.7434 25.9613C17.492 25.961 15.4591 25.0504 13.9833 23.5754C12.5083 22.0995 11.5978 20.0666 11.5975 17.8154V10.8534C12.802 10.5893 13.7035 9.518 13.7038 8.23422C13.7034 6.75231 12.5031 5.55161 11.021 5.55127C9.53906 5.55163 8.33828 6.75212 8.33789 8.23422C8.33823 9.51818 9.24004 10.5893 10.4446 10.8534L10.4446 17.8154C10.4449 22.7574 14.2996 26.7965 19.167 27.0946L19.1669 37.9686C19.1673 41.3833 21.9347 44.1508 25.3496 44.1511C28.7643 44.1508 31.5318 41.3833 31.5321 37.9686V29.7507C31.5324 29.0208 31.8263 28.3653 32.3043 27.8864C32.7832 27.4084 33.4386 27.1145 34.1687 27.1142C34.8984 27.1145 35.5538 27.4084 36.0327 27.8864C36.5106 28.3653 36.8045 29.0208 36.8048 29.7507V35.6315C34.7134 35.9139 33.1001 37.7008 33.0997 39.8697C33.1001 42.2345 35.0164 44.1507 37.3812 44.1511C39.7464 44.1508 41.6624 42.2344 41.6627 39.8697C41.6624 37.7009 40.0494 35.9138 37.9577 35.6315ZM26.9356 8.23422C26.9358 7.80987 27.1059 7.431 27.3837 7.15231C27.6624 6.87451 28.0413 6.70448 28.4654 6.70419C28.8897 6.70448 29.2687 6.87454 29.5474 7.15234C29.8252 7.43102 29.9953 7.80987 29.9956 8.23422C29.9953 8.65854 29.8252 9.03738 29.5474 9.31607C29.2687 9.59387 28.8897 9.76393 28.4654 9.76421C28.0413 9.76393 27.6624 9.59389 27.3837 9.31609C27.1059 9.03741 26.9358 8.65854 26.9356 8.23422ZM9.49082 8.23422C9.4911 7.80987 9.66119 7.43102 9.93901 7.15234C10.2177 6.87454 10.5967 6.70448 11.021 6.70419C11.4454 6.70448 11.8242 6.87454 12.1028 7.15229C12.3805 7.43095 12.5505 7.80979 12.5508 8.23422C12.5505 8.65862 12.3805 9.03746 12.1028 9.31612C11.8242 9.59387 11.4454 9.76393 11.021 9.76421C10.5967 9.76393 10.2177 9.59387 9.93901 9.31607C9.66119 9.03738 9.4911 8.65854 9.49082 8.23422ZM39.5936 42.0819C39.0257 42.6489 38.2472 42.9979 37.3812 42.9982C36.5155 42.9979 35.737 42.6489 35.169 42.0819C34.6019 41.5139 34.2529 40.7354 34.2526 39.8697C34.2529 39.0039 34.6019 38.2254 35.169 37.6574C35.737 37.0904 36.5155 36.7414 37.3812 36.7411C38.2472 36.7414 39.0257 37.0904 39.5936 37.6574C40.1606 38.2253 40.5095 39.0039 40.5098 39.8697C40.5095 40.7354 40.1606 41.5139 39.5936 42.0819Z" fill="#005AAE"/>
</svg>
