<svg width="50" height="50" viewBox="0 0 50 50" fill="none" xmlns="http://www.w3.org/2000/svg">
<path d="M42.1907 0H7.81279C3.50484 0 0 3.50828 0 7.81731V42.1909C0 46.4976 3.50484 50 7.81279 50H42.1907C46.4975 50 50 46.4976 50 42.1909V7.81731C50 3.50828 46.4975 0 42.1907 0ZM42.1907 1.17413C45.8494 1.17413 48.8258 4.15405 48.8258 7.81731V42.1909C48.8258 45.8495 45.8494 48.8259 42.1907 48.8259H7.81279C4.15297 48.8259 1.17415 45.8495 1.17415 42.1909V7.81731C1.17415 4.15405 4.15297 1.17413 7.81279 1.17413H42.1907Z" fill="#0A55A1"/>
<path fill-rule="evenodd" clip-rule="evenodd" d="M35.2196 6.54243L24.3529 19.1667L15.6383 6.54243H11.665L10.2842 22.3955H14.6485L15.3988 13.5238L21.6194 22.3955H27.1356L34.9038 13.5238L34.1429 22.3955H38.337L39.7178 6.54243H35.2196Z" fill="#0A55A1"/>
<path d="M11.8728 30.7726C12.7875 27.6554 15.4857 26.2687 18.3553 26.2687C20.288 26.2687 21.8484 26.8851 22.8124 27.754C23.7036 28.57 24.273 29.7065 24.273 30.9217C24.273 32.6782 23.1083 34.1388 21.4269 34.6084C23.4065 35.0041 24.8413 36.4424 24.8413 38.6696C24.8413 40.6492 23.7517 41.8116 23.0848 42.3317C21.9212 43.2475 19.9897 43.7441 18.1827 43.7441C15.1147 43.7441 12.1946 42.3059 11.2764 38.8422L14.7178 38.247C15.09 39.7087 16.2524 40.7725 18.0101 40.7725C18.6782 40.7725 19.6938 40.5494 20.2116 40.1032C20.6578 39.7346 20.9807 39.1146 20.9807 38.4219C20.9807 37.6775 20.5862 37.0083 20.0649 36.6396C19.8171 36.4659 19.1725 36.0948 17.5898 36.0948H15.7816V33.4214H17.3667C18.1827 33.4214 19.0504 33.3709 19.668 32.9271C20.1647 32.5784 20.4852 31.9855 20.4852 31.342C20.4852 30.8442 20.288 30.2783 19.7678 29.8321C19.3733 29.4858 18.7768 29.2392 17.9596 29.2392C16.4497 29.2392 15.4857 30.2032 15.1147 31.3914L11.8728 30.7726Z" fill="#0A55A1"/>
<path d="M31.4522 39.9546C31.923 40.5733 32.5418 40.8704 33.285 40.8704C34.0271 40.8704 34.6459 40.5733 35.1167 39.9546C35.4372 39.5096 36.1558 38.3707 36.1558 35.0808C36.1558 33.8421 36.1312 31.0935 35.0909 29.9065C34.6459 29.4134 34.0764 29.1386 33.285 29.1386C32.4913 29.1386 31.923 29.4134 31.4768 29.9065C30.4377 31.0935 30.4131 33.8421 30.4131 35.0808C30.4131 38.3707 31.1316 39.5096 31.4522 39.9546ZM28.2103 28.8932C29.1262 27.5806 30.8357 26.2679 33.285 26.2679C35.7355 26.2679 37.4439 27.5806 38.3585 28.8932C39.4223 30.4266 39.8685 32.7772 39.8685 35.0808C39.8685 42.4073 35.7601 43.7446 33.285 43.7446C30.8087 43.7446 26.6992 42.4073 26.6992 35.0808C26.6992 32.7772 27.1454 30.4266 28.2103 28.8932Z" fill="#0A55A1"/>
</svg>
