<svg width="50" height="50" viewBox="0 0 50 50" fill="none" xmlns="http://www.w3.org/2000/svg">
<path d="M41.8687 0H8.13149C3.64037 0.000364878 0.000364879 3.64035 0 8.13146V41.8686C0.000364879 46.3596 3.64037 49.9996 8.13149 50H41.8687C46.3598 49.9996 49.9996 46.3596 50 41.8686V8.13146C49.9996 3.64038 46.3598 0.000364878 41.8687 0ZM48.8471 41.8686C48.8468 43.7975 48.0669 45.5384 46.8032 46.8031C45.5386 48.0669 43.7976 48.8468 41.8687 48.8471H8.13149C6.20258 48.8468 4.4616 48.0669 3.19691 46.8031C1.93314 45.5384 1.15322 43.7975 1.15293 41.8686V8.13146C1.15322 6.20255 1.93314 4.46158 3.19691 3.1969C4.4616 1.93313 6.20258 1.15321 8.13149 1.15292H41.8687C43.7976 1.15321 45.5386 1.93313 46.8032 3.19687C48.0669 4.46155 48.8468 6.20255 48.8471 8.13146V41.8686Z" fill="#0A55A1"/>
<path d="M46.6463 25.5452H42.5733C42.7942 25.1243 42.9932 24.7024 43.1659 24.2782C43.7967 22.7299 44.1037 21.1528 44.1031 19.5184C44.1035 16.3514 43.0159 13.4063 41.019 11.2397L40.5952 11.6305L41.019 11.2397C39.0001 9.04753 36.2116 7.83461 33.2036 7.83643C30.9484 7.83409 28.8551 8.558 27.0444 9.96117C26.3202 10.5214 25.6552 11.1824 25.0496 11.9281C24.4442 11.1824 23.779 10.5214 23.0545 9.96117C21.244 8.558 19.151 7.83409 16.8958 7.83643C13.8878 7.83461 11.0989 9.0475 9.07997 11.2397C7.08321 13.4063 5.99567 16.3514 5.99601 19.5188C5.99551 21.0129 6.25538 22.4589 6.78154 23.879H2.39927C2.39922 23.879 2.39919 23.879 2.39914 23.879C2.39909 23.879 2.39906 23.879 2.39901 23.879H2.37662V23.8836C2.07284 23.8962 1.8291 24.1454 1.8291 24.4559C1.8291 24.7664 2.07284 25.0156 2.37662 25.0282V25.0319H2.39482C2.39635 25.0319 2.3976 25.0328 2.39914 25.0328C2.40068 25.0328 2.40193 25.0319 2.40347 25.0319H7.26984C7.88526 26.3221 8.72286 27.5977 9.79384 28.8901C12.0824 31.6487 15.3159 34.3984 19.0387 37.5725C20.3098 38.6558 21.7487 39.8823 23.2417 41.1875C23.7415 41.6253 24.384 41.8669 25.0496 41.8668C25.715 41.8668 26.3573 41.6255 26.8573 41.1879C28.35 39.8826 29.7897 38.6556 31.0616 37.5716C34.7837 34.3982 38.0171 31.6487 40.3057 28.8897C40.9141 28.1557 41.4458 27.427 41.9064 26.6981H46.629C46.6298 26.6981 46.6305 26.6985 46.6313 26.6985C46.6321 26.6985 46.6327 26.6981 46.6336 26.6981H46.6463V26.6955C46.9538 26.687 47.2013 26.4352 47.2013 26.1227C47.2013 25.8099 46.9538 25.5581 46.6463 25.5496V25.5452ZM8.00129 23.8436C7.42473 22.4258 7.14949 21.0098 7.14894 19.5188C7.14928 16.6131 8.14424 13.9558 9.92765 12.0211C11.7347 10.0639 14.1962 8.99118 16.8958 8.98936C18.9069 8.9917 20.7207 9.61678 22.3492 10.8732C23.1706 11.5084 23.9192 12.2889 24.5824 13.2062L25.0495 13.8524L25.5167 13.2063C26.1803 12.2887 26.9288 11.5084 27.7498 10.8732C29.3785 9.61678 31.1925 8.9917 33.2036 8.98936C35.9032 8.99118 38.3642 10.0638 40.1713 12.0212C41.9549 13.9559 42.9499 16.6131 42.9502 19.5184C42.9497 21.0096 42.6745 22.4257 42.098 23.8435C41.8678 24.4092 41.5867 24.9754 41.257 25.5452L31.5928 25.5451L28.8324 14.1439L25.7517 29.6718L21.3361 19.0936L18.7017 26.662L16.6762 23.879H8.01664C8.01179 23.8672 8.00608 23.8554 8.00129 23.8436ZM39.418 28.154C37.2326 30.7935 34.0363 33.5233 30.3137 36.6941C29.0418 37.7781 27.598 39.0086 26.0981 40.3201C25.8085 40.5737 25.4358 40.7139 25.0496 40.7139C24.6631 40.7139 24.291 40.5739 24.001 40.3199C22.5007 39.0084 21.0578 37.7784 19.7865 36.695C16.0633 33.5235 12.867 30.7935 10.6815 28.1544C9.80096 27.0918 9.09949 26.0575 8.55892 25.0319H16.0894L19.0662 29.1221L21.4337 22.3203L26.1459 33.6093L28.9441 19.5047L30.6857 26.6981H40.5232C40.1905 27.1788 39.8248 27.6632 39.418 28.154Z" fill="#0A55A1"/>
</svg>
