<svg width="50" height="50" viewBox="0 0 50 50" fill="none" xmlns="http://www.w3.org/2000/svg">
<path d="M35.7781 15.4696C34.5747 14.1235 33.2264 13.0862 31.7662 12.3982C30.2377 11.6799 29.0872 11.5906 28.6255 11.5909C28.496 11.5909 28.3862 11.5973 28.2979 11.6054L27.9628 11.6361L27.8248 11.943C27.5914 12.4653 27.1602 13.7313 26.7125 16.8003C26.686 16.9822 26.6608 17.1757 26.6351 17.3644L25.6481 15.9588V6.05651C25.6481 6.05568 25.6486 6.05502 25.6486 6.05419C25.6486 5.73685 25.3915 5.47998 25.0743 5.47998C24.7574 5.47998 24.5003 5.73685 24.5003 6.05419H24.4952V15.9627L23.5644 17.3235C23.521 16.9898 23.4765 16.6639 23.4307 16.35C22.9831 13.2814 22.5516 12.0152 22.3185 11.4933L22.1805 11.1862L21.8454 11.1555C21.7571 11.1474 21.6472 11.141 21.5177 11.141C21.0561 11.1407 19.9055 11.23 18.3776 11.948C16.9168 12.6362 15.5683 13.6735 14.3651 15.0196C12.1597 17.4896 10.5727 20.853 9.61167 24.9968L10.1732 25.127L9.61164 24.9969C8.89591 28.0876 8.54112 31.5848 8.54102 35.4559C8.54104 38.0879 8.70524 40.8927 9.03292 43.8602L9.1018 44.4842L9.71769 44.3624C10.1094 44.2844 10.5646 44.1399 11.0666 43.9572C12.5647 43.41 14.4633 42.5102 15.459 42.04C17.9833 40.8472 20.0418 40.7139 21.4045 40.7125C21.7948 40.7125 22.151 40.7243 22.4716 40.7351L22.4694 40.7351C22.7325 40.7449 23.0312 40.7517 23.235 40.7517H23.6686L23.7888 40.3351C23.9621 39.7311 24.2226 38.4014 24.3552 35.5019C24.4073 34.3634 24.4331 33.1022 24.4331 31.7627C24.4331 29.9196 24.3843 27.9285 24.2878 25.908C24.1729 23.4977 23.9938 21.1566 23.769 19.0665L25.0778 17.153L26.4226 19.0681C26.1746 21.2672 25.9785 23.775 25.8552 26.358C25.7588 28.3786 25.71 30.3701 25.71 32.2135C25.71 33.5526 25.7358 34.8135 25.7878 35.9516C25.9206 38.8514 26.1811 40.1811 26.3544 40.7851L26.4746 41.2017H26.9083C27.112 41.2016 27.4108 41.1948 27.6738 41.185L27.6717 41.1851C27.9923 41.1742 28.3485 41.1625 28.7385 41.1625C30.1015 41.1639 32.1597 41.2971 34.6837 42.4898C35.3465 42.803 36.4145 43.3083 37.4934 43.7714C38.0333 44.003 38.576 44.2243 39.0767 44.407C39.5787 44.5896 40.034 44.7341 40.4257 44.812L41.0415 44.9335L41.1103 44.3097C41.438 41.3423 41.6022 38.5377 41.6022 35.906C41.6021 32.0349 41.2472 28.5377 40.5316 25.4469C39.5706 21.3029 37.9835 17.9391 35.7781 15.4696ZM23.2035 35.4493C23.1029 37.6764 22.9219 38.9297 22.7837 39.5914C22.6922 39.589 22.5999 39.5863 22.5126 39.583L22.5105 39.5829C22.1893 39.572 21.8178 39.5596 21.4045 39.5596C19.9588 39.5582 17.6796 39.711 14.966 40.9978C14.3051 41.3102 13.249 41.8097 12.195 42.262C11.6684 42.4881 11.1425 42.7022 10.6714 42.8741C10.4733 42.9466 10.2874 43.0093 10.1133 43.0643C9.83778 40.3841 9.69392 37.8403 9.69395 35.4559C9.69384 31.6554 10.0431 28.2429 10.7348 25.2572C11.6636 21.2494 13.1845 18.0709 15.2248 15.7878C16.3395 14.5411 17.5655 13.6051 18.8684 12.9912C20.0891 12.418 20.9946 12.3129 21.3967 12.2971C21.6028 12.8832 21.9419 14.1196 22.2898 16.5163C22.6689 19.1106 22.97 22.4718 23.1362 25.963C23.2319 27.9659 23.2802 29.9399 23.2802 31.7627C23.2802 33.0873 23.2546 34.3322 23.2035 35.4493ZM35.1766 41.4476C32.4634 40.161 30.1845 40.0082 28.7385 40.0096C28.3254 40.0096 27.954 40.022 27.6328 40.0328L27.6307 40.0329C27.5433 40.0362 27.4511 40.0389 27.3595 40.0414C27.2213 39.3797 27.0403 38.1263 26.9396 35.899C26.8884 34.7823 26.863 33.5378 26.863 32.2135C26.863 30.3904 26.9112 28.4159 27.0069 26.413C27.1732 22.9217 27.4743 19.5606 27.8534 16.9666C28.2013 14.5695 28.5404 13.333 28.7465 12.7471C29.1486 12.7629 30.0541 12.868 31.2754 13.4414C32.5777 14.0551 33.8036 14.991 34.9184 16.2379C36.9587 18.5204 38.4796 21.6994 39.4085 25.7071C40.1 28.6929 40.4494 32.1054 40.4493 35.906C40.4493 38.2902 40.3055 40.8338 40.03 43.514C39.8558 43.459 39.6699 43.3963 39.4718 43.3239C38.0545 42.8075 36.1665 41.9157 35.1766 41.4476Z" fill="#005AAE"/>
<path d="M41.8687 0H8.13149C3.64039 0.000364879 0.000364879 3.64018 0 8.1317V41.8687C0.000364879 46.3598 3.64039 49.9996 8.13149 50H41.8687C46.3598 49.9996 49.9996 46.3598 50 41.8687V8.1317C49.9996 3.64021 46.3598 0.000364879 41.8687 0ZM48.8471 41.8687C48.8468 43.7976 48.0669 45.5386 46.8032 46.8032C45.5386 48.0669 43.7976 48.8468 41.8687 48.8471H8.13149C6.20258 48.8468 4.46157 48.0669 3.19689 46.8032C1.93314 45.5386 1.15322 43.7976 1.15293 41.8687V8.1317C1.15322 6.20258 1.93314 4.46154 3.19691 3.19686C4.4616 1.93309 6.20258 1.15322 8.13149 1.15293H41.8687C43.7976 1.15322 45.5386 1.93309 46.8032 3.19683C48.0669 4.46152 48.8468 6.20255 48.8471 8.1317V41.8687Z" fill="#005AAE"/>
<path d="M23.3487 18.219C23.3487 18.219 21.6376 20.2004 21.3965 20.2302C21.1571 20.2612 20.2557 19.9599 20.2557 19.9599C20.2557 19.9599 19.6556 19.4806 19.6556 19.0901C19.6556 18.7001 18.9061 17.8285 18.9061 17.8285C18.9061 17.8285 19.0555 17.2587 18.3047 16.5979C17.554 15.937 17.2241 15.7268 16.8937 15.6673C16.5645 15.6072 16.293 15.5173 16.293 15.5173" stroke="#005AAE" stroke-width="1.13333" stroke-linecap="round" stroke-linejoin="bevel"/>
<path d="M21.067 20.9205C21.067 20.9205 20.9473 21.4611 20.6163 21.8826C20.2864 22.3017 19.3255 23.7741 19.2951 23.8938C19.2642 24.014 18.5152 25.1541 18.5152 25.1541C18.5152 25.1541 18.1532 25.244 17.6436 25.3042C17.134 25.3649 16.7434 25.2143 16.1427 25.3042C15.5425 25.3941 15.2121 25.244 14.8209 25.3042C14.4316 25.3649 13.5903 26.2353 13.5903 26.2353C13.5903 26.2353 13.0212 26.3848 12.9307 26.3848" stroke="#005AAE" stroke-width="1.13333" stroke-linecap="round" stroke-linejoin="bevel"/>
<path d="M23.0169 21.1619C23.0169 21.1619 20.9457 22.9629 20.4956 23.5928C20.0455 24.2233 19.4454 25.6045 19.3251 25.8451C19.2054 26.085 18.6946 26.5357 18.7244 26.9858C18.7541 27.4365 18.6332 28.067 18.7541 28.6373C18.8744 29.2077 18.6332 28.8469 18.9041 30.2585C19.1751 31.6695 19.1149 31.5784 19.1751 32.0899C19.2352 32.6007 19.2947 33.5003 19.2947 33.6813C19.2947 33.8611 19.2947 34.0706 19.3251 34.4618C19.3549 34.8518 19.2947 35.4823 19.2947 35.6025" stroke="#005AAE" stroke-width="1.13333" stroke-linecap="round" stroke-linejoin="bevel"/>
<path d="M18.3649 30.1683L18.5446 31.2799L18.5149 32.3599C18.5149 32.3599 18.394 32.9904 18.2142 33.2613C18.0344 33.5309 18.1529 33.5619 17.7337 33.8918C17.3134 34.2216 16.9229 34.8818 16.9229 34.8818" stroke="#005AAE" stroke-width="1.13333" stroke-linecap="round" stroke-linejoin="bevel"/>
<path d="M20.8272 21.0103C20.8272 21.0103 20.4069 20.4406 19.5055 20.6501C18.6047 20.8609 18.7249 20.8002 18.3653 20.8609C18.0051 20.9211 17.9146 20.6204 17.2841 21.0103C16.6524 21.4021 16.5036 21.9713 15.9928 22.0909C15.4826 22.2124 13.9209 22.3916 13.9209 22.3916" stroke="#005AAE" stroke-width="1.13333" stroke-linecap="round" stroke-linejoin="bevel"/>
<path d="M20.2561 19.96C20.2561 19.96 19.7161 19.1193 19.0856 18.7585C18.4551 18.3995 18.7855 18.4287 18.1544 18.4584C17.5251 18.4888 17.1036 18.3388 16.8339 18.699C16.5636 19.0592 16.744 19.0294 15.8141 18.9996C14.8817 18.9693 14.5822 19.0294 14.5215 19.1491" stroke="#005AAE" stroke-width="1.13333" stroke-linecap="round" stroke-linejoin="bevel"/>
<path d="M18.1242 30.1977C18.1242 30.1977 17.5544 30.6174 17.2835 31.2485C17.0132 31.879 16.4732 32.419 16.4422 32.6602C16.4125 32.8995 15.9618 33.1995 15.9028 33.6806C15.8427 34.1605 15.5117 34.6112 15.4521 34.8809" fill="white"/>
<path d="M18.1242 30.1977C18.1242 30.1977 17.5544 30.6174 17.2835 31.2485C17.0132 31.879 16.4732 32.419 16.4422 32.6602C16.4125 32.8995 15.9618 33.1995 15.9028 33.6806C15.8427 34.1605 15.5117 34.6112 15.4521 34.8809" stroke="#005AAE" stroke-width="1.13333" stroke-linecap="round" stroke-linejoin="bevel"/>
<path d="M14.8814 29.0871C14.8814 29.0871 15.9923 28.9365 16.1424 27.916C16.2924 26.8955 16.9229 26.3258 17.014 26.2942C17.1027 26.2644 17.9743 25.8751 17.9743 25.8751L18.1839 26.1144C18.1839 26.1144 18.3345 27.9761 18.3345 28.0964C18.3345 28.2161 18.1243 28.9365 18.1243 28.9365C18.1243 28.9365 17.6439 29.3276 17.6141 29.5967C17.5838 29.8676 17.3742 30.2284 17.2533 30.5582C17.1337 30.8881 16.864 30.9482 16.4127 31.0083C15.962 31.0691 15.4821 31.2495 15.0022 31.309C14.5206 31.3691 14.1312 31.2191 13.8008 31.3691" stroke="#005AAE" stroke-width="1.13333" stroke-linecap="round" stroke-linejoin="bevel"/>
<path d="M26.7246 18.219C26.7246 18.219 28.4356 20.2004 28.6768 20.2302C28.9161 20.2612 29.8175 19.9599 29.8175 19.9599C29.8175 19.9599 30.4176 19.4806 30.4176 19.0901C30.4176 18.7001 31.1672 17.8285 31.1672 17.8285C31.1672 17.8285 31.0178 17.2587 31.7685 16.5979C32.5193 15.937 32.8491 15.7268 33.1795 15.6673C33.5088 15.6072 33.7803 15.5173 33.7803 15.5173" stroke="#005AAE" stroke-width="1.13333" stroke-linecap="round" stroke-linejoin="bevel"/>
<path d="M29.0063 20.9205C29.0063 20.9205 29.1259 21.4611 29.457 21.8826C29.7868 22.3017 30.7477 23.7741 30.7781 23.8938C30.8091 24.014 31.558 25.1541 31.558 25.1541C31.558 25.1541 31.92 25.244 32.4297 25.3042C32.9393 25.3649 33.3298 25.2143 33.9306 25.3042C34.5307 25.3941 34.8611 25.244 35.2523 25.3042C35.6417 25.3649 36.4829 26.2353 36.4829 26.2353C36.4829 26.2353 37.0521 26.3848 37.1426 26.3848" stroke="#005AAE" stroke-width="1.13333" stroke-linecap="round" stroke-linejoin="bevel"/>
<path d="M27.0563 21.1619C27.0563 21.1619 29.1276 22.9629 29.5777 23.5928C30.0278 24.2233 30.6279 25.6045 30.7482 25.8451C30.8678 26.085 31.3786 26.5357 31.3489 26.9858C31.3191 27.4365 31.44 28.067 31.3191 28.6373C31.1989 29.2077 31.44 28.8469 31.1691 30.2585C30.8982 31.6695 30.9583 31.5784 30.8982 32.0899C30.8381 32.6007 30.7785 33.5003 30.7785 33.6813C30.7785 33.8611 30.7785 34.0706 30.7482 34.4618C30.7184 34.8518 30.7785 35.4823 30.7785 35.6025" stroke="#005AAE" stroke-width="1.13333" stroke-linecap="round" stroke-linejoin="bevel"/>
<path d="M31.7084 30.1683L31.5286 31.2799L31.5584 32.3599C31.5584 32.3599 31.6792 32.9904 31.859 33.2613C32.0388 33.5309 31.9204 33.5619 32.3395 33.8918C32.7598 34.2216 33.1504 34.8818 33.1504 34.8818" stroke="#005AAE" stroke-width="1.13333" stroke-linecap="round" stroke-linejoin="bevel"/>
<path d="M29.2461 21.0103C29.2461 21.0103 29.6664 20.4406 30.5678 20.6501C31.4686 20.8609 31.3483 20.8002 31.7079 20.8609C32.0681 20.9211 32.1586 20.6204 32.7891 21.0103C33.4208 21.4021 33.5696 21.9713 34.0805 22.0909C34.5907 22.2124 36.1523 22.3916 36.1523 22.3916" stroke="#005AAE" stroke-width="1.13333" stroke-linecap="round" stroke-linejoin="bevel"/>
<path d="M29.8172 19.96C29.8172 19.96 30.3572 19.1193 30.9877 18.7585C31.6181 18.3995 31.2877 18.4287 31.9188 18.4584C32.5481 18.4888 32.9696 18.3388 33.2393 18.699C33.5096 19.0592 33.3292 19.0294 34.2592 18.9996C35.1916 18.9693 35.491 19.0294 35.5518 19.1491" stroke="#005AAE" stroke-width="1.13333" stroke-linecap="round" stroke-linejoin="bevel"/>
<path d="M31.9491 30.1977C31.9491 30.1977 32.5188 30.6174 32.7897 31.2485C33.06 31.879 33.6 32.419 33.631 32.6602C33.6608 32.8995 34.1115 33.1995 34.1704 33.6806C34.2305 34.1605 34.5616 34.6112 34.6211 34.8809" fill="white"/>
<path d="M31.9491 30.1977C31.9491 30.1977 32.5188 30.6174 32.7897 31.2485C33.06 31.879 33.6 32.419 33.631 32.6602C33.6608 32.8995 34.1115 33.1995 34.1704 33.6806C34.2305 34.1605 34.5616 34.6112 34.6211 34.8809" stroke="#005AAE" stroke-width="1.13333" stroke-linecap="round" stroke-linejoin="bevel"/>
<path d="M35.1919 29.0871C35.1919 29.0871 34.0809 28.9365 33.9309 27.916C33.7809 26.8955 33.1504 26.3258 33.0592 26.2942C32.9706 26.2644 32.0989 25.8751 32.0989 25.8751L31.8894 26.1144C31.8894 26.1144 31.7387 27.9761 31.7387 28.0964C31.7387 28.2161 31.9489 28.9365 31.9489 28.9365C31.9489 28.9365 32.4294 29.3276 32.4591 29.5967C32.4895 29.8676 32.699 30.2284 32.8199 30.5582C32.9396 30.8881 33.2093 30.9482 33.6606 31.0083C34.1113 31.0691 34.5911 31.2495 35.071 31.309C35.5527 31.3691 35.942 31.2191 36.2725 31.3691" stroke="#005AAE" stroke-width="1.13333" stroke-linecap="round" stroke-linejoin="bevel"/>
</svg>
