<svg width="56" height="56" viewBox="0 0 56 56" fill="none" xmlns="http://www.w3.org/2000/svg">
<path d="M45.1881 1H10.8126C6.5053 1 3 4.50683 3 8.8157V43.1896C3 47.4985 6.5053 51 10.8126 51H45.1881C49.4955 51 52.9985 47.4985 52.9985 43.1896V8.8157C52.9985 4.50683 49.4955 1 45.1881 1ZM45.1881 2.22827C48.8164 2.22827 51.7687 5.1836 51.7687 8.8157V43.1896C51.7687 46.8187 48.8164 49.7717 45.1881 49.7717H10.8126C7.18207 49.7717 4.22827 46.8187 4.22827 43.1896V8.8157C4.22827 5.1836 7.18207 2.22827 10.8126 2.22827H45.1881Z" fill="#3062B7"/>
<path d="M16.5879 26.1986V38.2353C16.5879 41.3571 19.1185 43.8862 22.2404 43.8862H33.2574C36.3784 43.8862 38.9098 41.3571 38.9098 38.2353V26.1986H16.5879Z" stroke="#1C63B7" stroke-width="1.33333"/>
<path d="M39.7518 25.9177C39.7518 26.3057 39.4378 26.6196 39.0498 26.6196H16.4483C16.0602 26.6196 15.7471 26.3057 15.7471 25.9177C15.7471 25.5296 16.0602 25.2157 16.4483 25.2157H39.0498C39.4378 25.2157 39.7518 25.5296 39.7518 25.9177Z" fill="white"/>
<path d="M39.7518 25.9177C39.7518 26.3057 39.4378 26.6196 39.0498 26.6196H16.4483C16.0602 26.6196 15.7471 26.3057 15.7471 25.9177C15.7471 25.5296 16.0602 25.2157 16.4483 25.2157H39.0498C39.4378 25.2157 39.7518 25.5296 39.7518 25.9177Z" fill="white" stroke="#1C63B7" stroke-width="1.33333"/>
<path d="M19.8158 29.0756C19.8158 29.5034 19.4698 29.8486 19.0436 29.8486H13.4285C13.0015 29.8486 12.6562 29.5034 12.6562 29.0756C12.6562 28.6502 13.0015 28.3049 13.4285 28.3049H19.0436C19.4698 28.3049 19.8158 28.6502 19.8158 29.0756Z" fill="white"/>
<path d="M19.8158 29.0756C19.8158 29.5034 19.4698 29.8486 19.0436 29.8486H13.4285C13.0015 29.8486 12.6562 29.5034 12.6562 29.0756C12.6562 28.6502 13.0015 28.3049 13.4285 28.3049H19.0436C19.4698 28.3049 19.8158 28.6502 19.8158 29.0756Z" stroke="#1C63B7" stroke-width="1.33333"/>
<path d="M42.8392 29.0756C42.8392 29.5034 42.494 29.8486 42.067 29.8486H36.4519C36.0257 29.8486 35.6797 29.5034 35.6797 29.0756C35.6797 28.6502 36.0257 28.3049 36.4519 28.3049H42.067C42.494 28.3049 42.8392 28.6502 42.8392 29.0756Z" fill="white"/>
<path d="M42.8392 29.0756C42.8392 29.5034 42.494 29.8486 42.067 29.8486H36.4519C36.0257 29.8486 35.6797 29.5034 35.6797 29.0756C35.6797 28.6502 36.0257 28.3049 36.4519 28.3049H42.067C42.494 28.3049 42.8392 28.6502 42.8392 29.0756Z" stroke="#1C63B7" stroke-width="1.33333"/>
<path d="M22.8396 17.9802C23.3743 17.7434 24.2375 17.654 25.0861 17.4882C25.5123 17.4035 25.9386 17.2958 26.3319 17.1193C26.7246 16.9429 27.0897 16.6908 27.3547 16.3165C27.687 15.849 27.8573 15.4251 27.8596 15.0157C27.8619 14.6719 27.7244 14.3618 27.519 14.1365C27.2111 13.795 26.7864 13.6025 26.348 13.4574C26.0012 13.3459 25.6475 13.2733 25.316 13.213C25.2618 12.9533 25.1999 12.7188 25.2037 12.55L25.2068 12.482C25.2289 12.2696 25.0762 12.0802 24.8638 12.058C24.653 12.0359 24.4636 12.1894 24.4414 12.4002L24.4338 12.55C24.4391 12.967 24.5743 13.3352 24.6041 13.5941C24.6263 13.7614 24.7554 13.8943 24.9226 13.9226C25.4321 14.0066 26.031 14.1273 26.4603 14.3236C26.6757 14.4199 26.8437 14.5344 26.9438 14.6483C27.0438 14.7644 27.0874 14.8637 27.0897 15.0157C27.0912 15.1952 27.0064 15.4808 26.7276 15.8704C26.5619 16.1034 26.3243 16.2775 26.0157 16.4173C25.5543 16.6274 24.9448 16.7404 24.3245 16.8436C23.7035 16.949 23.0741 17.0414 22.5333 17.2744C21.4571 17.7403 20.6474 18.7188 20.6436 19.889C20.6428 20.4268 20.8215 20.989 21.2004 21.516C21.344 21.7139 21.5357 21.8529 21.7519 21.9759C22.1315 22.1897 22.6051 22.3501 23.1131 22.5006C23.8723 22.7244 24.7095 22.9184 25.3328 23.1323C25.6422 23.2377 25.8988 23.35 26.0455 23.4508C26.1196 23.5005 26.1639 23.5448 26.1799 23.5677L26.1891 23.5838L26.1731 23.6219C26.0684 23.8068 26.1333 24.0421 26.319 24.1459C26.5038 24.2514 26.7383 24.1857 26.843 24.0008C26.9148 23.8748 26.9606 23.7304 26.9606 23.5815C26.9606 23.3095 26.8101 23.088 26.6436 22.9421C26.3472 22.6839 25.9477 22.5274 25.4825 22.3708C24.7874 22.1424 23.9449 21.9491 23.2277 21.7314C22.8702 21.6245 22.544 21.5091 22.295 21.3907C22.0437 21.2739 21.8772 21.1456 21.8268 21.0676C21.5304 20.6529 21.4143 20.258 21.4128 19.889C21.4089 19.1 21.9826 18.3529 22.8396 17.9802Z" fill="#1C63B7"/>
<path d="M30.0572 19.0603C29.841 18.9281 29.6088 18.8716 29.3598 18.812C28.9901 18.7272 28.5822 18.6562 28.3064 18.55C28.1689 18.4996 28.0704 18.44 28.0284 18.3973L27.9848 18.3071C27.9841 18.2674 28.0016 18.1742 28.0872 18.0268C28.1643 17.8985 28.2636 17.8366 28.4684 17.7847C28.7708 17.7083 29.2223 17.7426 29.6592 17.6785C29.8769 17.6433 30.1144 17.5776 30.3161 17.3913C30.5201 17.2057 30.6232 16.9139 30.6186 16.6083C30.6186 16.4227 30.5888 16.2226 30.5315 15.9957C30.4788 15.7895 30.2687 15.6657 30.0633 15.7177C29.857 15.7696 29.7325 15.9797 29.786 16.1852C29.8318 16.3685 29.8502 16.509 29.8494 16.6083C29.8494 16.7206 29.8288 16.7733 29.815 16.7985L29.7615 16.8505C29.7119 16.8833 29.5851 16.9192 29.4087 16.9345C29.1451 16.9605 28.7938 16.9475 28.4325 17.0071C28.2522 17.0384 28.065 17.0895 27.8848 17.1881C27.706 17.2866 27.5372 17.4386 27.4211 17.641C27.292 17.8633 27.2156 18.0826 27.2149 18.3071C27.2133 18.4759 27.2645 18.6425 27.3493 18.7754C27.5013 19.0099 27.7198 19.1374 27.939 19.2321C28.2698 19.3719 28.6387 19.4422 28.9641 19.5132C29.2864 19.5774 29.5752 19.6584 29.647 19.7118C30.2221 20.0785 30.4437 20.591 30.4498 21.1601C30.4513 21.6803 30.2367 22.2348 29.883 22.6435C29.5278 23.0537 29.0542 23.3111 28.5188 23.3111C28.4317 23.3111 28.3431 23.305 28.2529 23.2905C28.0421 23.2576 27.8451 23.402 27.813 23.6113C27.7801 23.8213 27.9237 24.0184 28.133 24.0513C28.2636 24.0719 28.392 24.0811 28.5188 24.0811C29.3116 24.0811 29.996 23.693 30.4658 23.1469C30.9379 22.5977 31.2182 21.8842 31.219 21.1601C31.2243 20.3749 30.8615 19.5598 30.0572 19.0603Z" fill="#1C63B7"/>
<path d="M34.1266 23.0341C33.7721 22.5177 33.2779 22.3481 32.9953 22.1869C32.8487 22.1067 32.7578 22.0365 32.7043 21.9624C32.6523 21.8875 32.6096 21.7928 32.6073 21.5751C32.6073 21.4544 32.6233 21.2994 32.6646 21.1061C32.7058 20.906 32.8242 20.702 32.9632 20.4759C33.0931 20.2506 33.2665 20 33.2741 19.6357C33.2764 19.4104 33.184 19.172 33.0205 18.978C32.8571 18.7817 32.6302 18.6076 32.3178 18.425C32.1337 18.3181 31.8984 18.3799 31.7915 18.564C31.6845 18.7481 31.7472 18.9834 31.9305 19.0903C32.1963 19.2438 32.3521 19.3767 32.4255 19.4676C32.5003 19.5631 32.5011 19.596 32.5042 19.6357C32.5118 19.6968 32.4438 19.8572 32.304 20.078C32.1719 20.2987 31.9908 20.5768 31.9122 20.9465C31.8618 21.1794 31.8373 21.3872 31.8373 21.5751C31.835 21.9081 31.9221 22.1976 32.0817 22.4146C32.3247 22.74 32.6424 22.8668 32.8891 22.9989C33.145 23.1303 33.3413 23.2487 33.4895 23.4664C33.6094 23.6428 33.8493 23.6879 34.0242 23.5687C34.2007 23.4496 34.2457 23.2097 34.1266 23.0341Z" fill="#1C63B7"/>
<path d="M38.4485 14.9033C38.0307 14.5351 37.4952 14.2868 36.9353 14.2838C36.8711 14.283 36.8054 14.2975 36.7405 14.3052C36.8849 13.8499 36.9681 13.3901 36.9681 12.9325C36.9735 11.6034 36.3036 10.3293 34.947 9.44557C34.2099 8.96282 33.3009 8.73443 32.3904 8.73367C31.6349 8.73367 30.8757 8.89178 30.2066 9.21565C29.7368 9.44328 29.3144 9.76181 28.9768 10.1605C28.824 9.94437 28.6506 9.76333 28.4558 9.62737C28.1075 9.38294 27.7095 9.27676 27.3284 9.27753C26.7654 9.27982 26.2315 9.49522 25.8213 9.83055C25.4157 10.1659 25.1124 10.6395 25.1094 11.1894C25.1079 11.5064 25.2209 11.8334 25.4447 12.1175C25.5753 12.2848 25.8175 12.3138 25.9855 12.1824C26.152 12.0518 26.1811 11.8097 26.0505 11.6416C25.9221 11.4766 25.8809 11.333 25.8793 11.1894C25.8755 10.945 26.0298 10.6547 26.3102 10.4256C26.5874 10.1964 26.9709 10.046 27.3284 10.0475C27.5736 10.0482 27.8035 10.1116 28.0151 10.2583C28.2244 10.4057 28.4237 10.6433 28.5765 11.0298C28.6307 11.1688 28.7621 11.2635 28.9118 11.2727C29.0615 11.2819 29.2029 11.2024 29.2731 11.071C29.5466 10.5654 29.9919 10.1758 30.5426 9.90846C31.0919 9.64112 31.7434 9.50286 32.3904 9.50362C33.171 9.50286 33.9425 9.70528 34.5238 10.0887C35.6979 10.8671 36.1928 11.8586 36.1982 12.9325C36.1982 13.6131 35.9889 14.3342 35.5787 15.0415C35.4733 15.2226 35.5329 15.4548 35.7108 15.5632C35.8896 15.6725 36.1226 15.619 36.2364 15.4425C36.4304 15.1508 36.6489 15.0606 36.9353 15.0537C37.2531 15.0499 37.6441 15.2149 37.9375 15.4784C38.2346 15.7412 38.4164 16.0827 38.4172 16.3767V16.3935C38.4225 16.8717 38.13 17.4652 37.6785 17.9167C37.2317 18.3727 36.6435 18.6683 36.1669 18.6629L36.0362 18.6561C35.8247 18.6331 35.6352 18.7867 35.6123 18.9975C35.5902 19.2098 35.7429 19.3993 35.9545 19.4214C36.0255 19.4291 36.0958 19.4321 36.1669 19.4321C36.9368 19.4268 37.6671 19.0189 38.2254 18.4582C38.7808 17.8945 39.1818 17.1612 39.1871 16.3935V16.3767V16.366C39.1757 15.7817 38.8625 15.273 38.4485 14.9033Z" fill="#1C63B7"/>
<path d="M20.122 15.3046C20.122 15.2153 20.1533 15.1099 20.2304 14.993C20.3427 14.8173 20.5551 14.6332 20.7964 14.5041C21.0355 14.3735 21.3029 14.301 21.4931 14.3025C21.6397 14.3025 21.726 14.3399 21.7658 14.3781C21.8055 14.4163 21.8513 14.4743 21.8551 14.6684V14.6867C21.8551 14.8998 22.027 15.0717 22.2394 15.0717C22.4525 15.0717 22.6243 14.8998 22.6243 14.6867V14.6684C22.6282 14.3254 22.5098 14.0076 22.2806 13.8052C22.0522 13.602 21.7642 13.5325 21.4931 13.5333C21.0111 13.5371 20.5199 13.7311 20.1097 14.0298C19.9066 14.181 19.724 14.3605 19.5857 14.5721C19.4475 14.7822 19.352 15.032 19.352 15.3046C19.3512 15.4124 19.3688 15.5178 19.3994 15.6224C18.9983 15.6583 18.6111 15.7782 18.288 15.9661C18.097 16.0784 17.9267 16.2129 17.793 16.3809C17.6608 16.5474 17.5615 16.7583 17.5615 16.9989C17.56 17.1944 17.6326 17.3922 17.7563 17.5542C17.8801 17.7176 18.0496 17.8528 18.2605 17.9712C18.4468 18.0751 18.6806 18.0094 18.7845 17.8238C18.8891 17.6382 18.8227 17.4037 18.6378 17.2998C18.4919 17.2189 18.4094 17.1417 18.3712 17.0913L18.3315 16.9989C18.3307 16.976 18.3407 16.9301 18.3972 16.8583C18.4789 16.7529 18.66 16.62 18.8853 16.5276C19.1091 16.4336 19.3742 16.3763 19.6163 16.3763C19.7882 16.3763 19.9478 16.4054 20.0754 16.4596C20.2556 16.5352 20.4634 16.4642 20.5597 16.2938C20.6551 16.1243 20.6093 15.9096 20.4527 15.7943C20.1709 15.5812 20.1258 15.4314 20.122 15.3046Z" fill="#1C63B7"/>
<line x1="13.6069" y1="41.1841" x2="41.1841" y2="13.6069" stroke="#3062B7" stroke-width="1.33"/>
<line x1="41.7495" y1="40.9824" x2="14.1723" y2="13.4053" stroke="#3062B7" stroke-width="1.33"/>
</svg>
