<svg width="28" height="22" viewBox="0 0 28 22" fill="none" xmlns="http://www.w3.org/2000/svg">
<path d="M22.6453 0.23029C22.3439 -0.0767635 21.8557 -0.0767635 21.5546 0.23029L11.2999 10.6745L6.44544 5.73023C6.14397 5.42318 5.65581 5.42318 5.35465 5.73023L0.726104 10.4445C0.424632 10.7512 0.424632 11.2487 0.726104 11.5555L10.7546 21.7696C10.9052 21.9233 11.1024 22 11.2999 22C11.4973 22 11.6945 21.9233 11.8454 21.7699L27.2739 6.05583C27.5754 5.74909 27.5754 5.25158 27.2739 4.94484L22.6453 0.23029ZM11.2999 20.103L2.36214 11.0001L5.89989 7.39718L10.7543 12.3415C11.0558 12.6485 11.5439 12.6485 11.8451 12.3415L22.0998 1.89724L25.6375 5.50018L11.2999 20.103Z" fill="white"/>
</svg>
