<svg width="58" height="80" viewBox="0 0 58 80" fill="none" xmlns="http://www.w3.org/2000/svg">
<path d="M28.9988 40.5537C35.2545 40.5537 40.3258 35.4539 40.3258 29.1631C40.3258 22.8722 35.2545 17.7725 28.9988 17.7725C22.7431 17.7725 17.6719 22.8722 17.6719 29.1631C17.6719 35.4539 22.7431 40.5537 28.9988 40.5537Z" fill="#0065A8"/>
<path d="M28.9292 8.18945C17.4103 8.19003 8.07382 17.5789 8.07324 29.1625C8.07382 40.7458 17.4103 50.1346 28.9292 50.1353C40.4478 50.1346 49.7843 40.7458 49.7849 29.1625C49.7843 17.579 40.4478 8.19003 28.9292 8.18945ZM42.3933 42.7022C38.9447 46.1688 34.1902 48.3102 28.9292 48.3106C23.6681 48.3102 18.9135 46.1688 15.4648 42.7022C12.0176 39.2342 9.88816 34.453 9.88771 29.1625C9.88816 23.8719 12.0176 19.0906 15.4648 15.6225C18.9135 12.1559 23.6681 10.0146 28.9292 10.0141C34.1902 10.0146 38.9447 12.1559 42.3933 15.6225C45.8405 19.0906 47.9699 23.8719 47.9704 29.1625C47.9699 34.453 45.8405 39.2342 42.3933 42.7022Z" fill="#2C1A0E"/>
<path d="M29 0C12.9833 0.00057747 0.000574244 13.0562 0 29.1629C0.000615238 45.2692 12.9833 58.3248 29 58.3255C45.0167 58.3249 57.9994 45.2692 58 29.1629C57.9994 13.0562 45.0167 0.00057747 29 0ZM48.2231 48.4937C43.3006 53.4423 36.51 56.5004 29 56.5008C21.49 56.5004 14.6994 53.4423 9.77691 48.4937C4.85585 43.5436 1.81492 36.7149 1.81447 29.1629C1.81492 21.6107 4.85589 14.7819 9.77691 9.83183C14.6994 4.88317 21.49 1.82512 29 1.82466C36.51 1.82512 43.3006 4.88317 48.2231 9.83183C53.1441 14.7819 56.1851 21.6107 56.1855 29.1629C56.1851 36.7149 53.1441 43.5436 48.2231 48.4937Z" fill="#2C1A0E"/>
<path d="M27.9219 20.208V28.4852H29.9379V20.208" fill="white"/>
<path d="M11.1646 56.5101L14.4354 57.7271C16.0443 58.3257 17.5025 59.2734 18.7061 60.5032L21.4746 63.3318C25.241 68.9285 28.6244 70.5722 28.6244 70.5722C29.4746 71.0087 30.0272 71.87 30.0721 72.8289L30.2716 76.8787C30.3136 77.7363 30.9427 78.4471 31.7837 78.5959C35.0125 79.1675 38.5239 79.1816 42.3323 78.9381C43.043 78.8926 43.7557 78.8398 44.4645 78.7642C44.5613 78.7286 46.4944 78.4336 46.4665 78.4382L46.4799 78.4359C47.2277 78.3082 47.7577 77.6291 47.7196 76.8668L47.5352 73.1559C47.4873 72.1343 47.7446 71.1219 48.2735 70.2485L49.1119 68.8642C49.7626 67.7898 50.0159 66.519 49.8276 65.2753L49.003 52.9836C48.6971 50.9665 47.2231 49.3281 45.2579 48.8206L44.5938 48.649C44.1836 48.5434 43.7866 48.3923 43.4095 48.1986L42.4465 47.704C41.8414 47.3934 41.1497 47.2984 40.4842 47.434L39.5887 47.6162C38.9203 47.7525 38.2263 47.6818 37.5986 47.4139L36.8786 47.1067C35.6616 46.5876 34.2785 46.6365 33.1011 47.241L32.0321 47.7894L31.2153 30.3834C31.15 28.9889 30.3891 27.8442 29.0053 27.729L28.6824 27.7442C27.3722 27.8065 26.7291 28.775 26.6644 30.3537L26.2421 45.6347L25.9268 57.2252L21.1192 54.945C19.4014 53.9033 17.452 53.3106 15.448 53.2205C15.448 53.2205 15.2869 53.2136 15.0395 53.2021C13.411 53.1258 11.8438 53.8389 10.822 55.1239L10.7918 55.1621C10.4262 55.6218 10.6156 56.3059 11.1646 56.5101Z" fill="white"/>
<path d="M27.6103 29.3608L27.5782 30.4591C27.5628 30.8332 27.7209 31.2014 28.0221 31.4214C28.1406 31.5079 28.2742 31.5788 28.4274 31.5989C29.6284 31.756 30.2755 31.2515 30.3326 30.303L30.3437 30.2743L30.3299 29.3852C30.2948 28.6402 29.9299 27.8174 29.0118 27.729L28.7936 27.7396C28.517 27.7528 27.6747 27.7927 27.6103 29.3608Z" fill="white"/>
<path d="M15.0485 57.9748C15.0485 57.9748 16.9747 56.0712 11.7402 54.229L15.0485 57.9748Z" fill="white"/>
<path d="M50.7313 65.2139L50.7338 65.2137L49.9067 52.8842L49.9009 52.846C49.5402 50.4672 47.8021 48.5353 45.4846 47.9368L44.8206 47.7652C44.4749 47.6762 44.1408 47.5491 43.8233 47.386L42.8602 46.8913C42.306 46.607 41.6963 46.4613 41.0819 46.4613C40.8226 46.4613 40.5621 46.4871 40.3045 46.5399L39.4099 46.7218C39.2474 46.7549 39.0832 46.7713 38.9191 46.7713C38.5891 46.7713 38.2606 46.7047 37.954 46.5739L37.2341 46.2667C36.5618 45.9799 35.8469 45.8371 35.1337 45.8372C34.3599 45.8371 33.5896 46.013 32.8737 46.3473L32.1226 30.3402C32.082 29.4908 31.8322 28.6718 31.3189 28.0124C30.8322 27.3786 30.0698 26.9372 29.1902 26.8397C29.1592 26.8355 29.1308 26.8237 29.0994 26.8207L29.0345 26.8145L29.0246 26.8149L29.0227 26.8148L28.6411 26.8327C28.6244 26.8335 28.6089 26.8387 28.5922 26.8397C28.571 26.8418 28.5493 26.8463 28.5254 26.8493C28.1335 26.8809 27.7555 26.9694 27.4168 27.1411C26.8539 27.4223 26.4253 27.9056 26.1678 28.4584C25.9063 29.0138 25.7877 29.6375 25.759 30.316L25.7588 30.3205L25.3363 45.6092L25.0589 55.8041L21.5303 54.1306C19.6969 53.0317 17.6223 52.4049 15.4896 52.309L15.4879 52.3089C15.4875 52.3089 15.3286 52.302 15.0826 52.2906C14.9899 52.2862 14.8968 52.284 14.8035 52.284C12.9855 52.2839 11.2585 53.1148 10.1144 54.554L10.082 54.595L10.0844 54.5921C9.82447 54.9172 9.696 55.3165 9.69727 55.6986C9.6976 56.0526 9.80142 56.3971 9.99846 56.6924C10.1944 56.9875 10.4912 57.2326 10.8506 57.3655L10.8508 57.3656L14.1217 58.5825C15.6055 59.1346 16.9505 60.0087 18.0605 61.1429L20.7768 63.9182C24.5476 69.4929 27.9747 71.2677 28.2128 71.3844V71.3845C28.7731 71.6721 29.1374 72.2399 29.1669 72.8716L29.167 72.8738L29.3665 76.9236C29.4299 78.2097 30.3728 79.2726 31.6275 79.4942C33.6768 79.8568 35.8185 79.9997 38.0562 79.9997C39.4624 79.9997 40.9067 79.9432 42.3909 79.8484C43.1077 79.8024 43.8331 79.7488 44.5612 79.6713L44.6725 79.6594L44.7223 79.641C44.7425 79.6371 44.7707 79.6319 44.8024 79.6264C44.9723 79.5963 45.2633 79.5491 45.5603 79.502V79.5192L46.6337 79.335C46.6457 79.3329 46.6564 79.3279 46.6684 79.3256C46.681 79.3229 46.6901 79.322 46.7039 79.3186C46.7084 79.3175 46.7146 79.3136 46.7192 79.3123C46.7274 79.3099 46.7355 79.3081 46.7435 79.3055C47.8528 79.0585 48.6295 78.0727 48.6298 76.9437L48.6269 76.8242L48.4423 73.1102L48.4425 73.1123C48.4393 73.046 48.4378 72.9799 48.4378 72.9143C48.4378 72.1425 48.6487 71.3843 49.0494 70.7229L49.8878 69.3386C50.4853 68.3519 50.7965 67.2239 50.7965 66.0809C50.7965 65.792 50.7713 65.5024 50.7313 65.2139ZM28.4857 30.4978L28.486 30.4905L28.518 29.3974C28.5307 29.0872 28.5812 28.8969 28.6229 28.7965C28.693 28.6471 28.6997 28.6801 28.7048 28.6689C28.7166 28.6636 28.7448 28.6538 28.8377 28.6507L28.9644 28.6446C29.0386 28.6567 29.0885 28.675 29.1264 28.6976C29.1904 28.7374 29.2549 28.8054 29.3158 28.937C29.375 29.0645 29.4162 29.246 29.4243 29.4247L29.4353 30.1295L29.4281 30.2481C29.4208 30.3701 29.3982 30.4531 29.3762 30.5045C29.3397 30.5814 29.3236 30.5969 29.2646 30.6346C29.2054 30.6689 29.0758 30.7155 28.8404 30.7155C28.7636 30.7155 28.6732 30.7084 28.5767 30.697L28.5562 30.6837C28.5273 30.6656 28.4855 30.6011 28.4854 30.5094L28.4857 30.4978ZM11.5451 55.6783C11.6629 55.5315 11.7915 55.3966 11.9256 55.2687C13.0633 55.7099 13.7359 56.1363 14.0859 56.4619C14.1862 56.5542 14.2608 56.6371 14.3164 56.7095L11.5451 55.6783ZM48.3381 68.3895L47.4997 69.7737C46.9257 70.7213 46.6233 71.808 46.6233 72.9143C46.6233 73.0093 46.6256 73.1043 46.6301 73.1991L46.6302 73.2012L46.8146 76.9121L46.8144 76.909L46.8153 76.9437C46.8155 77.2376 46.6038 77.4922 46.329 77.5362L46.328 77.5364L46.3261 77.5367C46.257 77.5471 45.7826 77.6196 45.308 77.6948C45.0708 77.7323 44.8347 77.7703 44.6481 77.8018C44.5545 77.8176 44.4738 77.8316 44.4073 77.844L44.3232 77.8605C43.6486 77.9315 42.9647 77.9833 42.2756 78.0274C40.8205 78.1204 39.414 78.1751 38.0562 78.1751C35.8953 78.1752 33.8583 78.0365 31.942 77.6972C31.5146 77.6212 31.1995 77.2626 31.1788 76.8336L30.9793 72.7835L30.9794 72.7857C30.919 71.4996 30.1781 70.3449 29.038 69.7594L29.0276 69.7541L29.0221 69.7514C29.0204 69.7506 28.9758 69.7285 28.8844 69.6766C28.2338 69.3059 25.3894 67.5179 22.227 62.8202L22.1805 62.7511L19.3537 59.863C18.4427 58.9322 17.3906 58.1615 16.2478 57.5556C16.2787 57.4145 16.3019 57.2648 16.3021 57.0981C16.3032 56.7819 16.2288 56.4306 16.063 56.0918C15.8133 55.5803 15.38 55.1061 14.7366 54.66C14.5109 54.5039 14.2467 54.3508 13.9631 54.1988C14.2378 54.142 14.5186 54.1086 14.8035 54.1086C14.8678 54.1086 14.9328 54.1101 14.9983 54.1132C15.2443 54.1247 15.4041 54.1316 15.4088 54.1318C17.2615 54.2152 19.0637 54.763 20.6517 55.7261L20.6916 55.7503L26.7968 58.6459L27.15 45.6594L27.5225 32.1818C27.7086 32.3132 27.9678 32.4582 28.311 32.5042C28.492 32.5278 28.668 32.5402 28.8404 32.5402C29.1531 32.54 29.4557 32.4996 29.7433 32.4055C29.9738 32.3317 30.1922 32.2149 30.3872 32.067L31.1931 49.2443L33.5144 48.0535C34.0221 47.7928 34.577 47.6619 35.1337 47.6618C35.6065 47.6619 36.0797 47.7563 36.5254 47.9464L37.2452 48.2536C37.7771 48.4805 38.3466 48.596 38.9191 48.596C39.2033 48.596 39.4884 48.5675 39.7699 48.5102L40.6651 48.3281C40.8033 48.2998 40.9426 48.2859 41.0819 48.2859C41.4112 48.2859 41.7381 48.364 42.0352 48.5164L42.9979 49.0109C43.4344 49.2352 43.8945 49.4103 44.3698 49.5327L45.0333 49.7041C46.6396 50.1188 47.8448 51.4548 48.1026 53.1009L48.926 65.3745L48.9317 65.4123C48.9654 65.6348 48.982 65.8583 48.982 66.0809C48.982 66.891 48.7615 67.6904 48.3381 68.3895Z" fill="#2C1A0E"/>
</svg>
