<svg width="13" height="13" viewBox="0 0 13 13" fill="none" xmlns="http://www.w3.org/2000/svg">
<path d="M7.46128 6.5L12.3319 0.694238C12.4135 0.597754 12.3449 0.451172 12.2187 0.451172H10.738C10.6508 0.451172 10.5673 0.490137 10.5098 0.556934L6.49273 5.3459L2.47564 0.556934C2.41997 0.490137 2.33648 0.451172 2.24741 0.451172H0.76675C0.640578 0.451172 0.571926 0.597754 0.653567 0.694238L5.52417 6.5L0.653567 12.3058C0.635278 12.3273 0.623546 12.3536 0.619761 12.3815C0.615977 12.4095 0.620299 12.438 0.632216 12.4636C0.644133 12.4892 0.663144 12.5108 0.686991 12.5259C0.710838 12.541 0.73852 12.549 0.76675 12.5488H2.24741C2.33462 12.5488 2.41812 12.5099 2.47564 12.4431L6.49273 7.6541L10.5098 12.4431C10.5655 12.5099 10.649 12.5488 10.738 12.5488H12.2187C12.3449 12.5488 12.4135 12.4022 12.3319 12.3058L7.46128 6.5Z" fill="#7D7D7D"/>
</svg>
