<svg width="80" height="80" viewBox="0 0 80 80" fill="none" xmlns="http://www.w3.org/2000/svg">
<path d="M31.223 41.3894H16.3637C14.0535 41.3894 12.1807 39.5001 12.1807 37.1695V12.5911C12.1807 10.2604 14.0535 8.37109 16.3637 8.37109H31.223V41.3894Z" fill="#0065A8"/>
<path d="M66.2264 32.4677H51.7925C50.1176 32.4677 48.7598 31.0979 48.7598 29.4082V14.8466C48.7598 13.1569 50.1176 11.7871 51.7925 11.7871H66.2264C67.9013 11.7871 69.2591 13.1569 69.2591 14.8466V29.4082C69.2591 31.0979 67.9013 32.4677 66.2264 32.4677Z" fill="#0065A8"/>
<path d="M59.0079 34.2827C56.0518 34.2833 53.6568 36.6994 53.6562 39.6817C53.6568 42.6634 56.0518 45.0794 59.0079 45.08C61.9634 45.0793 64.3582 42.6634 64.3588 39.6817C64.3583 36.6995 61.9634 34.2833 59.0079 34.2827ZM61.5104 42.2063C60.867 42.8539 59.988 43.2516 59.0079 43.2521C58.0274 43.2516 57.1482 42.8539 56.5048 42.2063C55.8628 41.5572 55.4685 40.6704 55.4681 39.6817C55.4685 38.6925 55.8628 37.8055 56.5048 37.1565C57.1482 36.5088 58.0274 36.111 59.0079 36.1106C59.988 36.111 60.867 36.5088 61.5104 37.1564C62.1522 37.8055 62.5465 38.6925 62.547 39.6817C62.5465 40.6704 62.1523 41.5573 61.5104 42.2063Z" fill="#2C1A0E"/>
<path d="M69.436 51.5663H63.947C62.8302 51.5658 61.8277 51.1123 61.095 50.3746C60.5684 49.8423 60.1912 49.1674 60.0194 48.4113H69.8148C72.2276 48.4108 74.1822 46.4389 74.1827 44.0047V11.1804C74.1822 8.74621 72.2276 6.77431 69.8148 6.77378H59.8397C59.4003 3.78133 56.8519 1.48342 53.7634 1.48288H43.6177C40.2205 1.48346 37.4678 4.26051 37.4673 7.68773V49.1588C37.4668 50.9577 36.747 52.5781 35.5787 53.758C34.409 54.9365 32.8027 55.6627 31.0192 55.6632H23.4181C21.6349 55.6627 20.0288 54.9365 18.8592 53.758C17.8977 52.7869 17.2476 51.5149 17.0447 50.0932H27.0401C29.8508 50.0925 32.1282 47.7949 32.1289 44.9594V5.13384C32.1282 2.29824 29.8508 0.00066114 27.0401 0H10.7842H9.73375H9.4939H8.95249H5.08884C2.2781 0.00066114 0.000655345 2.29824 0 5.13384V7.47786V9.30572V40.4959V41.4098V42.3238V44.9594C0.000655345 47.7949 2.2781 50.0925 5.08884 50.0932H8.94786H10.7781H15.2141C15.6754 54.2546 19.1699 57.4905 23.4181 57.491H31.0192C35.5814 57.4905 39.2785 53.7608 39.2791 49.1588V7.68773C39.2795 6.47611 39.7633 5.38767 40.5498 4.59272C41.3378 3.79922 42.4167 3.31119 43.6177 3.31074H53.7634C54.9643 3.31119 56.0432 3.79922 56.8312 4.59272C57.4139 5.18157 57.8289 5.93201 58.0059 6.77378H48.201C45.7882 6.77431 43.8336 8.74621 43.833 11.1804V44.0047C43.8336 46.4389 45.7882 48.4108 48.201 48.4113H58.1793C58.6158 51.2331 61.0273 53.3936 63.947 53.3941H69.436C71.8555 53.3946 74.0378 54.381 75.6245 55.9804C77.2099 57.5812 78.1877 59.7828 78.1882 62.2237C78.1877 64.6649 77.2099 66.8667 75.6245 68.4676C74.0378 70.067 71.8555 71.0535 69.436 71.0539H57.238C57.0844 70.1953 56.72 69.3849 56.1984 68.6608C55.1395 67.1923 53.4651 66.0315 51.4201 65.2146C49.3728 64.4004 46.9423 63.9357 44.3327 63.935C41.7727 63.9356 39.3857 64.3832 37.364 65.1691C35.518 65.8895 33.9739 66.8909 32.8924 68.1391H30.8449C29.6302 68.1394 28.6464 69.1319 28.646 70.3574V73.3959C28.6464 74.6213 29.6302 75.6138 30.8449 75.6142H32.7373C33.7947 76.9142 35.3466 77.9567 37.2156 78.7082C39.2689 79.53 41.7102 79.9993 44.3327 80C47.8123 79.9975 50.9727 79.1773 53.3324 77.7905C54.5114 77.0952 55.494 76.2545 56.1984 75.2748C56.72 74.5508 57.0844 73.7404 57.238 72.8818L69.436 72.8818C75.2703 72.8812 79.9994 68.1103 80 62.2237C79.9993 56.3377 75.2703 51.5669 69.436 51.5663ZM1.81184 5.13384C1.81229 4.21812 2.17722 3.39738 2.77172 2.79622C3.36761 2.19647 4.18114 1.82831 5.08884 1.82786H8.70691C8.58719 2.88267 8.40226 4.74796 8.2248 7.47786H8.22254H1.8118L1.81184 5.13384ZM1.8118 9.30572H8.11241H8.11532C7.90209 13.1656 7.72425 18.3877 7.72425 25.0949C7.72425 31.5483 7.89771 36.6535 8.10676 40.4959H8.10311H1.8118V9.30572ZM2.77172 47.2969C2.17722 46.6958 1.81229 45.8751 1.81184 44.9594V42.3238H8.21107H8.21329C8.39616 45.1965 8.58858 47.1676 8.71059 48.2653H5.08884C4.18114 48.2649 3.36761 47.8967 2.77172 47.2969ZM10.5341 48.2653C10.4074 47.1582 10.1768 44.8713 9.96897 41.3554C9.73871 37.4586 9.53609 32.061 9.53609 25.0949C9.53609 17.8477 9.74452 12.3487 9.97925 8.44958L9.97937 8.44726C10.132 5.91511 10.2956 4.05846 10.4206 2.83833C10.4626 2.4279 10.4997 2.09573 10.5311 1.82786H27.0401C27.9477 1.82831 28.7613 2.19647 29.3572 2.79622C29.9517 3.39738 30.3166 4.21812 30.3171 5.13384V44.9594C30.3166 45.8751 29.9517 46.6958 29.3572 47.2969C28.7613 47.8967 27.9477 48.2649 27.0401 48.2653H10.5341ZM46.3935 45.8282C45.9295 45.3587 45.6453 44.7198 45.6449 44.0047V11.1804C45.6453 10.4652 45.9295 9.82635 46.3935 9.35688C46.8588 8.88881 47.4921 8.60209 48.201 8.60163H69.8148C70.5236 8.60209 71.1569 8.88881 71.6223 9.35688C72.0862 9.82635 72.3704 10.4652 72.3709 11.1804V44.0047C72.3704 44.7198 72.0862 45.3587 71.6223 45.8282C71.1569 46.2963 70.5236 46.583 69.8148 46.5834H48.201C47.4921 46.583 46.8588 46.2963 46.3935 45.8282ZM54.731 74.2027C53.9559 75.2891 52.5665 76.3021 50.755 77.0203C48.9459 77.7411 46.7274 78.1728 44.3327 78.1721C41.9262 78.1728 39.698 77.7367 37.8844 77.0094C36.0683 76.2847 34.6801 75.2632 33.913 74.1699L33.6421 73.7863H30.8449C30.631 73.7859 30.4582 73.6117 30.4578 73.3959V70.3574C30.4582 70.1416 30.631 69.9673 30.8449 69.9669H33.7574L34.0294 69.6103C34.8343 68.5495 36.2249 67.5687 38.0159 66.8745C39.8049 66.1778 41.9836 65.7623 44.3327 65.7629C47.5255 65.7604 50.4057 66.5336 52.4187 67.7232C53.426 68.316 54.2127 69.0093 54.731 69.7329C55.2503 70.4597 55.5068 71.1997 55.5082 71.9679C55.5068 72.736 55.2503 73.4759 54.731 74.2027Z" fill="#2C1A0E"/>
</svg>
