<svg width="39" height="39" viewBox="0 0 39 39" fill="none" xmlns="http://www.w3.org/2000/svg">
<circle cx="19.5" cy="19.5" r="19.5" fill="#3B5998"/>
<g clip-path="url(#clip0)">
<path d="M23.6516 11.4149L21.6571 11.4116C19.4164 11.4116 17.9684 12.9185 17.9684 15.2508V17.0209H15.963C15.7897 17.0209 15.6494 17.1634 15.6494 17.3392V19.9039C15.6494 20.0796 15.7899 20.222 15.963 20.222H17.9684V26.6935C17.9684 26.8693 18.1087 27.0116 18.282 27.0116H20.8984C21.0716 27.0116 21.212 26.8691 21.212 26.6935V20.222H23.5567C23.73 20.222 23.8703 20.0796 23.8703 19.9039L23.8712 17.3392C23.8712 17.2548 23.8381 17.174 23.7794 17.1142C23.7207 17.0545 23.6407 17.0209 23.5575 17.0209H21.212V15.5204C21.212 14.7991 21.3814 14.433 22.3077 14.433L23.6512 14.4325C23.8244 14.4325 23.9647 14.29 23.9647 14.1144V11.733C23.9647 11.5575 23.8245 11.4152 23.6516 11.4149Z" fill="white"/>
</g>
<defs>
<clipPath id="clip0">
<rect width="15.3803" height="15.6" fill="white" transform="translate(12.1162 11.4116)"/>
</clipPath>
</defs>
</svg>
