<svg width="14" height="22" viewBox="0 0 14 22" fill="none" xmlns="http://www.w3.org/2000/svg">
<path d="M7 0.611328C3.4094 0.611328 0.5 3.50903 0.5 7.09833C0.5 13.3045 7 21.3983 7 21.3983C7 21.3983 13.5 13.3032 13.5 7.09833C13.5 3.51033 10.5906 0.611328 7 0.611328ZM7 10.6876C6.06909 10.6876 5.17631 10.3178 4.51805 9.65957C3.8598 9.00132 3.49 8.10854 3.49 7.17763C3.49 6.24672 3.8598 5.35394 4.51805 4.69568C5.17631 4.03743 6.06909 3.66763 7 3.66763C7.93091 3.66763 8.82369 4.03743 9.48194 4.69568C10.1402 5.35394 10.51 6.24672 10.51 7.17763C10.51 8.10854 10.1402 9.00132 9.48194 9.65957C8.82369 10.3178 7.93091 10.6876 7 10.6876Z" fill="#0066B3"/>
</svg>
