<svg width="110" height="70" viewBox="0 0 110 70" fill="none" xmlns="http://www.w3.org/2000/svg">
<path d="M18.6745 30.1978C18.7349 30.1745 18.7893 30.1427 18.844 30.1114C19.3895 29.8009 19.6446 29.1304 19.4134 28.5231C16.0165 19.6116 19.4158 9.51555 27.3208 5.03928C30.148 3.43827 33.3677 2.59193 36.6313 2.59193C45.0356 2.59193 52.3482 8.02697 54.8271 16.1165C54.9938 16.6593 55.4918 17.0299 56.0551 17.0299C56.6187 17.0299 57.1167 16.6593 57.2832 16.1165C59.7615 8.02697 67.0743 2.59193 75.4789 2.59193C78.0501 2.59193 80.5439 3.09956 82.8901 4.10044C91.9803 7.97656 96.3624 18.9646 92.6593 28.5943C89.5857 36.5861 80.751 52.1642 56.0353 67.1815C43.523 59.5802 33.7157 51.0495 26.8767 41.8167C26.4853 41.2875 25.7714 41.1529 25.2171 41.4694C25.1702 41.496 25.1224 41.5204 25.0779 41.5536C24.509 41.9821 24.3923 42.7941 24.8172 43.3676C31.9633 53.015 42.2173 61.893 55.2962 69.7566C55.5143 69.9111 55.7785 70 56.0551 70C56.3729 70 56.6698 69.882 56.8978 69.6826C66.5428 63.8707 73.868 57.9463 79.4268 52.3708C84.8625 46.9183 88.6032 41.8029 91.1766 37.4485H90.9588C90.2488 37.4485 89.6736 36.8683 89.6736 36.1526C89.6736 35.437 90.2488 34.8568 90.9588 34.8568H92.6249C93.6777 32.8523 94.4688 31.0577 95.0558 29.5312C99.2563 18.6087 94.2482 6.12962 83.8918 1.7129C81.2267 0.57632 78.3962 0 75.4789 0C67.0735 0 59.6302 4.79087 56.0551 12.2116C52.48 4.79003 45.037 0 36.6313 0C32.9279 0 29.2726 0.960998 26.0623 2.77942C18.6767 6.96156 14.7399 15.4211 15.6789 23.9009C15.8852 25.7656 16.3192 27.6313 17.0136 29.4531C17.2682 30.1211 18.0114 30.4551 18.6745 30.1978Z" fill="#2C1A0E"/>
<path d="M81.3746 7.52344C87.6068 10.1813 91.2017 16.934 90.1165 23.9449C90.0069 24.6519 90.4867 25.3146 91.1879 25.4249C91.2552 25.4357 91.3217 25.4406 91.3879 25.4406C92.01 25.4406 92.5572 24.9837 92.656 24.3442C93.9236 16.1566 89.6962 8.25818 82.376 5.13618C81.7223 4.85785 80.9681 5.16582 80.6917 5.82522C80.4151 6.48435 80.7211 7.24456 81.3746 7.52344Z" fill="#2C1A0E"/>
<path d="M76.9754 6.3897C77.6788 6.45895 78.3125 5.94342 78.3836 5.23065C78.4556 4.5187 77.9411 3.88266 77.2346 3.81008C76.6307 3.74831 76.0151 3.71729 75.4056 3.71729C72.7444 3.71729 70.1828 4.29238 67.7921 5.42622C67.1499 5.73123 66.8741 6.50356 67.1763 7.15124C67.3954 7.62078 67.858 7.89587 68.3403 7.89587C68.5235 7.89587 68.7097 7.85625 68.8866 7.77259C71.4018 6.57891 74.1974 6.10493 76.9754 6.3897Z" fill="#2C1A0E"/>
<path d="M25.9102 36.6786L28.1778 31.5341L29.8404 36.5623C30.0154 37.0915 30.5065 37.4482 31.0597 37.4482H35.6453L38.9196 44.877C39.1349 45.3658 39.6236 45.671 40.1559 45.6449C40.686 45.6192 41.1453 45.268 41.3131 44.7607L43.7304 37.4482H47.3218C47.8576 37.4482 48.3369 37.1131 48.5248 36.6074L52.6314 25.5662L56.0324 36.539C56.2002 37.0802 56.6968 37.4482 57.2593 37.4482H60.8201L63.2559 45.6341C63.4188 46.1819 63.9192 46.5575 64.487 46.5575C65.0547 46.5575 65.5549 46.1819 65.7178 45.6341L68.4282 36.5249C68.6323 35.8395 68.2467 35.1166 67.5668 34.9111C66.8851 34.7045 66.1701 35.0948 65.9663 35.7799L64.487 40.7516L63.0076 35.7799C62.8447 35.2318 62.3443 34.8566 61.7765 34.8566H58.2039L53.9685 21.1913C53.8051 20.6629 53.3263 20.2979 52.7778 20.2824C52.2444 20.2738 51.731 20.6045 51.5385 21.1229L46.4307 34.8566H42.8043C42.2511 34.8566 41.76 35.2136 41.585 35.7425L39.9224 40.7707L37.6548 35.6262C37.4485 35.1582 36.9884 34.8566 36.4803 34.8566H31.9861L29.5685 27.5444C29.4007 27.0368 28.9414 26.6856 28.4113 26.6596C27.8856 26.6347 27.3901 26.9393 27.1747 27.4278L23.9007 34.8566H21.5066H15.6328L12.3585 27.4278C12.1522 26.9598 11.6919 26.6582 11.184 26.6582C10.6761 26.6582 10.2158 26.9598 10.0095 27.4278L6.73518 34.8566H1.28545C0.575433 34.8566 0 35.4371 0 36.1527C0 36.8683 0.575433 37.4482 1.28545 37.4482H7.57045C8.07831 37.4482 8.53839 37.1466 8.74466 36.6786L11.184 31.1453L13.6233 36.6786C13.8296 37.1466 14.2897 37.4482 14.7976 37.4482H22.9607H24.7357C25.2435 37.4482 25.7039 37.1466 25.9102 36.6786Z" fill="#0065A8"/>
<path d="M90.9573 34.8563C90.2473 34.8563 89.6719 35.4367 89.6719 36.1524C89.6719 36.868 90.2473 37.4479 90.9573 37.4479H91.1749H97.9122C98.4377 37.4479 98.9104 37.1256 99.1054 36.6337L101.352 30.9696L103.005 36.5243C103.168 37.0727 103.668 37.4479 104.236 37.4479H108.714C109.424 37.4479 110 36.868 110 36.1524C110 35.4367 109.424 34.8563 108.714 34.8563H105.193L102.757 26.6706C102.6 26.1427 102.13 25.7727 101.584 25.7481C101.042 25.7215 100.536 26.0497 100.333 26.5615L97.0418 34.8563H92.6232H90.9573Z" fill="#0065A8"/>
</svg>
