<svg width="122" height="62" viewBox="0 0 122 62" fill="none" xmlns="http://www.w3.org/2000/svg">
<path d="M10.4072 27.8263C10.4072 34.1769 29.7782 39.4079 54.7264 40.12C34.7922 38.6522 20.3615 34.3634 20.3615 29.3005C20.3615 21.436 42.5146 17.2423 69.8438 17.2423C79.8134 17.2423 89.0972 18.0127 96.8652 19.2957C87.7312 16.9282 74.8364 15.4512 60.5429 15.4512C32.8549 15.4512 10.4072 20.9917 10.4072 27.8263Z" fill="#0065A8"/>
<path d="M34.6919 22.6819C34.9294 22.7004 35.1668 22.7087 35.407 22.7087C35.6767 22.7087 35.916 22.7004 36.1212 22.6819C36.3273 22.6644 36.5216 22.6431 36.7066 22.6191C36.4139 23.578 36.1313 24.5848 35.8617 25.6406C35.5911 26.6955 35.3444 27.7236 35.1218 28.7249C34.899 29.7272 34.7085 30.6684 34.5447 31.5496C34.3827 32.4309 34.2621 33.1726 34.1886 33.7703C33.906 33.7454 33.6566 33.7315 33.4412 33.7315H32.7887H32.1233C31.884 33.7315 31.6797 33.7454 31.5049 33.7703C31.6364 33.3675 31.7598 32.9509 31.8785 32.5214C31.9972 32.0919 32.1289 31.5986 32.2687 31.0444C32.4105 30.4883 32.5605 29.8463 32.7234 29.1175C32.8872 28.3887 33.0759 27.5176 33.293 26.5052C33.4228 25.9066 33.5323 25.3976 33.6188 24.9783C33.7054 24.5599 33.7772 24.2005 33.8305 23.9012C33.883 23.6019 33.9244 23.3516 33.9511 23.1512C33.9787 22.9489 34.0017 22.7725 34.0247 22.6191C34.23 22.6431 34.4526 22.6644 34.6919 22.6819Z" fill="#0065A8"/>
<path d="M43.7003 27.9348C43.6893 28.0706 43.6644 28.2369 43.6267 28.4327C43.5871 28.6285 43.5365 28.8687 43.472 29.1514C43.4076 29.434 43.3193 29.7989 43.2116 30.2451C43.1141 30.6478 43.0303 31.0006 42.9595 31.3055C42.8895 31.6103 42.8269 31.8985 42.7726 32.171C42.7193 32.4426 42.6705 32.7068 42.6272 32.9626C42.584 33.2185 42.5352 33.4873 42.48 33.77C42.2968 33.745 42.1136 33.7321 41.9278 33.7321H41.2771H40.6356C40.4359 33.7321 40.2417 33.745 40.0586 33.77C40.1019 33.672 40.1699 33.4744 40.262 33.1742C40.3531 32.8758 40.458 32.5331 40.5712 32.1461C40.6844 31.7609 40.7976 31.3489 40.9126 30.9138C41.0258 30.4787 41.1317 30.0649 41.2292 29.6732C41.3259 29.2816 41.4087 28.9306 41.4713 28.6203C41.5385 28.3099 41.5707 28.0845 41.5707 27.9431C41.5707 27.6383 41.486 27.4093 41.3167 27.2578C41.1519 27.1053 40.9219 27.0296 40.6264 27.0296C40.238 27.0296 39.8496 27.1977 39.4659 27.5349C39.0812 27.873 38.7756 28.4004 38.5465 29.1181C38.4609 29.3906 38.3689 29.712 38.2704 30.0816C38.1728 30.451 38.0799 30.8454 37.986 31.2639C37.894 31.6833 37.8084 32.1128 37.7256 32.5543C37.6446 32.9959 37.5783 33.4005 37.524 33.77C37.339 33.745 37.1522 33.7321 36.9635 33.7321H36.4021H35.8003C35.595 33.7321 35.3999 33.745 35.2158 33.77C35.3566 33.2702 35.4965 32.7419 35.6382 32.1867C35.7791 31.6325 35.9208 31.0422 36.0607 30.4169C36.2034 29.7906 36.3451 29.1126 36.4923 28.3837C36.6377 27.6549 36.7923 26.8504 36.9543 25.9683C37.1163 25.9913 37.305 26.0098 37.5148 26.0265C37.7256 26.0421 37.9308 26.0514 38.124 26.0514C38.31 26.0514 38.4876 26.0421 38.6606 26.0265C38.8327 26.0098 39.002 25.9913 39.1649 25.9683C39.1207 26.1105 39.0839 26.2333 39.0517 26.3359C39.0196 26.4393 38.991 26.54 38.9689 26.6379C38.9478 26.7359 38.9247 26.8393 38.8971 26.9483C38.8705 27.0564 38.8401 27.1866 38.8079 27.3399C39.1981 26.8504 39.6196 26.4725 40.0751 26.2056C40.5298 25.9396 41.0829 25.8057 41.7317 25.8057C42.4156 25.8057 42.9171 25.9683 43.2365 26.2953C43.5549 26.6213 43.7169 27.0296 43.7169 27.5201C43.7169 27.6605 43.7095 27.8 43.7003 27.9348Z" fill="#0065A8"/>
<path d="M47.0275 33.9011C46.8103 33.9491 46.5728 33.975 46.3124 33.975C46.0427 33.975 45.7869 33.9363 45.5485 33.8605C45.311 33.7838 45.0985 33.6758 44.9135 33.5344C44.7303 33.3931 44.5849 33.2111 44.4754 32.9885C44.3668 32.7659 44.3134 32.5137 44.3134 32.231C44.3134 32.1008 44.319 31.9705 44.3291 31.8403C44.3402 31.71 44.3613 31.5632 44.3944 31.3997C44.4266 31.2371 44.4644 31.0533 44.5076 30.8454C44.5527 30.6395 44.6061 30.3901 44.6705 30.0963C44.7892 29.5421 44.9117 28.9943 45.0359 28.4512C45.162 27.9071 45.2834 27.3603 45.4022 26.8051C45.2513 26.8051 45.0902 26.8079 44.9227 26.8134C44.7533 26.8189 44.5454 26.8273 44.2969 26.8383C44.3402 26.697 44.3742 26.5733 44.3944 26.4698C44.4156 26.3663 44.4423 26.201 44.4763 25.971C44.5951 25.9793 44.7064 25.9867 44.8095 25.9904C44.9117 25.9941 45.0073 25.9959 45.0929 25.9959H45.566C45.6074 25.7576 45.6525 25.4832 45.6958 25.1729C45.7372 24.8635 45.7869 24.5346 45.8412 24.1863C46.1127 24.0884 46.3428 24.0044 46.5314 23.9333C46.7219 23.8631 46.9014 23.7919 47.0763 23.7218C47.2502 23.6506 47.4287 23.5693 47.6137 23.4769C47.7969 23.3837 48.0196 23.2719 48.2782 23.1426L48.4098 23.2895C48.3215 23.5499 48.2497 23.7864 48.189 23.9989C48.1291 24.2104 48.0739 24.4201 48.0196 24.6261C47.9662 24.8339 47.9156 25.0454 47.8723 25.2625C47.8291 25.4805 47.7803 25.7243 47.7269 25.9959H48.327C48.4365 25.9959 48.5607 25.9941 48.7006 25.9904C48.8433 25.9867 48.9997 25.9793 49.1719 25.971C49.1074 26.1243 49.0642 26.2768 49.0421 26.4292C49.0209 26.5816 49.0025 26.7183 48.9942 26.8383C48.8433 26.8245 48.7006 26.8153 48.5718 26.8088C48.4402 26.8023 48.316 26.7995 48.1972 26.7995H47.565C47.5198 26.9945 47.448 27.3187 47.3441 27.7694C47.241 28.2211 47.1352 28.6932 47.0275 29.1883C46.9179 29.6825 46.8204 30.1398 46.7348 30.5582C46.6483 30.9767 46.594 31.251 46.5728 31.3821C46.5167 31.6528 46.4808 31.8671 46.4578 32.0251C46.4375 32.183 46.4256 32.3327 46.4256 32.474C46.4256 32.7677 46.5048 32.9737 46.6621 33.0928C46.8185 33.212 47.0385 33.2721 47.3201 33.2721C47.4932 33.2721 47.6616 33.2508 47.8235 33.2074L47.6782 33.745C47.461 33.8005 47.2428 33.8512 47.0275 33.9011Z" fill="#0065A8"/>
<path d="M53.4847 26.8991C53.343 26.6386 53.0733 26.5065 52.6721 26.5065C52.4005 26.5065 52.1649 26.5832 51.9661 26.7365C51.7646 26.888 51.5915 27.0894 51.4443 27.3406C51.2989 27.591 51.1765 27.8764 51.0799 28.1988C50.9823 28.5193 50.8949 28.8435 50.8194 29.1696C50.905 29.1825 50.9989 29.1917 51.0955 29.1991C51.1931 29.2056 51.2842 29.2084 51.3725 29.2084H51.9726H52.6398C52.7585 29.2084 52.8929 29.2056 53.0457 29.1991C53.1975 29.1917 53.3604 29.1825 53.5335 29.1696C53.5656 29.0282 53.6015 28.838 53.6393 28.5978C53.6771 28.3586 53.6954 28.0971 53.6954 27.8136C53.6954 27.4653 53.6246 27.1605 53.4847 26.8991ZM54.6995 32.6095C54.6443 32.761 54.5734 32.9882 54.4897 33.2894C54.1409 33.536 53.7562 33.6976 53.3337 33.7725C52.9113 33.8473 52.4833 33.8852 52.0499 33.8852C51.4213 33.8852 50.8747 33.7901 50.4071 33.5997C49.9415 33.4094 49.5604 33.1462 49.2604 32.8091C48.9641 32.471 48.7413 32.083 48.5959 31.6424C48.4478 31.2018 48.376 30.7427 48.376 30.2633C48.376 29.7303 48.4643 29.1973 48.6438 28.6643C48.8242 28.1313 49.092 27.6528 49.4472 27.2288C49.8071 26.8049 50.2507 26.4594 50.7808 26.1933C51.3118 25.9273 51.9303 25.7925 52.6343 25.7925C53.6412 25.7925 54.4032 26.0631 54.9176 26.6017C55.4312 27.1393 55.6888 27.844 55.6888 28.7161C55.6888 28.922 55.676 29.1317 55.6493 29.3441C55.6217 29.5557 55.5913 29.7663 55.5591 29.9732C54.8762 29.952 54.3028 29.9372 53.8372 29.9252C53.3715 29.915 52.9582 29.9095 52.6003 29.9095H51.8529H51.3495C51.1646 29.9095 50.9482 29.9141 50.7007 29.9215C50.6786 30.0527 50.6621 30.1959 50.6519 30.3483C50.6409 30.5007 50.6354 30.6531 50.6354 30.8055C50.6354 31.4613 50.7881 31.986 51.09 32.3786C51.3946 32.7712 51.8888 32.9679 52.5699 32.9679C52.8736 32.9679 53.2113 32.9005 53.585 32.7638C53.9596 32.628 54.3028 32.3962 54.6167 32.071L54.8615 32.1846C54.8072 32.3158 54.752 32.4571 54.6995 32.6095Z" fill="#0065A8"/>
<path d="M58.7169 21.5398C58.9184 21.5546 59.143 21.562 59.3923 21.562C59.6187 21.562 59.8277 21.5574 60.0182 21.5463C60.2068 21.5371 60.4102 21.5168 60.6275 21.4854C60.4977 22.0082 60.3725 22.5023 60.2538 22.9698C60.1332 23.439 60.0145 23.9092 59.8958 24.3812C59.7771 24.8551 59.6565 25.3447 59.5387 25.8509C59.42 26.3561 59.2939 26.9085 59.1641 27.5053C58.9488 28.5611 58.7334 29.603 58.5226 30.6302C58.311 31.6583 58.1131 32.704 57.93 33.7709C57.7459 33.745 57.5517 33.7321 57.3529 33.7321H56.6608H56.0442C55.8482 33.7321 55.6429 33.745 55.4258 33.7709C55.5785 33.2915 55.7405 32.7132 55.9145 32.0333C56.0874 31.3534 56.2596 30.6329 56.4344 29.8718C56.6065 29.1107 56.7777 28.3301 56.9461 27.5302C57.1136 26.7311 57.2738 25.959 57.4247 25.2135C57.5775 24.4681 57.7119 23.7725 57.8324 23.125C57.9511 22.4784 58.0477 21.9315 58.1251 21.4854C58.3193 21.5066 58.5171 21.5241 58.7169 21.5398Z" fill="#0065A8"/>
<path d="M62.5879 21.5398C62.7876 21.5546 63.0122 21.562 63.2615 21.562C63.4888 21.562 63.6969 21.5574 63.8874 21.5463C64.0779 21.5371 64.2795 21.5168 64.4966 21.4854C64.3678 22.0082 64.2417 22.5023 64.123 22.9698C64.0024 23.439 63.8837 23.9092 63.7649 24.3812C63.6462 24.8551 63.5266 25.3447 63.4079 25.8509C63.2892 26.3561 63.1649 26.9085 63.0333 27.5053C62.8179 28.5611 62.6026 29.603 62.3918 30.6302C62.182 31.6583 61.9823 32.704 61.7991 33.7709C61.6132 33.745 61.4227 33.7321 61.2221 33.7321H60.5318H59.9134C59.7192 33.7321 59.5121 33.745 59.2949 33.7709C59.4459 33.2915 59.6097 32.7132 59.7836 32.0333C59.9567 31.3534 60.1306 30.6329 60.3036 29.8718C60.4776 29.1107 60.6488 28.3301 60.8153 27.5302C60.9828 26.7311 61.143 25.959 61.2939 25.2135C61.4467 24.4681 61.581 23.7725 61.6997 23.125C61.8203 22.4784 61.9169 21.9315 61.9934 21.4854C62.1884 21.5066 62.3863 21.5241 62.5879 21.5398Z" fill="#0065A8"/>
<path d="M65.589 24.9508C65.7906 24.9666 66.0041 24.9758 66.2324 24.9758C66.5131 24.9758 66.7487 24.9666 66.9373 24.9508C67.1278 24.9342 67.3036 24.9157 67.4656 24.8936C67.3579 25.2418 67.2189 25.7443 67.0524 26.4029C66.8848 27.0597 66.5646 28.3123 66.398 29.0734C66.2287 29.8355 65.9719 31.1278 65.8302 31.8788C65.6893 32.6297 65.5872 33.2597 65.5228 33.7706C65.3397 33.7456 65.1482 33.7318 64.954 33.7318H64.3043H63.6297C63.4281 33.7318 63.2413 33.7456 63.0674 33.7706C63.2303 33.2274 63.4015 32.5909 63.5791 31.8612C63.7594 31.1333 64.031 29.8641 64.1874 29.1298C64.343 28.3963 64.6365 27.1576 64.7608 26.4999C64.8841 25.8423 64.9687 25.3065 65.012 24.8936C65.197 24.9157 65.3894 24.9342 65.589 24.9508Z" fill="#0065A8"/>
<path d="M65.6138 22.0698C65.3754 22.3155 65.2559 22.6074 65.2559 22.9455C65.2559 23.2836 65.3754 23.5754 65.6138 23.8202C65.8531 24.0659 66.1467 24.187 66.4946 24.187C66.8397 24.187 67.1342 24.0677 67.3726 23.8276C67.6128 23.5883 67.7315 23.2947 67.7315 22.9455C67.7315 22.5963 67.6128 22.3017 67.3726 22.0624C67.1342 21.8232 66.8397 21.7021 66.4946 21.7021C66.1467 21.7021 65.8531 21.825 65.6138 22.0698Z" fill="#0065A8"/>
<path d="M97.1742 22.0698C96.9347 22.3155 96.8174 22.6074 96.8174 22.9455C96.8174 23.2836 96.9347 23.5754 97.1742 23.8202C97.4131 24.0659 97.7057 24.187 98.055 24.187C98.4015 24.187 98.6955 24.0677 98.9337 23.8276C99.1732 23.5883 99.294 23.2947 99.294 22.9455C99.294 22.5963 99.1732 22.3017 98.9337 22.0624C98.6955 21.8232 98.4015 21.7021 98.055 21.7021C97.7057 21.7021 97.4131 21.825 97.1742 22.0698Z" fill="#0065A8"/>
<path d="M70.5451 33.9011C70.3297 33.9491 70.0904 33.975 69.8318 33.975C69.5603 33.975 69.3044 33.9363 69.0652 33.8605C68.8286 33.7838 68.616 33.6758 68.4329 33.5344C68.2479 33.3931 68.1025 33.2111 67.993 32.9885C67.8844 32.7659 67.831 32.5137 67.831 32.231C67.831 32.1008 67.8365 31.9705 67.8466 31.8403C67.8577 31.71 67.8798 31.5632 67.912 31.3997C67.946 31.2371 67.9838 31.0533 68.027 30.8454C68.0703 30.6395 68.1237 30.3901 68.1881 30.0963C68.3087 29.5421 68.4292 28.9943 68.5553 28.4512C68.6795 27.9071 68.8001 27.3603 68.9197 26.8051C68.767 26.8051 68.6078 26.8079 68.4402 26.8134C68.2728 26.8189 68.0647 26.8273 67.8145 26.8383C67.8577 26.697 67.8899 26.5733 67.912 26.4698C67.9332 26.3663 67.9617 26.201 67.993 25.971C68.1126 25.9793 68.2231 25.9867 68.327 25.9904C68.4292 25.9941 68.5249 25.9959 68.6124 25.9959H69.0817C69.1268 25.7576 69.1701 25.4832 69.2133 25.1729C69.2566 24.8635 69.3044 24.5346 69.3587 24.1863C69.6302 24.0884 69.8603 24.0044 70.049 23.9333C70.2395 23.8631 70.4208 23.7919 70.5938 23.7218C70.7677 23.6506 70.9463 23.5693 71.1313 23.4769C71.3144 23.3837 71.5372 23.2719 71.7958 23.1426L71.9256 23.2895C71.839 23.5499 71.7672 23.7864 71.7083 23.9989C71.6485 24.2104 71.5915 24.4201 71.5372 24.6261C71.4838 24.8339 71.4331 25.0454 71.3917 25.2625C71.3466 25.4805 71.2978 25.7243 71.2445 25.9959H71.8464C71.9541 25.9959 72.0783 25.9941 72.2182 25.9904C72.3608 25.9867 72.5164 25.9793 72.6912 25.971C72.625 26.1243 72.5817 26.2768 72.5596 26.4292C72.5385 26.5816 72.5219 26.7183 72.5118 26.8383C72.359 26.8245 72.2182 26.8153 72.0893 26.8088C71.9596 26.8023 71.8335 26.7995 71.7148 26.7995H71.0807C71.0393 26.9945 70.9656 27.3187 70.8616 27.7694C70.7586 28.2211 70.6527 28.6932 70.5451 29.1883C70.4374 29.6825 70.3398 30.1398 70.2524 30.5582C70.1677 30.9767 70.1116 31.251 70.0904 31.3821C70.0361 31.6528 69.9984 31.8671 69.9772 32.0251C69.9532 32.183 69.945 32.3327 69.945 32.474C69.945 32.7677 70.0223 32.9737 70.1806 33.0928C70.3361 33.212 70.5561 33.2721 70.8377 33.2721C71.0126 33.2721 71.1791 33.2508 71.3411 33.2074L71.1957 33.745C70.9785 33.8005 70.7622 33.8512 70.5451 33.9011Z" fill="#0065A8"/>
<path d="M77.7288 27.9267C77.6082 27.8713 77.4361 27.8445 77.2078 27.8445C76.871 27.8445 76.593 27.9073 76.3713 28.0329C76.1485 28.1576 75.9672 28.3128 75.8273 28.4975C75.6847 28.6823 75.577 28.8809 75.5015 29.0933C75.4261 29.3058 75.3654 29.4988 75.3239 29.6734C75.2245 30.0217 75.1095 30.5131 74.9825 31.1504C74.8508 31.7869 74.6889 32.6607 74.4929 33.7702C74.3318 33.7452 74.1459 33.7323 73.9416 33.7323H73.3066H72.7065C72.5105 33.7323 72.3328 33.7452 72.1709 33.7702C72.5371 32.4437 72.8722 31.1135 73.1704 29.7815C73.4667 28.4477 73.7078 27.1785 73.8928 25.9711C74.0437 25.9915 74.2094 26.0099 74.387 26.0257C74.5665 26.0404 74.7644 26.0478 74.9825 26.0478C75.1978 26.0478 75.3847 26.0404 75.5411 26.0257C75.6994 26.0099 75.854 25.9915 76.0049 25.9711C75.9295 26.2751 75.8596 26.5799 75.7942 26.8838C75.7298 27.1868 75.6635 27.4916 75.5982 27.7955C75.6635 27.6653 75.7638 27.4888 75.8991 27.2662C76.0353 27.0436 76.2065 26.8238 76.4108 26.6076C76.6179 26.3897 76.8572 26.2003 77.1269 26.0377C77.3965 25.8751 77.702 25.792 78.0361 25.792C78.1889 25.792 78.3186 25.8095 78.4263 25.8419C78.5359 25.8751 78.6325 25.9185 78.719 25.9721C78.5229 26.3518 78.3923 26.6907 78.3224 26.99C78.2496 27.2884 78.2054 27.6338 78.1833 28.0228L78.0361 28.0893C77.9496 28.0348 77.8475 27.9812 77.7288 27.9267Z" fill="#0065A8"/>
<path d="M80.4735 32.086C80.5059 32.3262 80.568 32.5405 80.6605 32.7308C80.7523 32.9211 80.8828 33.0772 81.0505 33.1964C81.2196 33.3155 81.4391 33.3756 81.7104 33.3756C82.0251 33.3756 82.3068 33.2869 82.5573 33.1058C82.8065 32.9276 83.0239 32.6901 83.2075 32.3964C83.3925 32.1026 83.5492 31.7738 83.6797 31.409C83.8094 31.045 83.9157 30.6801 83.9986 30.3152C84.0793 29.9513 84.138 29.6031 84.1759 29.2715C84.2139 28.9389 84.2339 28.6636 84.2339 28.4466C84.2339 28.2184 84.2174 27.9838 84.1849 27.7446C84.1532 27.5053 84.0904 27.291 83.9986 27.1007C83.9047 26.9105 83.7756 26.7553 83.6065 26.6361C83.4381 26.516 83.2179 26.456 82.9473 26.456C82.6346 26.456 82.3502 26.5456 82.1025 26.7257C81.8519 26.9049 81.6352 27.1414 81.4502 27.4351C81.2659 27.7289 81.1078 28.0577 80.9787 28.4225C80.8469 28.7874 80.7413 29.1523 80.6605 29.5154C80.5791 29.8802 80.5183 30.2284 80.4825 30.561C80.4452 30.8916 80.4245 31.167 80.4245 31.384C80.4245 31.6131 80.441 31.8468 80.4735 32.086ZM78.5685 28.6923C78.8105 28.1159 79.1437 27.6134 79.5658 27.1829C79.9903 26.7543 80.488 26.4181 81.0616 26.1733C81.6352 25.9276 82.2536 25.8057 82.9142 25.8057C83.4988 25.8057 84.011 25.8907 84.4472 26.0587C84.8883 26.2269 85.2562 26.4652 85.5537 26.7756C85.8519 27.0859 86.0762 27.4554 86.2274 27.884C86.3799 28.3145 86.4558 28.7893 86.4558 29.3112C86.4558 29.9744 86.3261 30.5915 86.0651 31.1614C85.8049 31.7332 85.4564 32.2301 85.0174 32.6541C84.5791 33.0772 84.0703 33.4042 83.4912 33.6323C82.9107 33.8605 82.2957 33.9751 81.6469 33.9751C81.1258 33.9751 80.655 33.8956 80.2326 33.7376C79.8115 33.5806 79.4471 33.3497 79.1437 33.0448C78.8418 32.74 78.608 32.3761 78.446 31.953C78.2841 31.529 78.2031 31.0617 78.2031 30.5499C78.2031 29.8876 78.3236 29.2677 78.5685 28.6923Z" fill="#0065A8"/>
<path d="M94.7482 27.9348C94.7371 28.0706 94.7123 28.2369 94.675 28.4327C94.637 28.6285 94.5846 28.8687 94.5204 29.1514C94.4555 29.434 94.3692 29.7989 94.2615 30.2451C94.1621 30.6478 94.08 31.0006 94.0075 31.3055C93.9378 31.6103 93.8771 31.8985 93.8205 32.171C93.7673 32.4426 93.7183 32.7068 93.6755 32.9626C93.632 33.2185 93.583 33.4873 93.5299 33.77C93.3449 33.745 93.1599 33.7321 92.9756 33.7321H92.3254H91.6835C91.484 33.7321 91.29 33.745 91.1064 33.77C91.152 33.672 91.2182 33.4744 91.31 33.1742C91.4032 32.8758 91.5061 32.5331 91.6193 32.1461C91.7325 31.7609 91.8478 31.3489 91.961 30.9138C92.0742 30.4787 92.1798 30.0649 92.2785 29.6732C92.3737 29.2816 92.4566 28.9306 92.5214 28.6203C92.5863 28.3099 92.6188 28.0845 92.6188 27.9431C92.6188 27.6383 92.5339 27.4093 92.3668 27.2578C92.1998 27.1053 91.9679 27.0296 91.6766 27.0296C91.2859 27.0296 90.898 27.1977 90.5142 27.5349C90.129 27.873 89.824 28.4004 89.5955 29.1181C89.5092 29.3906 89.4167 29.712 89.3201 30.0816C89.2207 30.451 89.1282 30.8454 89.0357 31.2639C88.9418 31.6833 88.8562 32.1128 88.7755 32.5543C88.6947 32.9959 88.6264 33.4005 88.5718 33.77C88.3869 33.745 88.2019 33.7321 88.0114 33.7321H87.4502H86.8504C86.6433 33.7321 86.45 33.745 86.2637 33.77C86.4066 33.2702 86.5467 32.7419 86.6861 32.1867C86.8269 31.6325 86.9691 31.0422 87.1085 30.4169C87.2514 29.7906 87.3929 29.1126 87.5406 28.3837C87.6856 27.6549 87.8388 26.8504 88.0024 25.9683C88.166 25.9913 88.353 26.0098 88.565 26.0265C88.7755 26.0421 88.9791 26.0514 89.1724 26.0514C89.358 26.0514 89.5354 26.0421 89.7108 26.0265C89.8826 26.0098 90.0517 25.9913 90.2133 25.9683C90.1705 26.1105 90.1318 26.2333 90.1001 26.3359C90.0676 26.4393 90.0407 26.54 90.0172 26.6379C89.9958 26.7359 89.973 26.8393 89.9454 26.9483C89.9185 27.0564 89.8881 27.1866 89.8557 27.3399C90.2464 26.8504 90.6674 26.4725 91.123 26.2056C91.5799 25.9396 92.1307 25.8057 92.7796 25.8057C93.4657 25.8057 93.9654 25.9683 94.2843 26.2953C94.6046 26.6213 94.7647 27.0296 94.7647 27.5201C94.7647 27.6605 94.7592 27.8 94.7482 27.9348Z" fill="#0065A8"/>
<path d="M97.1473 24.9508C97.3489 24.9666 97.5629 24.9758 97.7906 24.9758C98.0716 24.9758 98.3069 24.9666 98.4974 24.9508C98.6879 24.9342 98.8619 24.9157 99.0262 24.8936C98.9164 25.2418 98.7777 25.7443 98.6106 26.4029C98.4436 27.0597 98.1247 28.3123 97.9563 29.0734C97.7893 29.8355 97.5304 31.1278 97.3903 31.8788C97.2481 32.6297 97.1473 33.2597 97.0811 33.7706C96.8981 33.7456 96.7069 33.7318 96.5137 33.7318H95.8628H95.1884C94.9869 33.7318 94.8019 33.7456 94.6279 33.7706C94.7888 33.2274 94.9599 32.5909 95.1394 31.8612C95.3182 31.1333 95.5894 29.8641 95.7475 29.1298C95.9035 28.3963 96.1948 27.1576 96.319 26.4999C96.4447 25.8423 96.5289 25.3065 96.5723 24.8936C96.7553 24.9157 96.9478 24.9342 97.1473 24.9508Z" fill="#0065A8"/>
<path d="M105.14 27.5894C105.053 27.3501 104.93 27.1506 104.773 26.9936C104.618 26.8365 104.438 26.722 104.237 26.6518C104.036 26.5807 103.834 26.5447 103.629 26.5447C103.281 26.5447 102.973 26.6213 102.702 26.7737C102.431 26.9252 102.194 27.1238 101.987 27.3667C101.782 27.6116 101.608 27.8859 101.468 28.1889C101.325 28.4928 101.21 28.8022 101.119 29.1172C101.025 29.4312 100.96 29.7324 100.923 30.0206C100.885 30.3079 100.865 30.5545 100.865 30.7596C100.865 31.0201 100.902 31.287 100.979 31.5586C101.056 31.8283 101.174 32.0704 101.336 32.2828C101.5 32.4943 101.71 32.668 101.971 32.8028C102.23 32.9386 102.544 33.006 102.914 33.006C103.315 33.006 103.642 32.9359 103.897 32.7936C104.151 32.6532 104.397 32.4842 104.636 32.2883L104.863 32.4675C104.679 32.7613 104.555 32.9959 104.489 33.1714C104.425 33.346 104.376 33.4984 104.344 33.6296C103.997 33.7284 103.678 33.8107 103.386 33.8762C103.092 33.9418 102.761 33.9751 102.393 33.9751C101.852 33.9751 101.345 33.9011 100.874 33.7543C100.402 33.6084 99.9932 33.3802 99.646 33.0698C99.2995 32.7604 99.0275 32.3798 98.8336 31.9281C98.6382 31.4773 98.543 30.9647 98.543 30.3873C98.543 29.8654 98.6348 29.3334 98.8177 28.7893C99.0027 28.2462 99.2912 27.7547 99.6784 27.3141C100.07 26.8744 100.563 26.5132 101.158 26.2306C101.753 25.9479 102.465 25.8057 103.288 25.8057C103.678 25.8057 104.032 25.8361 104.353 25.8962C104.672 25.9562 104.962 26.031 105.222 26.1179C105.481 26.2056 105.715 26.3026 105.92 26.4051C106.125 26.5095 106.31 26.6056 106.473 26.6924C106.396 26.8125 106.324 26.9289 106.252 27.0425C106.182 27.1571 106.116 27.2799 106.049 27.4102C105.984 27.5404 105.92 27.6864 105.855 27.8508C105.791 28.0134 105.715 28.2092 105.626 28.4383H105.253C105.264 28.1113 105.228 27.8277 105.14 27.5894Z" fill="#0065A8"/>
<path d="M111.044 27.5811C110.997 27.4296 110.912 27.2772 110.792 27.1247C110.674 26.9733 110.513 26.8421 110.312 26.7331C110.11 26.625 109.849 26.5696 109.525 26.5696C109.101 26.5696 108.773 26.6712 108.539 26.8717C108.307 27.0731 108.19 27.3141 108.19 27.5977C108.19 27.739 108.218 27.8637 108.272 27.9727C108.325 28.0818 108.421 28.1898 108.556 28.2988C108.69 28.4078 108.874 28.5242 109.101 28.6489C109.329 28.7745 109.609 28.9251 109.945 29.0978C110.378 29.3371 110.747 29.6198 111.05 29.9468C111.353 30.2719 111.505 30.7069 111.505 31.251C111.505 31.7286 111.406 32.1424 111.213 32.4907C111.017 32.838 110.756 33.1234 110.431 33.346C110.105 33.5696 109.74 33.7294 109.335 33.8273C108.926 33.9252 108.512 33.9741 108.088 33.9741C107.7 33.9741 107.328 33.9335 106.972 33.8522C106.615 33.77 106.262 33.6425 105.915 33.4689C106.036 33.1982 106.13 32.9285 106.199 32.6615C106.271 32.3955 106.328 32.1202 106.372 31.8376H106.679C106.713 32.0667 106.785 32.2699 106.9 32.45C107.013 32.6292 107.151 32.7789 107.313 32.898C107.475 33.0172 107.657 33.1095 107.85 33.1752C108.047 33.2407 108.247 33.2739 108.454 33.2739C108.843 33.2739 109.167 33.1668 109.42 32.9553C109.675 32.7438 109.802 32.4952 109.802 32.2136C109.802 31.8985 109.675 31.6482 109.42 31.4635C109.165 31.2787 108.807 31.0617 108.352 30.8114C108.146 30.7023 107.941 30.5859 107.734 30.4603C107.527 30.3356 107.342 30.186 107.181 30.0123C107.015 29.8387 106.886 29.6354 106.789 29.4008C106.689 29.1671 106.641 28.8808 106.641 28.5436C106.641 28.2184 106.706 27.8924 106.837 27.5663C106.966 27.2402 107.162 26.9465 107.423 26.6869C107.682 26.4255 108.007 26.213 108.399 26.0505C108.789 25.8879 109.244 25.8057 109.765 25.8057C110.255 25.8057 110.68 25.863 111.044 25.9766C111.406 26.0911 111.714 26.2019 111.964 26.31C111.811 26.6029 111.701 26.9021 111.63 27.207C111.56 27.5109 111.514 27.7603 111.491 27.9571H111.151C111.13 27.8591 111.094 27.7335 111.044 27.5811Z" fill="#0065A8"/>
<path d="M25.0967 46.3868C24.92 46.4422 24.6632 46.5031 24.3466 46.5031C23.3066 46.5031 22.8438 45.7725 22.8438 45.0113C22.8438 44.2123 23.28 43.4253 24.377 43.4253C24.642 43.4253 24.8519 43.4595 25.0663 43.5417L25.0405 43.7994C24.7157 43.671 24.4368 43.671 24.3503 43.671C23.5975 43.671 23.1484 44.2585 23.1484 45.0159C23.1484 45.7854 23.6785 46.2574 24.3254 46.2574C24.5951 46.2574 24.874 46.2066 25.0967 46.1161V46.3868Z" fill="#0065A8"/>
<path d="M25.836 44.2637V45.8802L25.8314 46.112H25.8443L25.9897 45.8756L27.1254 44.2637H27.4254V46.4695H27.1558V44.853L27.1595 44.6211H27.1475L27.0011 44.853L25.8655 46.4695H25.5654V44.2637H25.836Z" fill="#0065A8"/>
<path d="M29.5788 44.5555C29.5015 44.5259 29.3082 44.4567 29.069 44.4567C28.5591 44.4567 28.2425 44.8308 28.2425 45.3684C28.2425 45.9956 28.6447 46.2755 29.0993 46.2755C29.253 46.2755 29.4251 46.245 29.5834 46.185L29.6083 46.4177C29.4288 46.4861 29.2797 46.5027 29.0993 46.5027C28.3843 46.5027 27.96 46.0381 27.96 45.3684C27.96 44.7883 28.3152 44.2285 29.0644 44.2285C29.1628 44.2285 29.3561 44.2377 29.5917 44.3144L29.5788 44.5555Z" fill="#0065A8"/>
<path d="M31.3206 44.2637V44.4919H30.6359V46.4695H30.3653V44.4919H29.6797V44.2637H31.3206Z" fill="#0065A8"/>
<path d="M33.0439 45.2183C33.0475 45.0419 33.0171 44.4581 32.4484 44.4581C32.002 44.4581 31.7839 44.8488 31.7747 45.2183H33.0439ZM31.7747 45.4465C31.771 45.7171 31.8778 46.276 32.5036 46.276C32.7254 46.276 32.9407 46.2455 33.1589 46.1338V46.3841C32.9362 46.4783 32.7217 46.5041 32.499 46.5041C31.8732 46.5041 31.4922 46.0867 31.4922 45.3301C31.4922 44.6382 31.8916 44.23 32.4484 44.23C33.2656 44.23 33.3264 44.9772 33.3264 45.3596V45.4465H31.7747Z" fill="#0065A8"/>
<path d="M34.924 45.8931L35.0105 46.1896H35.0271L35.1513 45.8931L35.8627 44.2637H36.2005V46.4695H35.9308V44.901L35.952 44.5436H35.9401L35.8195 44.901L35.1347 46.4695H34.9028L34.2347 44.901L34.103 44.5436H34.0892L34.1104 44.901V46.4695H33.8398V44.2637H34.2218L34.924 45.8931Z" fill="#0065A8"/>
<path d="M37.8893 45.3518C37.4871 45.3518 37.0159 45.4202 37.0159 45.8636C37.0159 46.1 37.199 46.2765 37.4485 46.2765C37.8681 46.2765 38.1341 45.9919 38.1341 45.5107V45.3518H37.8893ZM36.9726 44.3681C37.1558 44.2858 37.3712 44.2295 37.6279 44.2295C38.3384 44.2295 38.4038 44.7505 38.4038 45.0507V45.9873L38.4157 46.4695H38.1764V46.0954H38.1681C37.9831 46.4353 37.6877 46.5037 37.4521 46.5037C36.9764 46.5037 36.7324 46.2201 36.7324 45.8802C36.7324 45.1578 37.546 45.1237 37.9914 45.1237H38.1341V45.047C38.1341 44.8918 38.1286 44.4576 37.6279 44.4576C37.4126 44.4576 37.1825 44.5094 36.9726 44.6258V44.3681Z" fill="#0065A8"/>
<path d="M40.3683 44.2637V45.8802L40.3628 46.112H40.3766L40.522 45.8756L41.6568 44.2637H41.9577V46.4695H41.6881V44.853L41.6908 44.6211H41.6789L41.5334 44.853L40.3978 46.4695H40.0986V44.2637H40.3683Z" fill="#0065A8"/>
<path d="M42.9122 44.2637V45.2096H44.1031V44.2637H44.3727V46.4695H44.1031V45.4377H42.9122V46.4695H42.6416V44.2637H42.9122Z" fill="#0065A8"/>
<path d="M46.3987 44.2637V44.4919H45.7131V46.4695H45.4425V44.4919H44.7578V44.2637H46.3987Z" fill="#0065A8"/>
<path d="M48.1163 45.2183C48.1208 45.0419 48.0914 44.4581 47.5217 44.4581C47.0754 44.4581 46.8573 44.8488 46.849 45.2183H48.1163ZM46.849 45.4465C46.8444 45.7171 46.9511 46.276 47.5769 46.276C47.7997 46.276 48.0141 46.2455 48.2322 46.1338V46.3841C48.0095 46.4783 47.795 46.5041 47.5724 46.5041C46.9474 46.5041 46.5664 46.0867 46.5664 45.3301C46.5664 44.6382 46.964 44.23 47.5217 44.23C48.339 44.23 48.3997 44.9772 48.3997 45.3596V45.4465H46.849Z" fill="#0065A8"/>
<path d="M50.485 44.2637V46.4695H50.2153V44.4919H49.307V44.9001C49.307 45.979 49.3033 46.5037 48.7548 46.5037C48.6866 46.5037 48.6186 46.4991 48.5449 46.4778V46.258C48.5919 46.2719 48.6434 46.2802 48.6904 46.2802C49.0207 46.2802 49.0373 46.0871 49.0373 44.8697V44.2637H50.485Z" fill="#0065A8"/>
<path d="M52.7975 44.2637V46.4695H52.5278V44.4919H51.6195V44.9001C51.6195 45.979 51.6148 46.5037 51.0664 46.5037C50.9982 46.5037 50.9301 46.4991 50.8574 46.4778V46.258C50.9044 46.2719 50.955 46.2802 51.0029 46.2802C51.3323 46.2802 51.3498 46.0871 51.3498 44.8697V44.2637H52.7975Z" fill="#0065A8"/>
<path d="M54.8623 45.2183C54.8659 45.0419 54.8365 44.4581 54.2677 44.4581C53.8213 44.4581 53.6023 44.8488 53.594 45.2183H54.8623ZM53.594 45.4465C53.5894 45.7171 53.6971 46.276 54.3229 46.276C54.5447 46.276 54.7601 46.2455 54.9773 46.1338V46.3841C54.7546 46.4783 54.5401 46.5041 54.3174 46.5041C53.6925 46.5041 53.3105 46.0867 53.3105 45.3301C53.3105 44.6382 53.71 44.23 54.2677 44.23C55.085 44.23 55.1448 44.9772 55.1448 45.3596V45.4465H53.594Z" fill="#0065A8"/>
<path d="M55.9279 44.2637V45.2354H55.9407L56.9467 44.2637H57.2936L56.215 45.2909L57.4087 46.4695H57.0276L55.9407 45.3777H55.9279V46.4695H55.6582V44.2637H55.9279Z" fill="#0065A8"/>
<path d="M59.0052 44.2637V44.4919H58.3196V46.4695H58.049V44.4919H57.3643V44.2637H59.0052Z" fill="#0065A8"/>
<path d="M59.2735 47.136C59.3287 47.1489 59.4271 47.1748 59.4612 47.1748C59.6499 47.1748 59.7401 47.0584 59.8137 46.8303L59.9067 46.5421L59.1143 44.2642H59.4023L59.9803 45.9454L60.0493 46.1643H60.053L60.1211 45.949L60.6779 44.2642H60.9567L60.019 46.9679C59.9287 47.2219 59.7916 47.415 59.4879 47.415C59.4115 47.415 59.3122 47.3937 59.2477 47.3771L59.2735 47.136Z" fill="#0065A8"/>
<path d="M62.2731 45.3518C61.8709 45.3518 61.3997 45.4202 61.3997 45.8636C61.3997 46.1 61.5828 46.2765 61.8313 46.2765C62.251 46.2765 62.5179 45.9919 62.5179 45.5107V45.3518H62.2731ZM61.3564 44.3681C61.5396 44.2858 61.754 44.2295 62.0117 44.2295C62.7222 44.2295 62.7876 44.7505 62.7876 45.0507V45.9873L62.7995 46.4695H62.5593V46.0954H62.5519C62.366 46.4353 62.0715 46.5037 61.8359 46.5037C61.3601 46.5037 61.1162 46.2201 61.1162 45.8802C61.1162 45.1578 61.9298 45.1237 62.3752 45.1237H62.5179V45.047C62.5179 44.8918 62.5124 44.4576 62.0117 44.4576C61.7964 44.4576 61.5663 44.5094 61.3564 44.6258V44.3681Z" fill="#0065A8"/>
<path d="M65.11 44.2637V46.4695H64.8403V44.4919H63.9329V44.9001C63.9329 45.979 63.9283 46.5037 63.3798 46.5037C63.3107 46.5037 63.2426 46.4991 63.1699 46.4778V46.258C63.2169 46.2719 63.2684 46.2802 63.3163 46.2802C63.6448 46.2802 63.6632 46.0871 63.6632 44.8697V44.2637H65.11Z" fill="#0065A8"/>
<path d="M66.0666 46.2414H66.615C66.7347 46.2414 67.1461 46.2377 67.1461 45.7999C67.1461 45.3694 66.7384 45.3601 66.615 45.3601H66.0666V46.2414ZM66.0666 44.2637V45.1329H66.6362C66.7945 45.1329 67.4286 45.1459 67.4286 45.7999C67.4286 46.4566 66.7908 46.4695 66.6362 46.4695H65.7969V44.2637H66.0666Z" fill="#0065A8"/>
<path d="M68.1847 44.2637V45.2096H69.3756V44.2637H69.6453V46.4695H69.3756V45.4377H68.1847V46.4695H67.915V44.2637H68.1847Z" fill="#0065A8"/>
<path d="M71.1977 46.2765C71.7122 46.2765 71.9293 45.7952 71.9293 45.3693C71.9293 44.9389 71.7122 44.4576 71.1977 44.4576C70.6832 44.4576 70.4642 44.9389 70.4642 45.3693C70.4642 45.7952 70.6832 46.2765 71.1977 46.2765ZM71.1977 44.2295C71.8097 44.2295 72.2128 44.6803 72.2128 45.3693C72.2128 46.0529 71.8051 46.5037 71.1977 46.5037C70.5885 46.5037 70.1826 46.0529 70.1826 45.3693C70.1826 44.6803 70.5847 44.2295 71.1977 44.2295Z" fill="#0065A8"/>
<path d="M74.0907 44.2637V44.4919H73.0158V46.4695H72.7461V44.2637H74.0907Z" fill="#0065A8"/>
<path d="M75.1343 46.2765C75.6488 46.2765 75.8678 45.7952 75.8678 45.3693C75.8678 44.9389 75.6488 44.4576 75.1343 44.4576C74.6199 44.4576 74.4026 44.9389 74.4026 45.3693C74.4026 45.7952 74.6199 46.2765 75.1343 46.2765ZM75.1343 44.2295C75.7472 44.2295 76.1503 44.6803 76.1503 45.3693C76.1503 46.0529 75.7427 46.5037 75.1343 46.5037C74.5269 46.5037 74.1201 46.0529 74.1201 45.3693C74.1201 44.6803 74.5223 44.2295 75.1343 44.2295Z" fill="#0065A8"/>
<path d="M77.6241 47.136C77.6793 47.1489 77.7778 47.1748 77.8118 47.1748C78.0005 47.1748 78.0907 47.0584 78.1643 46.8303L78.2582 46.5421L77.4648 44.2642H77.753L78.3309 45.9454L78.3999 46.1643H78.4036L78.4717 45.949L79.0285 44.2642H79.3074L78.3696 46.9679C78.2793 47.2219 78.1432 47.415 77.8376 47.415C77.7612 47.415 77.6627 47.3937 77.5983 47.3771L77.6241 47.136Z" fill="#0065A8"/>
<path d="M81.4679 44.2637V46.4695H81.1987V44.4919H80.0509V46.4695H79.7803V44.2637H81.4679Z" fill="#0065A8"/>
<path d="M83.1035 46.2764C83.3603 46.2764 83.7668 46.0649 83.7668 45.3647C83.7668 44.6729 83.3603 44.4576 83.1035 44.4576C82.8467 44.4576 82.4388 44.6729 82.4388 45.3647C82.4388 46.0649 82.8467 46.2764 83.1035 46.2764ZM82.1689 47.4117V44.6895L82.1523 44.2636H82.4091V44.719H82.4222C82.4947 44.5177 82.6742 44.2295 83.1035 44.2295C83.7109 44.2295 84.0491 44.6682 84.0491 45.3647C84.0491 46.173 83.5908 46.5037 83.1035 46.5037C82.8081 46.5037 82.5768 46.3282 82.4436 46.0741H82.4312L82.4388 46.2847V47.4117H82.1689Z" fill="#0065A8"/>
<path d="M85.5416 45.3518C85.1392 45.3518 84.6678 45.4202 84.6678 45.8636C84.6678 46.1 84.8521 46.2765 85.1005 46.2765C85.5202 46.2765 85.786 45.9919 85.786 45.5107V45.3518H85.5416ZM84.6257 44.3681C84.8086 44.2858 85.0232 44.2295 85.28 44.2295C85.9917 44.2295 86.0558 44.7505 86.0558 45.0507V45.9873L86.069 46.4695H85.8288V46.0954H85.8205C85.6355 46.4353 85.3401 46.5037 85.104 46.5037C84.6291 46.5037 84.3848 46.2201 84.3848 45.8802C84.3848 45.1578 85.1993 45.1237 85.6445 45.1237H85.786V45.047C85.786 44.8918 85.7818 44.4576 85.28 44.4576C85.0653 44.4576 84.8348 44.5094 84.6257 44.6258V44.3681Z" fill="#0065A8"/>
<path d="M87.0215 46.2414H87.6476C87.99 46.2414 88.1259 46.0483 88.1259 45.8553C88.1259 45.6354 87.9865 45.4377 87.6041 45.4377H87.0215V46.2414ZM87.0215 45.2105H87.6041C87.6476 45.2105 88.0334 45.2105 88.0334 44.8706C88.0334 44.72 87.9561 44.4919 87.6041 44.4919H87.0215V45.2105ZM87.6207 44.2637C88.0838 44.2637 88.3026 44.526 88.3026 44.8484C88.3026 45.0673 88.1915 45.2105 87.9989 45.3001V45.3084C88.2419 45.3601 88.4096 45.5883 88.4096 45.8553C88.4096 46.4649 87.7636 46.4695 87.6676 46.4695H86.751V44.2637H87.6207Z" fill="#0065A8"/>
<path d="M90.6154 44.2637V46.4695H90.3462V44.4919H89.4385V44.9001C89.4385 45.979 89.4337 46.5037 88.8856 46.5037C88.8166 46.5037 88.7483 46.4991 88.6758 46.4778V46.258C88.7227 46.2719 88.7738 46.2802 88.8221 46.2802C89.1507 46.2802 89.1686 46.0871 89.1686 44.8697V44.2637H90.6154Z" fill="#0065A8"/>
<path d="M92.6792 45.2183C92.6833 45.0419 92.6543 44.4581 92.0842 44.4581C91.6383 44.4581 91.4202 44.8488 91.4119 45.2183H92.6792ZM91.4119 45.4465C91.4071 45.7171 91.5141 46.276 92.1394 46.276C92.3624 46.276 92.577 46.2455 92.7952 46.1338V46.3841C92.5722 46.4783 92.3575 46.5041 92.1353 46.5041C91.5099 46.5041 91.1289 46.0867 91.1289 45.3301C91.1289 44.6382 91.5265 44.23 92.0842 44.23C92.9015 44.23 92.9622 44.9772 92.9622 45.3596V45.4465H91.4119Z" fill="#0065A8"/>
<path d="M93.7458 44.2637V45.2096H94.9371V44.2637H95.2063V46.4695H94.9371V45.4377H93.7458V46.4695H93.4766V44.2637H93.7458Z" fill="#0065A8"/>
<path d="M96.1612 44.2637V45.8802L96.1564 46.112H96.1695L96.3144 45.8756L97.4506 44.2637H97.7495V46.4695H97.4809V44.853L97.4844 44.6211H97.4727L97.3263 44.853L96.1902 46.4695H95.8906V44.2637H96.1612Z" fill="#0065A8"/>
<path d="M99.0887 44.4919C98.7581 44.4919 98.6304 44.7108 98.6304 44.9084C98.6304 45.1107 98.7581 45.3297 99.0887 45.3297H99.6119V44.4919H99.0887ZM99.8804 46.4695H99.6119V45.5578H99.0749L98.609 46.4695H98.2832L98.7981 45.5024C98.6049 45.4507 98.3474 45.2955 98.3474 44.9084C98.3474 44.5944 98.5614 44.2637 99.028 44.2637H99.8804V46.4695Z" fill="#0065A8"/>
<rect x="1.35" y="1.35" width="119.3" height="59.3" rx="8.65" stroke="black" stroke-width="2.7"/>
</svg>
