<svg width="80" height="80" viewBox="0 0 80 80" fill="none" xmlns="http://www.w3.org/2000/svg">
<path d="M35.1111 56.2373H27.0576V62.2073H35.1111V56.2373Z" fill="#0265A9"/>
<path d="M37.3987 60.6021H24.7705V65.7056H25.2674V70.4404L26.4926 74.76H35.7754L36.9888 70.4628V65.7056H37.3987V60.6021ZM35.6054 62.417V63.8906L26.5639 63.8906V62.417H35.6054ZM35.1954 70.2086L34.4227 72.9449H27.8436L27.0607 70.1851V65.7056H35.1954V70.2086Z" fill="#2C1A0E"/>
<path d="M24.4175 38.0357C25.9959 38.0357 27.2754 36.0727 27.2754 33.6512C27.2754 31.2296 25.9959 29.2666 24.4175 29.2666C22.8391 29.2666 21.5596 31.2296 21.5596 33.6512C21.5596 36.0727 22.8391 38.0357 24.4175 38.0357Z" fill="#0065A8"/>
<path d="M36.381 45.6201C36.4217 45.2212 36.493 44.9106 36.6801 44.4015C36.8672 43.8962 37.1737 43.2136 37.6463 42.1895C38.0599 41.2954 38.2427 40.4132 38.2415 39.5772C38.2415 38.532 37.9642 37.5758 37.5868 36.7051C37.2082 35.8329 36.7285 35.0344 36.2788 34.2746C36.0757 33.9341 35.7947 33.5631 35.4376 33.1268C34.1953 31.6153 32.0245 29.3735 29.9443 27.2537C28.9055 26.1958 27.8922 25.1722 27.0392 24.2994C26.1876 23.4282 25.491 22.7008 25.1102 22.265C24.2565 21.2935 23.2726 19.7222 22.5301 18.4166C22.1572 17.7626 21.8405 17.1723 21.6179 16.7469C21.5066 16.5343 21.4188 16.3628 21.3591 16.2452C21.2995 16.1276 21.2694 16.0666 21.2693 16.0665L20.9272 15.374L20.1977 15.6068C20.0879 15.6412 19.6266 15.815 19.0023 16.3629C18.0632 17.1854 16.7672 18.8338 15.6324 22.0745C14.4969 25.3175 13.5128 30.1607 13.1934 37.4417C13.1217 39.0772 13.0889 40.5898 13.0889 41.9887C13.0907 49.5819 14.0513 53.8338 15.0788 56.2646C15.5933 57.4786 16.129 58.2371 16.5747 58.7061C17.0192 59.1753 17.3743 59.3496 17.4911 59.3954L18.138 59.6537L18.5462 59.0839L18.5593 59.0656C18.7061 58.8625 20.0728 57.0077 21.9289 55.2165C23.0004 54.1805 24.3768 52.6019 25.5044 51.2663C25.6419 51.1032 25.7753 50.9442 25.9039 50.7902V53.278L24.7308 57.9679H37.403L37.1687 56.869L36.3489 53.0238V47.391H36.3469C36.3469 47.1826 36.3469 46.9286 36.3469 46.6163C36.3467 46.2003 36.3548 45.8867 36.381 45.6201ZM34.5554 49.2243L34.5555 52.4836H27.6973V49.206H31.0892L34.5554 49.2243ZM27.4985 54.2986H34.786L35.1814 56.1529H27.0347L27.4985 54.2986ZM31.1013 47.391L26.3745 47.3661L26.1036 47.705C26.1034 47.7052 26.0514 47.7703 25.9541 47.8908C25.6139 48.3124 24.7309 49.3988 23.7141 50.5903C22.6993 51.7803 21.5426 53.0818 20.6908 53.9033C19.3728 55.177 18.3066 56.4537 17.6866 57.2399C17.2302 56.6756 16.5295 55.4875 15.9436 53.1346C15.3526 50.7639 14.8818 47.2184 14.8822 41.9887C14.8822 40.6185 14.9145 39.1327 14.985 37.5221C15.4008 27.9855 16.9855 22.8586 18.3867 20.1854C19.0634 18.8922 19.6913 18.173 20.1292 17.7784C20.3514 18.1991 20.6391 18.7314 20.9769 19.3239C21.754 20.6827 22.7558 22.3085 23.7677 23.4684C24.2642 24.0352 25.1106 24.9096 26.1414 25.961C27.6847 27.5343 29.6281 29.4871 31.298 31.2396C32.1325 32.1153 32.8987 32.9413 33.507 33.6378C34.113 34.3287 34.57 34.9143 34.741 35.2084C35.1933 35.9703 35.6311 36.709 35.9444 37.434C36.259 38.1604 36.4483 38.8612 36.4482 39.5772C36.447 40.1525 36.3305 40.7483 36.0212 41.422C35.3891 42.7959 35.028 43.5926 34.8079 44.3433C34.6989 44.7167 34.6318 45.075 34.5964 45.4413C34.5607 45.8085 34.5537 46.1799 34.5535 46.6163C34.5535 46.9286 34.5535 47.1826 34.5535 47.391H31.1013Z" fill="#2C1A0E"/>
<path d="M72.3497 10.3246H56.2974V8.6417C56.2968 3.86848 52.4746 0.000574415 47.7584 0H32.2416C27.5254 0.000574415 23.7032 3.86848 23.7026 8.6417V10.3246H7.65035C3.42507 10.3252 0.000608083 13.7906 0 18.0673V72.2574C0.000608083 76.534 3.42507 79.9994 7.65035 80H72.3497C76.5749 79.9994 79.9994 76.534 80 72.2574V18.0673C79.9994 13.7906 76.5749 10.3252 72.3497 10.3246ZM25.496 8.6417C25.4965 6.75358 26.2496 5.05267 27.4717 3.81445C28.6953 2.57766 30.376 1.81546 32.2416 1.81501H47.7584C49.624 1.81546 51.3047 2.57766 52.5283 3.81445C53.7504 5.05267 54.5035 6.75358 54.504 8.6417V10.2859H25.496V8.6417ZM78.2066 72.2574C78.2062 73.8971 77.5524 75.3733 76.4911 76.4488C75.4283 77.5229 73.9697 78.1845 72.3497 78.185H7.65035C6.03029 78.1845 4.5717 77.5229 3.5089 76.4488C2.44757 75.3733 1.79382 73.8971 1.79337 72.2574V18.0673C1.79382 16.4275 2.44757 14.9513 3.5089 13.8758C4.5717 12.8017 6.03025 12.1401 7.65035 12.1396H72.3497C73.9697 12.1401 75.4283 12.8017 76.4911 13.8758C77.5524 14.9513 78.2062 16.4275 78.2066 18.0673V72.2574Z" fill="#2C1A0E"/>
<path d="M64.2892 53.707H58.0752V58.3127H64.2892V53.707Z" fill="#0265A9"/>
<path d="M66.2585 56.8672H56.1055V61.2195H56.4888V64.6944L57.4844 68.2053H64.9556L65.942 64.7118V61.2195H66.2585V56.8672ZM64.4651 58.6822V59.4044L57.8988 59.4044V58.6822H64.4651ZM64.1486 64.4574L63.6028 66.3902H58.8355L58.2822 64.4392V61.2195H64.1486V64.4574Z" fill="#2C1A0E"/>
<path d="M58.2446 36.2807C58.2446 38.1489 57.2573 39.6634 56.039 39.6634C54.8213 39.6634 53.834 38.1489 53.834 36.2807C53.834 34.4124 54.8213 32.8979 56.039 32.8979C57.2573 32.8979 58.2446 34.4124 58.2446 36.2807Z" fill="#0065A8"/>
<path d="M65.4725 45.5359C65.5027 45.2456 65.5514 45.0304 65.6916 44.6481C65.8317 44.2696 66.0669 43.7455 66.4313 42.956C66.7622 42.2411 66.9109 41.5277 66.9097 40.8531C66.9097 40.009 66.6856 39.242 66.3873 38.5537C66.0877 37.8639 65.7127 37.2409 65.366 36.655C65.199 36.3754 64.978 36.0848 64.6989 35.7436C63.7299 34.5649 62.0548 32.8356 60.4484 31.1985C59.6466 30.3819 58.8647 29.5921 58.2073 28.9194C57.5512 28.2484 57.0142 27.6874 56.7264 27.3581C56.0859 26.6302 55.3288 25.4241 54.76 24.4229C54.4738 23.9211 54.2306 23.4678 54.0598 23.1414C53.9744 22.9782 53.907 22.8467 53.8614 22.7567C53.8157 22.6667 53.7931 22.6208 53.793 22.6207L53.4509 21.9282L52.7214 22.1611C52.6115 22.1954 52.2294 22.344 51.7266 22.7854C50.9699 23.4482 49.952 24.7539 49.0678 27.2797C48.1828 29.8078 47.4217 33.5639 47.1746 39.1962C47.1192 40.4608 47.0938 41.6308 47.0938 42.7135C47.0956 48.5896 47.837 51.8955 48.6453 53.8095C49.0502 54.7652 49.4764 55.3727 49.8398 55.7553C50.2022 56.1379 50.5024 56.2905 50.6193 56.3363L51.2661 56.5946L51.6743 56.0249L51.6837 56.0119C51.7925 55.861 52.8423 54.4373 54.26 53.0691C55.0815 52.2748 56.1182 51.0878 56.9805 50.068V51.3979L56.0177 55.2492H66.3111L66.0769 54.1503L65.4491 51.2044V46.6742H65.4471C65.4471 46.5578 65.4471 46.4317 65.4471 46.2839C65.447 45.9653 65.4533 45.73 65.4725 45.5359ZM63.6557 48.5023L63.6557 50.6035H58.7739V48.4892H61.1767L63.6557 48.5023ZM58.5752 52.4185H63.8732L64.0897 53.4342H58.3213L58.5752 52.4185ZM61.1901 46.6742L57.4511 46.6545L57.1802 46.9935C57.18 46.9936 57.1403 47.0434 57.0655 47.1361C56.8037 47.4604 56.1236 48.2974 55.341 49.2145C54.5604 50.13 53.6693 51.1319 53.022 51.756C52.1006 52.6468 51.3488 53.5269 50.8537 54.142C50.6395 53.8317 50.3777 53.3596 50.1081 52.6209C49.493 50.9303 48.8859 47.9093 48.8871 42.7135C48.8871 41.6596 48.9119 40.5163 48.9662 39.2766C49.2857 31.9382 50.506 28.0112 51.5669 25.9884C51.9857 25.1883 52.3754 24.6867 52.6777 24.3727C52.8284 24.6537 53.0057 24.9777 53.2067 25.3302C53.8102 26.3846 54.5852 27.6452 55.384 28.5617C55.7741 29.0067 56.4273 29.6811 57.2236 30.4933C58.4151 31.708 59.9139 33.214 61.2 34.5639C61.8427 35.2383 62.4322 35.8738 62.8983 36.4076C63.3621 36.9357 63.7113 37.3859 63.8282 37.5888C64.1776 38.1768 64.5105 38.7401 64.7449 39.2826C64.9805 39.8266 65.1164 40.3382 65.1164 40.8531C65.1152 41.267 65.0328 41.694 64.8062 42.1885C64.3185 43.2493 64.0363 43.8684 63.8588 44.4712C63.7712 44.7707 63.7164 45.0625 63.688 45.3565C63.6592 45.6514 63.6539 45.9447 63.6538 46.2839C63.6538 46.4317 63.6538 46.5578 63.6538 46.6742H61.1901Z" fill="#2C1A0E"/>
</svg>
