<svg width="80" height="80" viewBox="0 0 80 80" fill="none" xmlns="http://www.w3.org/2000/svg">
<path d="M66.8787 62.5118C66.8306 58.527 66.4501 53.1717 65.5549 47.8301C64.6559 42.4871 63.2573 37.1674 61.0961 33.2126C59.9439 31.1122 58.0834 29.5619 55.9997 28.4034C52.8685 26.6671 49.1954 25.7772 46.2897 25.2984C43.3849 24.8224 41.2479 24.7684 41.2186 24.7674L41.2076 24.7671H38.5491L38.538 24.7674C38.4981 24.7695 34.7148 24.8625 30.3538 25.9304C28.1726 26.466 25.8444 27.2444 23.7569 28.4034C21.6732 29.5619 19.8127 31.1122 18.6605 33.2126C16.4993 37.1674 15.1007 42.4871 14.2017 47.8301C13.3065 53.1717 12.926 58.527 12.8779 62.5117C12.8634 63.7123 12.8467 64.8912 12.8467 66.0325C12.8505 69.2028 12.9642 72.0723 13.6743 74.376C14.0321 75.5263 14.5495 76.5484 15.3246 77.3544C16.0964 78.1615 17.131 78.7177 18.3611 78.9328C19.6698 79.1658 21.3798 79.3435 23.2302 79.4855C28.7732 79.9094 35.55 79.9964 35.56 79.9968L35.567 79.9968H43.6235L43.6326 79.9968C43.6378 79.9967 46.7949 79.9576 50.5857 79.8064C52.4814 79.7307 54.5353 79.6271 56.437 79.4857C58.3403 79.3437 60.0849 79.1662 61.3961 78.9329C62.6261 78.7177 63.6606 78.1615 64.4323 77.3544C65.5943 76.139 66.1785 74.4665 66.5109 72.5463C66.8398 70.6201 66.909 68.4095 66.9098 66.0328C66.9098 64.8913 66.8931 63.7124 66.8787 62.5118ZM64.3245 73.8388C64.0236 74.8086 63.617 75.5609 63.1022 76.094C62.584 76.626 61.9628 76.9736 61.0705 77.1372C59.8772 77.3505 58.168 77.5277 56.2994 77.6663C53.4936 77.875 50.3164 78.002 47.8451 78.0763C46.6092 78.1134 45.5493 78.1375 44.7989 78.1522C44.0754 78.1664 43.6466 78.1719 43.6155 78.1723H35.5778C35.5614 78.1721 35.3834 78.1697 35.0614 78.164C33.8809 78.1431 30.8536 78.0784 27.5826 77.9218C24.3167 77.7666 20.7858 77.5133 18.6867 77.1371C17.7942 76.9735 17.1728 76.6259 16.6546 76.0939C15.8817 75.3006 15.3545 73.9851 15.0591 72.2405C14.7602 70.5019 14.6853 68.371 14.6862 66.0325C14.6862 64.9089 14.7027 63.7366 14.7172 62.5335C14.7635 58.6432 15.1392 53.3579 16.0162 48.1294C16.8894 42.9023 18.2792 37.7222 20.2769 34.0835C21.2042 32.387 22.7699 31.0427 24.656 29.9951C27.4794 28.4224 30.9838 27.5523 33.7669 27.0985C35.1586 26.8702 36.3706 26.743 37.2307 26.6732C37.6608 26.6383 38.0029 26.6177 38.2357 26.6059C38.352 26.6 38.4411 26.5964 38.5001 26.5941L38.5759 26.5916H41.1816L41.2075 26.5924C41.6067 26.6045 45.3107 26.7575 49.351 27.7996C51.3705 28.319 53.4714 29.0615 55.2762 30.0941C57.0845 31.1273 58.5811 32.4398 59.4797 34.0835C61.4774 37.7222 62.8672 42.9023 63.7404 48.1294C64.6175 53.3579 64.9931 58.6431 65.0394 62.5335C65.0537 63.7366 65.0703 64.909 65.0703 66.0328C65.0742 69.1495 64.9317 71.9024 64.3245 73.8388Z" fill="#2C1A0E"/>
<path d="M52.4421 32.1957C52.0537 31.5171 51.436 30.9901 50.6753 30.5337C49.5302 29.8539 48.0254 29.3323 46.2602 28.9629C44.4959 28.5958 42.4735 28.3894 40.32 28.3892C37.0368 28.3911 34.0643 28.8647 31.8342 29.6698C30.7182 30.0759 29.7834 30.5604 29.0725 31.1659C28.718 31.4698 28.4178 31.8077 28.1979 32.1957C27.9784 32.5818 27.8447 33.0257 27.8457 33.4849C27.8447 33.9441 27.9783 34.388 28.1979 34.7741C28.5862 35.4527 29.2039 35.9798 29.9645 36.4362C31.1096 37.1159 32.6143 37.6376 34.3796 38.0069C36.1439 38.374 38.1663 38.5804 40.32 38.5806C43.6029 38.5786 46.5753 38.1051 48.8056 37.3001C49.9216 36.8941 50.8564 36.4095 51.5674 35.804C51.9219 35.5001 52.2222 35.1622 52.4421 34.7742C52.6617 34.3881 52.7953 33.9441 52.7943 33.4849C52.7953 33.0257 52.6617 32.5817 52.4421 32.1957ZM50.8375 33.882C50.6871 34.1566 50.3185 34.5237 49.7281 34.8723C48.8466 35.4001 47.5043 35.8855 45.8823 36.2213C44.2593 36.5594 42.3541 36.7563 40.32 36.7561C37.2215 36.7581 34.4166 36.2952 32.465 35.5862C31.4901 35.2351 30.7327 34.8182 30.2744 34.4228C30.0441 34.2261 29.8904 34.0386 29.8025 33.882C29.7142 33.7234 29.6862 33.6033 29.6852 33.4849C29.6862 33.3665 29.7142 33.2465 29.8024 33.0879C29.9529 32.8133 30.3215 32.4463 30.9118 32.0977C31.7932 31.5698 33.1354 31.0844 34.7574 30.7485C36.3805 30.4104 38.2857 30.2134 40.32 30.2137C43.4182 30.2117 46.223 30.6747 48.1748 31.3837C49.1498 31.7348 49.9072 32.1517 50.3656 32.5472C50.5959 32.7438 50.7496 32.9313 50.8376 33.0879C50.9258 33.2465 50.9538 33.3665 50.9548 33.4849C50.9538 33.6033 50.9258 33.7234 50.8375 33.882Z" fill="#2C1A0E"/>
<path d="M25.5212 4.23593C26.2224 5.44488 26.7461 6.78943 27.0607 8.14818C27.4446 9.80784 27.4912 11.6203 26.7261 13.1875C26.2105 14.2427 25.474 15.0835 25.1373 16.2363C24.2837 19.157 25.0828 22.5074 26.4952 25.1417C27.0514 26.1788 28.6402 25.2582 28.084 24.2208C27.3235 22.8027 26.7733 21.0982 26.6609 19.4956C26.4487 16.4511 28.5697 14.6525 29.0527 11.8539C29.5497 8.97504 28.555 5.80783 27.1093 3.31503C26.5192 2.29746 24.9291 3.21539 25.5212 4.23593Z" fill="#2C1A0E"/>
<path d="M32.1949 2.58018C32.8961 3.78947 33.4198 5.13404 33.7344 6.49246C34.119 8.15247 34.1649 9.96491 33.3998 11.5319C32.8842 12.5874 32.1477 13.4281 31.811 14.581C30.9574 17.5018 31.7571 20.8518 33.1696 23.4865C33.7251 24.5235 35.3139 23.6026 34.7577 22.5656C33.9972 21.1474 33.447 19.4429 33.3346 17.8403C33.1224 14.7955 35.244 12.9972 35.7264 10.1982C36.2234 7.31933 35.2287 4.15209 33.783 1.65928C33.1929 0.641694 31.6028 1.55963 32.1949 2.58018Z" fill="#2C1A0E"/>
<path d="M38.3521 1.37559C39.0534 2.58487 39.577 3.92943 39.8917 5.28785C40.2762 6.94785 40.3221 8.76029 39.557 10.3272C39.0414 11.3828 38.3049 12.2235 37.9682 13.3763C37.1146 16.2971 37.9144 19.6475 39.3268 22.2818C39.8824 23.3189 41.4711 22.398 40.9149 21.3609C40.1545 19.9428 39.6043 18.2382 39.4925 16.6356C39.2796 13.5908 41.4013 11.7926 41.8836 8.99357C42.3806 6.11472 41.386 2.94782 39.9402 0.454684C39.3501 -0.562894 37.76 0.355038 38.3521 1.37559Z" fill="#2C1A0E"/>
<path d="M44.8935 2.58018C45.5941 3.78947 46.1184 5.13404 46.4331 6.49246C46.817 8.15247 46.8635 9.96491 46.0984 11.5319C45.5828 12.5874 44.8463 13.4281 44.509 14.581C43.656 17.5018 44.4551 20.8518 45.8676 23.4865C46.4238 24.5235 48.0119 23.6026 47.4563 22.5656C46.6959 21.1474 46.145 19.4429 46.0332 17.8403C45.8203 14.7955 47.942 12.9972 48.4251 10.1982C48.9221 7.31933 47.9274 4.15209 46.4817 1.65928C45.8915 0.641694 44.3014 1.55963 44.8935 2.58018Z" fill="#2C1A0E"/>
<path d="M51.3043 4.23593C52.0055 5.44488 52.5291 6.78943 52.8438 8.14818C53.2284 9.80784 53.2743 11.6203 52.5092 13.1875C51.9936 14.2427 51.257 15.0835 50.9204 16.2363C50.0668 19.157 50.8665 22.5074 52.279 25.1417C52.8345 26.1788 54.4233 25.2582 53.8671 24.2208C53.1066 22.8027 52.5564 21.0982 52.4446 19.4956C52.2317 16.4511 54.3535 14.6525 54.8358 11.8539C55.3328 8.97504 54.3382 5.80783 52.8924 3.31503C52.3023 2.29746 50.7121 3.21539 51.3043 4.23593Z" fill="#2C1A0E"/>
<path fill-rule="evenodd" clip-rule="evenodd" d="M34.9107 55.0063V55.0469V55.8424V55.8827H34.9653H35.258L32.2614 58.6328H31.6627H31.6221V58.673V59.5358V59.5764H31.6627H34.9107H34.9653V59.5358V58.673V58.6328H34.9107H34.441L34.6087 58.4978H36.4736V58.6328H35.9846H35.944V58.673V59.5358V59.5764H35.9846H39.206H39.2606V59.5358V58.673V58.6328H39.206H38.6758V56.8184L41.3563 58.6328H41.0137H40.9591V58.673V59.5358V59.5764H41.0137H45.975H45.9883L46.2604 59.4956L46.5185 59.4147L46.7494 59.3069L46.967 59.1719L47.1845 59.0102L47.3881 58.835L47.5511 58.6192L47.6875 58.4035L47.7959 58.1339L47.8778 57.8643L47.9184 57.5948L47.9456 57.3117L47.9184 57.0015L47.8778 56.7052L47.7959 56.4353L47.6875 56.1928L47.5511 55.9635L47.4699 55.856L47.3881 55.7616L47.293 55.6669L47.1845 55.5725L46.967 55.4109L46.7494 55.2759L46.5185 55.168L46.2464 55.074L45.9883 55.0063H45.975H41.0137H40.9591V55.0469V55.8424V55.8827H41.0137H41.53V56.7808L38.8933 55.0199L38.88 55.0063H38.866H34.9653H34.9107ZM43.7322 55.8827H45.132L45.2544 55.9233L45.3496 55.9635L45.5399 56.112L45.635 56.2196L45.7168 56.3274L45.7707 56.4624L45.8253 56.6105L45.9071 56.9207L45.9344 57.2846L45.9204 57.4598L45.8659 57.8106L45.8253 57.9455L45.7707 58.0801L45.635 58.3226L45.5399 58.417L45.3496 58.5655L45.2544 58.606L45.1593 58.6328H43.7322V55.8827ZM36.4736 56.7801V57.608H35.5581L36.4736 56.7801Z" fill="#0065A8"/>
<path d="M60.9784 46.8043C59.2872 47.794 55.5029 47.5264 53.4085 47.4763C52.2242 47.4479 52.2249 49.2722 53.4085 49.3005C55.628 49.3536 57.8874 49.351 60.0776 48.9396C60.6824 48.8262 61.367 48.6952 61.9066 48.3792C62.9252 47.7828 62.001 46.2053 60.9784 46.8043Z" fill="#2C1A0E"/>
<path d="M61.6975 50.5113C60.0069 51.5013 56.2219 51.2338 54.1282 51.1836C52.9439 51.1549 52.9446 52.9794 54.1282 53.0077C56.347 53.0608 58.6071 53.0582 60.7973 52.6471C61.4021 52.5336 62.0867 52.4023 62.6263 52.0866C63.6449 51.4901 62.7201 49.9125 61.6975 50.5113Z" fill="#2C1A0E"/>
<path d="M62.154 54.2593C60.4634 55.2493 56.6784 54.9818 54.584 54.9316C53.4004 54.9032 53.4004 56.7275 54.584 56.7559C56.8035 56.809 59.0636 56.8064 61.2538 56.395C61.8586 56.2815 62.5432 56.1506 63.0827 55.8345C64.1013 55.2381 63.1765 53.6605 62.154 54.2593Z" fill="#2C1A0E"/>
<path d="M62.3913 58.0669C60.7007 59.057 56.9157 58.7894 54.8213 58.7393C53.6377 58.7109 53.6377 60.5352 54.8213 60.5636C57.0408 60.6167 59.3009 60.6138 61.4911 60.2027C62.0959 60.0892 62.7805 59.9582 63.32 59.6422C64.3386 59.0457 63.4138 57.4681 62.3913 58.0669Z" fill="#2C1A0E"/>
<path d="M62.6181 61.8736C60.9268 62.8636 57.1425 62.5961 55.0481 62.5459C53.8638 62.5175 53.8645 64.3416 55.0481 64.37C57.2676 64.4234 59.527 64.4205 61.7172 64.0094C62.322 63.8959 63.0066 63.7646 63.5462 63.4489C64.5648 62.8524 63.6407 61.2748 62.6181 61.8736Z" fill="#2C1A0E"/>
<path d="M62.6181 65.7227C60.9268 66.7127 57.1425 66.4451 55.0481 66.3947C53.8638 66.3663 53.8645 68.1906 55.0481 68.2189C57.2676 68.2721 59.527 68.2694 61.7172 67.8584C62.322 67.7446 63.0066 67.6136 63.5462 67.2976C64.5648 66.7011 63.6407 65.124 62.6181 65.7227Z" fill="#2C1A0E"/>
<path d="M18.2443 48.3677C18.7832 48.6831 19.4698 48.8151 20.0732 48.9283C22.2628 49.3397 24.5229 49.3423 26.7424 49.2892C27.924 49.2608 27.9286 47.4363 26.7424 47.4647C24.6373 47.5152 20.865 47.7834 19.1724 46.7923C18.1511 46.1942 17.2243 47.7706 18.2443 48.3677Z" fill="#2C1A0E"/>
<path d="M17.5252 52.075C18.0641 52.3907 18.7514 52.5223 19.3542 52.6358C21.5444 53.0469 23.8045 53.0495 26.0233 52.9964C27.2056 52.968 27.2096 51.1436 26.0233 51.172C23.9183 51.2225 20.1466 51.4907 18.454 50.5C17.4321 49.9015 16.5059 51.4782 17.5252 52.075Z" fill="#2C1A0E"/>
<path d="M17.0682 55.8236C17.6071 56.1389 18.2944 56.2709 18.8978 56.384C21.0874 56.7951 23.3475 56.798 25.567 56.7446C26.7486 56.7166 26.7526 54.8923 25.567 54.9207C23.4612 54.9711 19.6895 55.2393 17.997 54.2484C16.975 53.6503 16.0489 55.2265 17.0682 55.8236Z" fill="#2C1A0E"/>
<path d="M16.8319 59.6304C17.3708 59.9458 18.058 60.0774 18.6615 60.1909C20.851 60.602 23.1111 60.6049 25.3306 60.5515C26.5122 60.5231 26.5162 58.699 25.3306 58.7274C23.2249 58.7779 19.4532 59.0461 17.7606 58.055C16.7387 57.4569 15.8126 59.0332 16.8319 59.6304Z" fill="#2C1A0E"/>
<path d="M16.6066 63.4375C17.1455 63.7529 17.8321 63.8845 18.4355 63.998C20.6258 64.4091 22.8859 64.412 25.1047 64.3586C26.2863 64.3302 26.2909 62.5058 25.1047 62.5345C22.9996 62.585 19.2273 62.8532 17.5347 61.8622C16.5134 61.264 15.5867 62.8403 16.6066 63.4375Z" fill="#2C1A0E"/>
<path d="M16.6066 67.2863C17.1455 67.6016 17.8321 67.7336 18.4355 67.8467C20.6258 68.2581 22.8859 68.2607 25.1047 68.2076C26.2863 68.1793 26.2909 66.355 25.1047 66.3834C22.9996 66.4338 19.2273 66.702 17.5347 65.7114C16.5134 65.113 15.5867 66.6892 16.6066 67.2863Z" fill="#2C1A0E"/>
<path d="M79.7311 78.4396C56.916 55.6228 34.1016 32.8059 11.2872 9.98912C8.04779 6.74965 4.80836 3.51018 1.56959 0.270717C0.734621 -0.564061 -0.566074 0.725721 0.268899 1.56083C23.0833 24.3777 45.8984 47.1945 68.7128 70.0113C71.9522 73.2508 75.191 76.4902 78.4304 79.7297C79.2654 80.5645 80.5661 79.2747 79.7311 78.4396Z" fill="#2C1A0E"/>
<path d="M78.4301 0.270458C55.6151 23.0873 32.8007 45.9042 9.98626 68.721C6.74683 71.9605 3.50739 75.2 0.268629 78.4394C-0.56568 79.2742 0.734351 80.565 1.56932 79.7295C24.3837 56.9127 47.1988 34.0958 70.0132 11.279C73.2526 8.03951 76.4914 4.80004 79.7308 1.56057C80.5651 0.725793 79.2651 -0.564981 78.4301 0.270458Z" fill="#2C1A0E"/>
</svg>
