<svg width="18" height="18" viewBox="0 0 18 18" fill="none" xmlns="http://www.w3.org/2000/svg">
<path d="M16.5798 17.6663C7.33785 17.6793 0.323268 10.5813 0.333018 1.41959C0.333018 0.820508 0.818351 0.333008 1.41635 0.333008H4.27635C4.8126 0.333008 5.26868 0.727341 5.34777 1.25817C5.53638 2.53115 5.90668 3.77047 6.44735 4.93826L6.55893 5.17876C6.63389 5.3406 6.65001 5.52352 6.60453 5.69598C6.55904 5.86843 6.45479 6.01961 6.30977 6.12342C5.4236 6.75609 5.0856 8.02901 5.77569 9.02134C6.64127 10.2672 7.73218 11.3592 8.97802 12.2248C9.97143 12.9138 11.2444 12.5758 11.8759 11.6907C11.9796 11.5452 12.1309 11.4406 12.3037 11.3949C12.4764 11.3492 12.6596 11.3653 12.8217 11.4404L13.0611 11.5509C14.2289 12.0926 15.4683 12.4631 16.7412 12.6516C17.272 12.7307 17.6664 13.1868 17.6664 13.7241V16.583C17.6664 16.7254 17.6383 16.8663 17.5838 16.9978C17.5293 17.1293 17.4494 17.2488 17.3487 17.3494C17.248 17.45 17.1284 17.5298 16.9968 17.5842C16.8653 17.6386 16.7243 17.6665 16.5819 17.6663H16.5798Z" fill="#0066B3"/>
</svg>
