<svg width="17" height="17" viewBox="0 0 17 17" fill="none" xmlns="http://www.w3.org/2000/svg">
<path d="M16.9676 6.45081C16.9341 6.34289 16.8723 6.24701 16.7895 6.17403C16.7066 6.10105 16.6059 6.05389 16.4988 6.03792L11.3359 5.24858L9.02067 0.342519C8.97328 0.239862 8.89928 0.153285 8.80715 0.0927074C8.71502 0.0321293 8.60849 0 8.49975 0C8.39102 0 8.28449 0.0321293 8.19236 0.0927074C8.10023 0.153285 8.02623 0.239862 7.97884 0.342519L5.66363 5.24858L0.500738 6.03792C0.393071 6.05329 0.291704 6.10015 0.208234 6.17313C0.124764 6.24611 0.0625619 6.34226 0.0287448 6.45059C-0.00507237 6.55892 -0.00913889 6.67504 0.0170105 6.78568C0.0431599 6.89632 0.0984691 6.997 0.17661 7.07621L3.91566 10.8954L3.04746 16.2933C3.03127 16.4031 3.0441 16.5154 3.08456 16.6181C3.12501 16.7207 3.19154 16.8098 3.27689 16.8755C3.36225 16.9413 3.46316 16.9812 3.56864 16.9909C3.67413 17.0007 3.78014 16.9799 3.87514 16.9308L8.50554 14.3867L13.1359 16.9308C13.2313 16.9832 13.3387 17.0066 13.4461 16.9984C13.5535 16.9902 13.6565 16.9508 13.7437 16.8846C13.8309 16.8184 13.8987 16.7279 13.9396 16.6235C13.9805 16.519 13.9928 16.4047 13.9752 16.2933L13.0954 10.8954L16.8345 7.07621C16.91 6.99536 16.9626 6.89394 16.9861 6.78343C17.0096 6.67292 17.0032 6.5577 16.9676 6.45081Z" fill="#DA8F2E"/>
</svg>
