<svg width="64" height="80" viewBox="0 0 64 80" fill="none" xmlns="http://www.w3.org/2000/svg">
<path d="M23.9712 44.8959H8.46399C6.52122 44.8959 4.94629 43.3438 4.94629 41.4291V10.6557C4.94629 8.74109 6.52122 7.18896 8.46399 7.18896H23.9712C25.914 7.18896 27.4889 8.74109 27.4889 10.6557V41.4291C27.4889 43.3438 25.914 44.8959 23.9712 44.8959Z" fill="#0065A8"/>
<path d="M10.3855 12.7114H9.54812V11.4517H11.9199V16.2656H12.8542V17.534H9.46875V16.2656H10.3855V12.7114Z" fill="white"/>
<path d="M15.5874 13.9547C15.705 13.804 15.7915 13.6389 15.8474 13.4593C15.9032 13.2797 15.8961 13.1162 15.8255 12.9684C15.755 12.8207 15.5992 12.7466 15.3581 12.7466C14.9525 12.7466 14.7497 12.9436 14.7497 13.3376H13.4097C13.4038 12.7118 13.586 12.2285 13.9564 11.8866C14.3264 11.5448 14.8026 11.3681 15.3846 11.3565C15.8133 11.3449 16.1896 11.4347 16.5129 11.6259C16.8363 11.8171 17.0698 12.0604 17.2142 12.3555C17.3578 12.651 17.4166 12.9871 17.3902 13.3637C17.3637 13.7403 17.239 14.0995 17.0156 14.4409L15.7726 16.1444H17.6064V17.5345H13.2686V17.2999L15.5874 13.9547Z" fill="white"/>
<path d="M20.8618 11.3389C21.5257 11.3389 22.0783 11.5272 22.5193 11.9038C22.9602 12.2804 23.1807 12.7899 23.1807 13.433V15.5619C23.1807 16.205 22.9602 16.7145 22.5193 17.0911C22.0783 17.4677 21.5257 17.656 20.8618 17.656C20.2092 17.656 19.6625 17.4677 19.2215 17.0911C18.781 16.7145 18.5605 16.205 18.5605 15.5619V13.433C18.5605 12.7899 18.781 12.2804 19.2215 11.9038C19.6625 11.5272 20.2092 11.3389 20.8618 11.3389ZM20.8618 16.2745C21.1024 16.2745 21.301 16.2091 21.4568 16.0788C21.6126 15.9484 21.6903 15.7647 21.6903 15.5271V13.4591C21.6903 13.2273 21.6126 13.0477 21.4568 12.9202C21.301 12.7927 21.1024 12.729 20.8618 12.729C20.6266 12.729 20.4339 12.7927 20.284 12.9202C20.134 13.0477 20.0593 13.2273 20.0593 13.4591V15.5271C20.0593 15.7647 20.134 15.9484 20.284 16.0788C20.4339 16.2091 20.6266 16.2745 20.8618 16.2745Z" fill="white"/>
<path d="M16.7779 25.832C17.0131 26.0058 17.1995 26.2156 17.3377 26.4619C17.4758 26.7081 17.5569 26.9614 17.5804 27.2221C17.6035 27.4828 17.5699 27.7435 17.4788 28.0043C17.3877 28.2646 17.2482 28.498 17.0601 28.7037C16.872 28.9093 16.6175 29.0757 16.2975 29.2032C15.9771 29.3306 15.6168 29.3944 15.2175 29.3944C14.6178 29.3944 14.1168 29.257 13.7141 28.9818C13.3114 28.7066 13.0515 28.3792 12.9339 27.9997C12.8163 27.6206 12.8176 27.2262 12.9381 26.8182C13.0586 26.4097 13.2984 26.0782 13.6566 25.8233C13.4332 25.5858 13.2996 25.3093 13.2555 24.9935C13.2115 24.6778 13.2497 24.3806 13.3702 24.1025C13.4907 23.8248 13.7141 23.5885 14.0404 23.3944C14.3667 23.2008 14.7589 23.1035 15.2175 23.1035C15.676 23.1035 16.0666 23.2008 16.3899 23.3944C16.7133 23.5885 16.935 23.8261 17.0555 24.1071C17.176 24.3881 17.2142 24.6865 17.1701 25.0022C17.126 25.318 16.9954 25.5944 16.7779 25.832ZM14.6266 27.8478C14.7677 28.0043 14.9647 28.0825 15.2175 28.0825C15.4698 28.0825 15.6685 28.0043 15.8125 27.8478C15.9565 27.6914 16.0283 27.5176 16.0283 27.3264C16.0283 27.1352 15.9565 26.9614 15.8125 26.8049C15.6685 26.6485 15.4698 26.5703 15.2175 26.5703C14.9647 26.5703 14.7677 26.6485 14.6266 26.8049C14.4855 26.9614 14.415 27.1352 14.415 27.3264C14.415 27.5176 14.4855 27.6914 14.6266 27.8478ZM14.706 25.0585C14.8059 25.2207 14.9764 25.3019 15.2175 25.3019C15.4585 25.3019 15.6273 25.2207 15.7243 25.0585C15.8213 24.8963 15.8213 24.7341 15.7243 24.5718C15.6273 24.41 15.4585 24.3285 15.2175 24.3285C14.9764 24.3285 14.8059 24.41 14.706 24.5718C14.606 24.7341 14.606 24.8963 14.706 25.0585Z" fill="white"/>
<path d="M20.8618 23.0947C21.5257 23.0947 22.0783 23.283 22.5193 23.6596C22.9602 24.0362 23.1807 24.5457 23.1807 25.1888V27.3176C23.1807 27.9607 22.9602 28.4702 22.5193 28.8468C22.0783 29.2234 21.5257 29.4117 20.8618 29.4117C20.2092 29.4117 19.6625 29.2234 19.2215 28.8468C18.781 28.4702 18.5605 27.9607 18.5605 27.3176V25.1888C18.5605 24.5457 18.781 24.0362 19.2215 23.6596C19.6625 23.283 20.2092 23.0947 20.8618 23.0947ZM20.8618 28.0302C21.1024 28.0302 21.301 27.9649 21.4568 27.8345C21.6126 27.7041 21.6903 27.5204 21.6903 27.2828V25.2149C21.6903 24.9831 21.6126 24.8035 21.4568 24.676C21.301 24.5486 21.1024 24.4848 20.8618 24.4848C20.6266 24.4848 20.4339 24.5486 20.284 24.676C20.134 24.8035 20.0593 24.9831 20.0593 25.2149V27.2828C20.0593 27.5204 20.134 27.7041 20.284 27.8345C20.4339 27.9649 20.6266 28.0302 20.8618 28.0302Z" fill="white"/>
<path d="M16.1619 34.9116H17.9164L16.6117 37.1013C17.2638 37.0549 17.7887 37.2097 18.1851 37.566C18.582 37.9223 18.7806 38.4161 18.7806 39.0476C18.7806 39.7313 18.5614 40.251 18.1234 40.6074C17.6858 40.9637 17.1198 41.1416 16.4265 41.1416C15.7269 41.1416 15.1566 40.9637 14.7161 40.6074C14.2752 40.251 14.0547 39.7313 14.0547 39.0476C14.0547 38.5783 14.1635 38.1818 14.381 37.8574L16.1619 34.9116ZM16.4265 39.8211C16.6675 39.8211 16.8552 39.7486 16.9904 39.6038C17.1257 39.4589 17.1933 39.2735 17.1933 39.0476C17.1933 38.8274 17.1273 38.6449 16.9951 38.5001C16.8628 38.3552 16.6734 38.2828 16.4265 38.2828C16.1737 38.2828 15.978 38.3569 15.8398 38.5046C15.7017 38.6524 15.6328 38.8332 15.6328 39.0476C15.6328 39.2735 15.7063 39.4589 15.8533 39.6038C16.0002 39.7486 16.1913 39.8211 16.4265 39.8211Z" fill="white"/>
<path d="M23.8307 34.9639V35.1985L21.3354 41.0462H19.7132L21.7499 36.354H19.3252V34.9639H23.8307Z" fill="white"/>
<path d="M32.5676 15.6747C32.5676 15.8195 32.634 15.9424 32.7663 16.0438C32.8981 16.1452 33.0585 16.209 33.2467 16.235C33.4348 16.2611 33.6242 16.2657 33.8152 16.2483C34.0063 16.2309 34.168 16.1758 34.3003 16.0831C34.4326 15.9904 34.4985 15.8775 34.4985 15.7442C34.4985 15.5472 34.4002 15.411 34.2033 15.3357C34.0063 15.2604 33.7283 15.2111 33.3701 15.188C32.647 15.1358 32.0944 14.9678 31.7126 14.6839C31.3301 14.4004 31.1365 13.9456 31.1306 13.3198C31.1189 12.8216 31.2747 12.4019 31.598 12.0601C31.9209 11.7182 32.3148 11.508 32.7793 11.4298C33.2437 11.3515 33.7094 11.3515 34.1768 11.4298C34.6442 11.508 35.0394 11.7182 35.3627 12.0601C35.6856 12.4019 35.8444 12.8216 35.8389 13.3198H34.3397C34.3397 13.1286 34.2532 12.9825 34.0798 12.8811C33.9064 12.7798 33.7153 12.7305 33.5066 12.7334C33.2979 12.7363 33.1026 12.7884 32.9204 12.8898C32.7381 12.9912 32.6411 13.1286 32.6294 13.3025C32.6117 13.511 32.6869 13.6575 32.854 13.7411C33.0216 13.8251 33.2731 13.8847 33.6082 13.9195C33.9135 13.9543 34.1592 13.9861 34.3444 14.0151C34.5296 14.0441 34.7425 14.1004 34.9835 14.1844C35.2245 14.2684 35.411 14.3698 35.5433 14.4886C35.6756 14.6073 35.7902 14.7741 35.8872 14.9881C35.9842 15.2025 36.0325 15.4574 36.0325 15.7529C36.0325 16.0252 35.9754 16.2772 35.8607 16.5086C35.7461 16.7403 35.592 16.9315 35.398 17.0822C35.204 17.2328 34.9818 17.3603 34.7324 17.4646C34.4825 17.5689 34.218 17.631 33.9387 17.6512C33.6595 17.6715 33.3819 17.6703 33.1056 17.6471C32.8292 17.6239 32.5664 17.5585 32.3165 17.4518C32.0666 17.3446 31.8462 17.2142 31.6551 17.0607C31.464 16.9071 31.3124 16.7101 31.2012 16.4697C31.0895 16.2292 31.0366 15.9644 31.0424 15.6747H32.5676Z" fill="#2C1A0E"/>
<path d="M40.1148 14.9793V17.534H38.5544V14.9793L36.4824 11.6863V11.4517H38.184L39.3039 13.4762H39.3657L40.4852 11.4517H42.1956V11.6863L40.1148 14.9793Z" fill="#2C1A0E"/>
<path d="M44.1448 15.6747C44.1448 15.8195 44.2111 15.9424 44.3434 16.0438C44.4753 16.1452 44.6357 16.209 44.8238 16.235C45.0119 16.2611 45.2013 16.2657 45.3924 16.2483C45.5835 16.2309 45.7451 16.1758 45.8774 16.0831C46.0097 15.9904 46.0756 15.8775 46.0756 15.7442C46.0756 15.5472 45.9774 15.411 45.7804 15.3357C45.5835 15.2604 45.3055 15.2111 44.9473 15.188C44.2241 15.1358 43.6715 14.9678 43.2898 14.6839C42.9072 14.4004 42.7136 13.9456 42.7078 13.3198C42.696 12.8216 42.8518 12.4019 43.1752 12.0601C43.4981 11.7182 43.892 11.508 44.3564 11.4298C44.8209 11.3515 45.2866 11.3515 45.754 11.4298C46.2213 11.508 46.6165 11.7182 46.9399 12.0601C47.2628 12.4019 47.4215 12.8216 47.4161 13.3198H45.9169C45.9169 13.1286 45.8304 12.9825 45.657 12.8811C45.4835 12.7798 45.2925 12.7305 45.0837 12.7334C44.875 12.7363 44.6798 12.7884 44.4975 12.8898C44.3153 12.9912 44.2183 13.1286 44.2065 13.3025C44.1889 13.511 44.264 13.6575 44.4312 13.7411C44.5987 13.8251 44.8503 13.8847 45.1854 13.9195C45.4907 13.9543 45.7363 13.9861 45.9215 14.0151C46.1067 14.0441 46.3196 14.1004 46.5607 14.1844C46.8017 14.2684 46.9881 14.3698 47.1204 14.4886C47.2527 14.6073 47.3673 14.7741 47.4643 14.9881C47.5614 15.2025 47.6096 15.4574 47.6096 15.7529C47.6096 16.0252 47.5525 16.2772 47.4379 16.5086C47.3233 16.7403 47.1691 16.9315 46.9751 17.0822C46.7811 17.2328 46.559 17.3603 46.3095 17.4646C46.0597 17.5689 45.7951 17.631 45.5159 17.6512C45.2366 17.6715 44.959 17.6703 44.6827 17.6471C44.4064 17.6239 44.1435 17.5585 43.8937 17.4518C43.6438 17.3446 43.4233 17.2142 43.2323 17.0607C43.0412 16.9071 42.8896 16.7101 42.7783 16.4697C42.6666 16.2292 42.6137 15.9644 42.6196 15.6747H44.1448Z" fill="#2C1A0E"/>
<path d="M33.8013 23.208C34.4417 23.208 34.9973 23.3587 35.4676 23.6599C35.9375 23.9612 36.2785 24.3374 36.4901 24.7893C36.7018 25.2413 36.8076 25.728 36.8076 26.249C36.8076 26.7705 36.7018 27.2571 36.4901 27.7091C36.2785 28.161 35.9375 28.5376 35.4676 28.8385C34.9973 29.1398 34.4417 29.2904 33.8013 29.2904H31.4736V23.208H33.8013ZM33.0517 24.6242V27.8742H33.8013C34.1125 27.8742 34.3846 27.7943 34.6168 27.635C34.8486 27.4757 35.0162 27.2745 35.1191 27.0312C35.2219 26.7878 35.2736 26.5271 35.2736 26.249C35.2736 25.9713 35.2219 25.7106 35.1191 25.4672C35.0162 25.2239 34.8486 25.0228 34.6168 24.8634C34.3846 24.7041 34.1125 24.6242 33.8013 24.6242H33.0517Z" fill="#2C1A0E"/>
<path d="M39.8512 27.9263H40.6356V29.2904H37.5059V27.9263H38.2907V24.5634H37.5676V23.208H40.5739V24.5634H39.8512V27.9263Z" fill="#2C1A0E"/>
<path d="M45.5901 29.29L45.2285 28.5252H42.795L42.4335 29.29H40.8906V29.064L43.6681 23.1294H44.3467L47.1329 29.064V29.29H45.5901ZM44.717 27.1959L44.0032 25.5972L43.3065 27.1959H44.717Z" fill="#2C1A0E"/>
<path d="M33.0517 41.0463H31.4736V34.9639H34.1889C34.5064 34.9639 34.7974 35.016 35.062 35.1203C35.3265 35.2246 35.5453 35.3636 35.7187 35.5375C35.8922 35.7113 36.0392 35.9124 36.1597 36.1413C36.2802 36.3701 36.3537 36.6089 36.3801 36.8581C36.4066 37.1072 36.4066 37.3564 36.3801 37.6055C36.3537 37.8546 36.2802 38.0918 36.1597 38.3177C36.0392 38.5437 35.8922 38.7436 35.7187 38.9174C35.5453 39.0912 35.3265 39.2303 35.062 39.3346C34.7974 39.4389 34.5064 39.491 34.1889 39.491H33.0517V41.0463ZM34.1801 38.0918C34.3447 38.0918 34.4846 38.0326 34.5992 37.9138C34.7138 37.795 34.7856 37.6502 34.815 37.4793C34.8444 37.3083 34.8474 37.1391 34.8239 36.9711C34.8003 36.803 34.7315 36.6582 34.6168 36.5365C34.5022 36.4148 34.3565 36.354 34.1801 36.354C34.0684 36.354 33.9496 36.354 33.8232 36.354C33.6968 36.354 33.5557 36.354 33.3999 36.354C33.2441 36.354 33.1282 36.354 33.0517 36.354V38.0918H34.1801Z" fill="#2C1A0E"/>
<path d="M39.321 39.5386C39.5091 39.6689 39.7296 39.7343 39.9824 39.7343C40.2348 39.7343 40.454 39.6689 40.6392 39.5386C40.8244 39.4082 40.9167 39.2274 40.9167 38.9956V34.9639H42.4243V39.0217C42.4243 39.6648 42.1849 40.1771 41.7058 40.5595C41.2267 40.9419 40.6522 41.1331 39.9824 41.1331C39.3181 41.1331 38.7436 40.9419 38.2586 40.5595C37.7736 40.1771 37.5312 39.6648 37.5312 39.0217V34.9639H39.0388V38.9956C39.0388 39.2274 39.1329 39.4082 39.321 39.5386Z" fill="#2C1A0E"/>
<path d="M45.5381 34.9639V39.6474H47.7776V41.0462H43.9512V34.9639H45.5381Z" fill="#2C1A0E"/>
<path d="M49.9553 39.1863C49.9553 39.3312 50.0217 39.4541 50.1539 39.5555C50.2858 39.6569 50.4462 39.7206 50.6343 39.7467C50.8225 39.7727 51.0119 39.7773 51.2029 39.7599C51.394 39.7425 51.5557 39.6875 51.6879 39.5948C51.8202 39.5021 51.8861 39.3891 51.8861 39.2558C51.8861 39.0589 51.7879 38.9227 51.5909 38.8474C51.394 38.7721 51.116 38.7228 50.7578 38.6996C50.0347 38.6475 49.4821 38.4795 49.1003 38.1956C48.7178 37.9121 48.5242 37.4573 48.5183 36.8315C48.5066 36.3332 48.6623 35.9136 48.9857 35.5718C49.3086 35.2299 49.7025 35.0197 50.167 34.9415C50.6314 34.8633 51.0971 34.8633 51.5645 34.9415C52.0319 35.0197 52.427 35.2299 52.7504 35.5718C53.0733 35.9136 53.232 36.3332 53.2266 36.8315H51.7274C51.7274 36.6403 51.6409 36.4942 51.4675 36.3928C51.294 36.2914 51.103 36.2422 50.8943 36.2451C50.6856 36.248 50.4903 36.3001 50.3081 36.4015C50.1258 36.5029 50.0288 36.6403 50.017 36.8141C49.9994 37.0227 50.0746 37.1692 50.2417 37.2528C50.4093 37.3368 50.6608 37.3964 50.9959 37.4312C51.3012 37.466 51.5468 37.4978 51.732 37.5268C51.9172 37.5558 52.1301 37.612 52.3712 37.696C52.6122 37.7801 52.7986 37.8815 52.9309 38.0002C53.0632 38.119 53.1778 38.2858 53.2748 38.4997C53.3719 38.7141 53.4201 38.969 53.4201 39.2645C53.4201 39.5368 53.363 39.7889 53.2484 40.0202C53.1338 40.252 52.9796 40.4432 52.7856 40.5938C52.5916 40.7445 52.3695 40.8719 52.12 40.9762C51.8702 41.0805 51.6056 41.1426 51.3264 41.1629C51.0471 41.1831 50.7696 41.1819 50.4932 41.1587C50.2169 41.1355 49.9541 41.0702 49.7042 40.9634C49.4543 40.8562 49.2339 40.7258 49.0428 40.5723C48.8517 40.4188 48.7001 40.2218 48.5889 39.9813C48.4772 39.7409 48.4242 39.476 48.4301 39.1863H49.9553Z" fill="#2C1A0E"/>
<path d="M58.428 34.9639V36.354H56.1445V37.2144H58.2428V38.5958H56.1445V39.6648H58.5074V41.0462H54.5752V34.9639H58.428Z" fill="#2C1A0E"/>
<path d="M57.4492 0H6.55089C2.93239 0.000724248 0.000734888 2.88983 0 6.45563V59.3427V73.544C0.000787349 77.1097 2.93223 79.9992 6.55089 80H57.4492C61.0678 79.9992 63.9992 77.1097 64 73.544V6.45563C63.9993 2.88983 61.0676 0.000724248 57.4492 0ZM3.56055 3.509C4.32945 2.7531 5.37928 2.28902 6.55089 2.28845H57.4492C58.6207 2.28902 59.6706 2.7531 60.4394 3.509C61.2065 4.26672 61.6774 5.30124 61.6779 6.45563V58.4202L2.32207 58.2027V6.45563C2.32264 5.30124 2.79355 4.26672 3.56055 3.509ZM60.4394 76.4908C59.6705 77.2468 58.6206 77.711 57.4492 77.7116H6.55089C5.37938 77.711 4.3295 77.2468 3.5606 76.4908C2.79355 75.733 2.32264 74.6983 2.32207 73.544V60.4912L61.6779 60.7086V73.544C61.6774 74.6983 61.2065 75.733 60.4394 76.4908Z" fill="#2C1A0E"/>
<path d="M32.2159 61.9482C28.046 61.949 24.6668 65.2788 24.666 69.3889C24.6668 73.4985 28.0459 76.8286 32.2159 76.8294C36.3863 76.8286 39.7654 73.4985 39.7662 69.3889C39.7655 65.2788 36.3862 61.949 32.2159 61.9482ZM35.9128 73.0318C34.963 73.966 33.6633 74.5404 32.2159 74.541C30.7687 74.5404 29.4691 73.9661 28.5194 73.0318C27.5714 72.0959 26.9887 70.815 26.9881 69.3889C26.9887 67.9624 27.5714 66.6816 28.5193 65.7457C29.469 64.8115 30.7687 64.2373 32.2159 64.2367C33.6634 64.2373 34.9631 64.8115 35.9128 65.7457C36.8608 66.6816 37.4436 67.9624 37.4441 69.3889C37.4436 70.815 36.8608 72.0959 35.9128 73.0318Z" fill="#2C1A0E"/>
<path d="M8.16245 56.1699H26.6474C29.0834 56.1691 31.057 54.2247 31.0579 51.8237C31.0571 49.4224 29.0834 47.4778 26.6474 47.4771H8.16245C5.72642 47.4778 3.75274 49.4224 3.75195 51.8237C3.75279 54.2247 5.72647 56.1691 8.16245 56.1699ZM8.16245 49.7655H26.6474C27.8001 49.7676 28.7337 50.6873 28.7358 51.8237C28.7337 52.9595 27.8002 53.8794 26.6474 53.8815H8.16245C7.00963 53.8794 6.07612 52.9595 6.07402 51.8237C6.07612 50.6873 7.00968 49.7676 8.16245 49.7655Z" fill="#2C1A0E"/>
<path d="M37.3529 56.1699H55.8379C58.2738 56.1691 60.2475 54.2247 60.2483 51.8237C60.2475 49.4224 58.2738 47.4778 55.8379 47.4771H37.3529C34.9169 47.4778 32.9432 49.4224 32.9424 51.8237C32.9432 54.2247 34.9169 56.1691 37.3529 56.1699ZM37.3529 49.7655H55.8379C56.9906 49.7676 57.9241 50.6873 57.9262 51.8237C57.9241 52.9595 56.9906 53.8794 55.8379 53.8815H37.3529C36.2001 53.8794 35.2665 52.9595 35.2644 51.8237C35.2665 50.6873 36.2001 49.7676 37.3529 49.7655Z" fill="#2C1A0E"/>
</svg>
