<svg width="39" height="39" viewBox="0 0 39 39" fill="none" xmlns="http://www.w3.org/2000/svg">
<circle cx="19.5" cy="19.5" r="19.5" fill="#4489C8"/>
<g clip-path="url(#clip0)">
<path fill-rule="evenodd" clip-rule="evenodd" d="M25.3176 20.4107C25.8536 20.9159 26.4193 21.3913 26.9 21.9475C27.1123 22.1946 27.3133 22.4496 27.4671 22.7365C27.685 23.1442 27.4877 23.5929 27.109 23.6172L24.7552 23.6162C24.1481 23.6649 23.6638 23.4289 23.2566 23.0281C22.9307 22.7076 22.6289 22.3665 22.3155 22.0352C22.1871 21.8998 22.0526 21.7724 21.892 21.6716C21.5706 21.4703 21.2917 21.5319 21.1081 21.8555C20.9211 22.1846 20.8787 22.549 20.8603 22.9158C20.8351 23.451 20.6675 23.5917 20.1108 23.6162C18.9209 23.6703 17.7917 23.4965 16.7427 22.917C15.8178 22.4061 15.1006 21.6848 14.4764 20.8683C13.261 19.2783 12.3302 17.5312 11.4937 15.7351C11.3054 15.3304 11.4431 15.1132 11.9055 15.1055C12.6734 15.0911 13.4412 15.0921 14.21 15.1045C14.5221 15.1089 14.7287 15.2817 14.8492 15.5664C15.2646 16.5527 15.773 17.4911 16.4111 18.3609C16.581 18.5924 16.7543 18.824 17.001 18.987C17.274 19.1675 17.4818 19.1077 17.6102 18.8141C17.6917 18.6279 17.7274 18.4274 17.7458 18.228C17.8066 17.5421 17.8146 16.8573 17.7079 16.1738C17.6424 15.7472 17.3935 15.471 16.9527 15.3903C16.7277 15.3491 16.7612 15.2683 16.8701 15.1443C17.0593 14.9305 17.2373 14.7974 17.592 14.7974H20.2521C20.6709 14.8772 20.7639 15.0588 20.8213 15.4657L20.8236 18.3187C20.819 18.4762 20.905 18.9436 21.1989 19.0478C21.434 19.1221 21.5891 18.9404 21.7302 18.7964C22.3671 18.1438 22.8217 17.3724 23.2278 16.5737C23.408 16.2225 23.5629 15.8578 23.7131 15.4934C23.8244 15.2229 23.999 15.0899 24.3145 15.0958L26.8747 15.098C26.9507 15.098 27.0275 15.0991 27.101 15.1112C27.5324 15.1822 27.6506 15.3614 27.5174 15.7681C27.3074 16.4063 26.8989 16.9381 26.4995 17.4724C26.0726 18.0428 25.6159 18.5937 25.1925 19.1675C24.8035 19.6915 24.8344 19.9556 25.3176 20.4107Z" fill="white"/>
</g>
<defs>
<clipPath id="clip0">
<rect width="16.1571" height="15.6" fill="white" transform="translate(11.4121 11.4116)"/>
</clipPath>
</defs>
</svg>
